<svg viewBox="0 0 72 72" id="logo-circle" xmlns="http://www.w3.org/2000/svg">
	<path fill-rule="evenodd" clip-rule="evenodd" d="M0 36C0 16.1177 16.0694 0 35.8919 0C55.7145 0 71.7839 16.1177 71.7839 36C71.7839 55.8823 55.7145 72 35.8919 72C16.0694 72 0 55.8823 0 36ZM28.5537 3.87646C16.3034 6.68012 6.66007 16.3524 3.86483 28.6397L28.5537 3.87646ZM3.86691 43.3695C6.66481 55.6522 16.3062 65.3203 28.5532 68.1234L3.86691 43.3695ZM43.2393 68.1215C55.4851 65.3151 65.1242 55.6448 67.9189 43.3608L43.2393 68.1215ZM67.9169 28.6301C65.1195 16.3506 55.4823 6.68443 43.2397 3.87865L67.9169 28.6301ZM39.7812 4.7249C37.635 2.57221 34.1562 2.57221 32.01 4.7249L20.9644 15.8038H50.8269L39.7812 4.7249ZM56.0305 21.023V50.9726L67.073 39.8938C69.2192 37.7411 69.2194 34.2517 67.0732 32.099L56.0305 21.023ZM50.8239 56.1962L39.7812 67.2751C37.635 69.4277 34.1562 69.4277 32.01 67.2751L20.9613 56.1962L50.8239 56.1962ZM15.7594 50.9799L4.71072 39.901C2.56464 37.7483 2.56454 34.259 4.71072 32.1064L15.7594 21.0245V50.9799ZM18.8015 18.8551H52.9883V53.1449L18.8015 53.1449V18.8551Z" fill="url(#paint0_linear)"/>
	<defs>
		<linearGradient id="paint0_linear" x1="35.8919" y1="-1.86673e-06" x2="80.536" y2="52.2292" gradientUnits="userSpaceOnUse">
			<stop offset="1" stop-color="#00327b"/>
			<stop offset="1" stop-color="#BECBDD"/>
		</linearGradient>
	</defs>
</svg>
