<svg width="160" height="32" viewBox="0 0 160 32" xmlns="http://www.w3.org/2000/svg" svg-inline="" role="presentation" focusable="false" tabindex="-1" class="icon logo"><path d="M27.134 17.184c2.564-3.062 6.68-3.839 9.194-1.734 1.078.902 1.462 2.399 1.086 3.77-.262.95-1.118 2.424-2.755 2.745-.81.158-6.158-.068-7.133.051-.076.01-.284 1.369.381 2.29.468.647 1.52.879 2.567.832 1.494-.069 2.198-.536 2.994-.903.419-.194 1.183-.418 1.569-.215.451.238.393.846.072 1.278-1.258 1.689-5.87 2.953-8.066 1.242-2.585-2.016-2.473-6.294.091-9.356zM11.606 15.45c3.436-2.556 7.397-1.328 8.193 1.734.796 3.062-1.543 7.374-5.31 9.356-3.773 1.984-6.041-.171-8.083-1.706-.547-.412-.179-1.148.57-.578.612.465 2.508 1.988 4.472 1.943 1.395-.031 2.626-1.033 3.467-1.893 1.055-1.08 1.667-2.228 1.702-2.29.436-.769.65-1.223.848-2.288.19-1.027.198-3.045-2.131-3.146-2.274-.099-3.89 1.986-4.397 2.936-.869 1.63-.925 3.51-1.837 3.492-1.68-.03-.629-3.003-.254-3.923.565-1.388 1.691-2.842 2.76-3.637zm-6.249 6.299l.718.828a.327.327 0 01.015.409l-1.046 1.41a.324.324 0 01-.394.103l-1.002-.447.856-1.152.853-1.151zm-1.319-2.197l1.363 1.377a.322.322 0 01.017.41l-1.072 1.445-1.072 1.445a.325.325 0 01-.398.102l-1.712-.905 1.438-1.937 1.436-1.937zm-.549-.718a.315.315 0 11.507.376l-1.587 2.137-1.586 2.137a.315.315 0 11-.506-.376zM15.193 7.242c.784.286 3.077 1.15 4.658 1.997 1.687.903 3.857 2.988 4.135 3.565.357.736.288 3.517.145 4.681-.143 1.165-.415 4.114-1.533 4.708-.546.29-1.012.19-1.13-.169-.205-.616.284-6.773-.31-7.462-.594-.69-3.023-1.86-3.992-2.424-1.878-1.093-2.876-2.115-3.185-2.424-.69-.69-.448-1.465-.276-1.83.173-.367.704-.927 1.488-.642zM.036 21.222a.185.185 0 01.258-.038l.807.599-.22.297-.806-.6a.185.185 0 01-.039-.258zm1.825-2.149l.807.599-.22.297-.807-.6a.186.186 0 01-.039-.258.185.185 0 01.26-.038zm32.479-1.857c-.702-.725-1.97-.698-2.393-.634-.568.086-1.18.167-2.345 1.087-1.03.814-1.41 2.029-1.41 2.029s4.722.053 5.229-.01c.507-.064 1.029-.25 1.253-.698.331-.665.218-1.204-.334-1.774zm-10.968-13.8c.105.392.807 2.275 1.005 2.77.19.476 1.154 2.411 1.837 2.791.749.418 4.53.573 4.53.573s1.203-.05 1.203.9c0 .54-.52.815-1.09.815-.571 0-4.64.23-5.279-.006-.808-.301-2.724-1.902-3.501-2.98-.926-1.285-1.62-2.389-1.284-4.056.191-.95 1.004-1.523 1.553-1.567a.99.99 0 011.026.76zm3.953-3.09a2.555 2.555 0 110 5.11 2.555 2.555 0 010-5.11z" fill="#FF6A00"></path><path d="M42.859 10.314l-.834 4.768h3.262c3.772 0 5.305 2.02 4.598 6.057-.704 4.023-2.942 6.035-6.714 6.035-3.757 0-5.282-2.015-4.577-6.046l1.892-10.814h2.373zm12.33 4.768l-2.117 12.092H50.7l2.116-12.092h2.372zm5.602-4.768l-1.689 9.65h1.803c1.262 0 2.204-.342 2.826-1.026.506-.548.867-1.438 1.083-2.67l.207-1.186h2.373l-.207 1.182c-.384 2.197-1.242 3.795-2.573 4.795 1.069 1.02 1.405 2.662 1.009 4.928l-.208 1.187h-2.373l.208-1.187c.216-1.232.166-2.121-.149-2.67-.385-.668-1.208-1.003-2.47-1.003h-1.94l-.85 4.86h-2.373l2.95-16.86h2.373zM74.9 15.082c3.756 0 5.282 2.017 4.576 6.05l-.207 1.182h-8.851c-.05 1.673.876 2.51 2.777 2.51h5.635l-.411 2.35h-5.635c-3.772 0-5.306-2.012-4.602-6.035.706-4.038 2.945-6.057 6.718-6.057zm-30.024 2.35h-3.262l-.65 3.707c-.213 1.22-.162 2.106.152 2.655.382.686 1.204 1.03 2.466 1.03 1.263 0 2.213-.344 2.85-1.03.507-.55.867-1.434 1.08-2.655.217-1.235.168-2.128-.147-2.677-.397-.687-1.227-1.03-2.489-1.03zm29.613 0c-1.902 0-3.122.844-3.66 2.532h6.41c.052-1.688-.865-2.532-2.75-2.532zm-18.466-7.118l-.411 2.35h-2.373l.411-2.35h2.373z" fill="#242E42"></path><path d="M127.395 15.082c3.771 0 5.304 2.02 4.598 6.057-.704 4.023-2.942 6.035-6.714 6.035h-3.263l-.834 4.768h-2.373l1.89-10.8c.707-4.04 2.939-6.06 6.696-6.06zm-39.538 0c3.255 0 4.673 1.202 4.252 3.604h-2.372c.064-.365.003-.63-.18-.798-.312-.304-1.015-.456-2.11-.456-1.096 0-1.852.154-2.271.46-.243.17-.396.438-.46.806-.081.46.013.768.283.92.27.155.968.27 2.096.347 1.367.09 2.358.295 2.972.613 1.04.577 1.435 1.577 1.186 3.002-.422 2.411-2.26 3.617-5.515 3.617s-4.67-1.21-4.248-3.628h2.373c-.065.372-.006.643.177.813.311.31 1.014.464 2.109.464 1.096 0 1.852-.153 2.271-.46.242-.169.396-.437.46-.806.078-.445-.006-.744-.253-.898-.29-.168-.991-.291-2.103-.368-1.384-.09-2.375-.295-2.973-.614-1.057-.56-1.46-1.561-1.208-3.002.422-2.41 2.26-3.616 5.514-3.616zm10.235-4.768l-.97 5.544c.98-.517 2.114-.776 3.398-.776 3.756 0 5.281 2.02 4.575 6.057l-1.056 6.035h-2.396l1.058-6.046c.216-1.232.168-2.122-.144-2.67-.379-.684-1.195-1.026-2.448-1.026-1.254 0-2.198.342-2.831 1.026-.504.548-.863 1.438-1.079 2.67l-1.058 6.046h-2.395l2.95-16.86h2.396zm15.637 4.768c3.757 0 5.282 2.02 4.575 6.057-.704 4.023-2.934 6.035-6.691 6.035-3.772 0-5.306-2.012-4.602-6.035.707-4.038 2.946-6.057 6.718-6.057zm-.411 2.35c-1.263 0-2.205.343-2.827 1.03-.507.55-.868 1.442-1.084 2.677-.217 1.236-.167 2.129.147 2.678.384.671 1.208 1.007 2.47 1.007 1.262 0 2.203-.336 2.823-1.007.506-.55.868-1.442 1.085-2.678.216-1.235.166-2.128-.148-2.677-.382-.687-1.204-1.03-2.466-1.03zm13.665 0c-1.262 0-2.204.343-2.826 1.03-.507.55-.869 1.442-1.085 2.677l-.644 3.685h3.262c1.262 0 2.21-.336 2.846-1.007.509-.564.87-1.457 1.084-2.678.216-1.235.167-2.128-.148-2.677-.397-.687-1.226-1.03-2.489-1.03z" fill="#FF6A00"></path><path d="M141.537 15.103c3.356 0 4.93 1.61 4.721 4.836-.023.362-.068.747-.137 1.156l-.026.147-.797 4.548-.01.069-.01.068c-.01.059-.019.115-.032.17-.474 2.52-1.564 4.225-3.272 5.12-.842.444-1.835.689-2.978.735v.01h-3.677l.127-.742.249-1.407.036-.202h3.265c1.264 0 2.204-.334 2.825-1.006.43-.467.757-1.186.976-2.149-.937.493-2.064.738-3.376.738-.889 0-1.65-.11-2.29-.336a3.975 3.975 0 01-.83-.392c-.005-.003-.012-.01-.018-.013-.947-.6-1.48-1.574-1.604-2.916l-.01-.137a7.167 7.167 0 01-.019-.539c0-.082.003-.163.006-.248.01-.251.033-.516.066-.79.023-.212.055-.435.095-.663l.02-.108c.002-.023.009-.049.012-.072.033-.166.069-.326.101-.486.066-.284.14-.559.226-.82a8.148 8.148 0 01.65-1.528c.02-.036.039-.069.062-.104.117-.21.248-.405.388-.591.193-.262.405-.5.63-.716 1.13-1.09 2.675-1.632 4.63-1.632zm12.642-.001c3.756 0 5.282 2.019 4.575 6.057-.704 4.023-2.934 6.034-6.69 6.034-3.773 0-5.307-2.011-4.603-6.034.707-4.038 2.946-6.057 6.718-6.057zm-.411 2.35c-1.263 0-2.205.343-2.827 1.03-.507.549-.868 1.441-1.084 2.677-.217 1.236-.167 2.128.147 2.677.384.672 1.208 1.007 2.47 1.007 1.263 0 2.204-.335 2.823-1.007.507-.549.868-1.441 1.085-2.677.216-1.236.167-2.128-.148-2.678-.382-.686-1.204-1.03-2.466-1.03zm-12.643-.001c-.953 0-1.721.195-2.312.59-.052.03-.104.066-.153.105-.13.101-.252.212-.363.336-.274.297-.506.696-.689 1.192a6.27 6.27 0 00-.254.82c-.01.036-.017.072-.026.108-.03.12-.056.248-.082.378l-.013.072-.02.108-.01.068c-.088.526-.13.987-.117 1.385a2.985 2.985 0 00.144.93c.036.108.081.206.13.294.062.108.137.21.229.3.437.471 1.185.706 2.243.706 1.26 0 2.204-.336 2.821-1.006.082-.088.16-.189.232-.297a4.223 4.223 0 00.473-.927c.134-.356.249-.767.337-1.225l.059-.32c0-.006.003-.01.003-.016l.01-.072c.019-.13.039-.254.052-.372.114-.953.04-1.662-.229-2.126-.382-.689-1.201-1.031-2.465-1.031z" fill="#242E42"></path></svg>
