<?xml version="1.0" standalone="no"?>
<!DOCTYPE svg PUBLIC "-//W3C//DTD SVG 20010904//EN"
 "http://www.w3.org/TR/2001/REC-SVG-20010904/DTD/svg10.dtd">
<svg version="1.0" xmlns="http://www.w3.org/2000/svg"
 width="180.000000pt" height="180.000000pt" viewBox="0 0 180.000000 180.000000"
 preserveAspectRatio="xMidYMid meet">

<g transform="translate(0.000000,180.000000) scale(0.100000,-0.100000)"
fill="#000000" stroke="none">
<path d="M0 900 l0 -900 900 0 900 0 0 900 0 900 -900 0 -900 0 0 -900z m981
509 c11 -6 49 -55 84 -110 36 -54 67 -99 71 -99 3 0 19 9 35 21 38 27 92 29
118 5 21 -20 222 -326 242 -370 18 -39 -4 -80 -65 -117 -28 -18 -62 -39 -76
-47 -14 -9 -22 -12 -18 -8 5 6 -60 112 -165 266 -9 14 -42 63 -73 110 l-56 84
22 18 c47 38 5 14 -142 -81 -397 -255 -397 -255 -397 -306 -1 -11 24 -58 53
-105 30 -46 53 -87 51 -90 -2 -3 -23 -16 -48 -29 -42 -23 -73 -24 -103 -4 -7
5 -66 91 -133 193 -81 123 -121 194 -121 212 0 16 11 40 28 57 15 16 160 115
322 220 299 193 324 205 371 180z"/>
</g>
</svg>
