<svg xmlns="http://www.w3.org/2000/svg" width="260" height="140" viewBox="0 0 260 140" fill="none"><path d="M187.365 62.3264C185.026 59.9869 182.541 58.4121 178.622 58.4121C174.704 58.4121 171.835 60.3172 169.825 62.3309C167.816 64.3446 166.332 67.8561 166.332 71.4989V91.5771C166.332 92.3104 166.623 93.0137 167.142 93.5322C167.66 94.0507 168.364 94.342 169.097 94.342C169.83 94.342 170.533 94.0507 171.052 93.5322C171.57 93.0137 171.862 92.3104 171.862 91.5771V82.1647C173.849 83.5449 176.203 84.2983 178.622 84.3278C182.555 84.3278 185.32 82.4544 187.365 80.409C189.694 77.9715 190.994 74.73 190.994 71.3586C190.994 67.9873 189.694 64.7458 187.365 62.3083V62.3264ZM183.482 76.8069C182.215 78.1283 180.197 78.7166 178.622 78.7166C177.048 78.7166 175.025 78.1283 173.758 76.8069C172.491 75.4856 171.871 73.5533 171.871 71.5261C171.871 69.5983 172.491 67.2543 173.758 65.9872C175.077 64.7482 176.813 64.0504 178.622 64.0324C180.429 64.0598 182.16 64.7563 183.482 65.9872C184.822 67.4869 185.543 69.4387 185.501 71.4491C185.552 73.4284 184.827 75.3494 183.482 76.8024V76.8069Z" fill="#28AAE1"></path><path d="M215.652 62.3264C213.312 59.9869 210.832 58.4121 206.923 58.4121C203.013 58.4121 200.135 60.3172 198.126 62.3309C196.116 64.3446 194.637 67.8561 194.637 71.4989V91.5771C194.666 92.2905 194.969 92.965 195.484 93.4595C195.999 93.954 196.685 94.2302 197.399 94.2302C198.113 94.2302 198.8 93.954 199.314 93.4595C199.829 92.965 200.133 92.2905 200.162 91.5771V82.1647C202.149 83.5449 204.504 84.2983 206.923 84.3278C210.855 84.3278 213.62 82.4544 215.665 80.409C217.994 77.9715 219.294 74.73 219.294 71.3586C219.294 67.9873 217.994 64.7458 215.665 62.3083L215.652 62.3264ZM211.769 76.8069C210.502 78.1283 208.484 78.7166 206.909 78.7166C205.334 78.7166 203.316 78.1283 202.044 76.8069C200.773 75.4856 200.157 73.5533 200.157 71.5261C200.157 69.5983 200.777 67.2543 202.044 65.9873C203.352 64.7325 205.094 64.0319 206.907 64.0319C208.719 64.0319 210.461 64.7325 211.769 65.9873C213.111 67.4857 213.832 69.4383 213.787 71.4491C213.84 73.4288 213.116 75.3504 211.769 76.8024V76.8069Z" fill="#28AAE1"></path><path d="M103.851 71.2401C103.851 67.9106 102.552 64.7124 100.231 62.3255C98.1856 60.2801 95.4207 58.4112 91.4884 58.4112C89.0729 58.4412 86.7216 59.1929 84.7368 60.5697V51.4153C84.7368 50.682 84.4455 49.9787 83.927 49.4602C83.4085 48.9417 82.7052 48.6504 81.9719 48.6504C81.2386 48.6504 80.5354 48.9417 80.0168 49.4602C79.4983 49.9787 79.207 50.682 79.207 51.4153V71.2401C79.207 74.8828 80.6868 78.3944 82.7005 80.4081C84.7142 82.4218 87.5741 84.3269 91.4974 84.3269C95.4207 84.3269 97.9005 82.7476 100.24 80.4081C101.424 79.1985 102.353 77.7641 102.973 76.1895C103.594 74.6148 103.892 72.9319 103.851 71.2401V71.2401ZM98.3666 71.2898C98.4115 73.3006 97.69 75.2532 96.3484 76.7517C95.0263 77.9826 93.2945 78.6792 91.4884 78.7066C89.6789 78.6886 87.9425 77.9908 86.6238 76.7517C85.3567 75.4847 84.7368 73.1316 84.7368 71.2129C84.7368 69.1856 85.3567 67.1991 86.6238 65.932C87.8908 64.665 89.9136 64.0224 91.4884 64.0224C93.0631 64.0224 95.0813 64.6107 96.3484 65.932C97.6945 67.3862 98.4187 69.309 98.3666 71.2898V71.2898Z" fill="#1C1259"></path><path d="M107.174 76.9154C107.398 76.6272 107.677 76.3871 107.996 76.2094C108.315 76.0317 108.666 75.9201 109.029 75.8813C109.392 75.8424 109.759 75.8771 110.108 75.9832C110.457 76.0894 110.781 76.2648 111.061 76.4991C112.419 77.6394 114.74 78.8295 116.763 78.7617C118.004 78.7565 119.22 78.4156 120.283 77.7752C121.012 77.1552 121.22 76.6348 121.22 76.223C121.231 76.0363 121.175 75.8518 121.062 75.7026C121.012 75.5488 120.804 75.3406 120.392 75.0827C119.663 74.5623 118.129 73.9921 116.242 73.6301H116.193C114.635 73.3598 113.116 72.904 111.667 72.2726C110.223 71.6168 108.987 70.5775 108.093 69.2678C107.497 68.2823 107.184 67.1521 107.188 66.0007C107.188 63.6159 108.545 61.5977 110.247 60.2989C112.139 59.0297 114.376 58.3711 116.654 58.412C120.234 58.412 122.772 60.1225 124.433 61.2628C125.034 61.6767 125.454 62.3042 125.608 63.0173C125.762 63.7304 125.638 64.4754 125.261 65.1002C125.059 65.4015 124.799 65.6596 124.496 65.8595C124.193 66.0594 123.853 66.197 123.496 66.2644C123.14 66.3318 122.773 66.3275 122.418 66.252C122.063 66.1764 121.727 66.031 121.428 65.8242C119.768 64.7381 118.315 63.91 116.654 63.91C115.546 63.8855 114.458 64.2117 113.545 64.8422C112.876 65.2947 112.717 65.7744 112.717 66.0323C112.696 66.1794 112.733 66.3289 112.821 66.4487C112.959 66.6707 113.157 66.8494 113.392 66.9645C114.066 67.417 115.414 67.8967 117.175 68.209L117.229 68.2633H117.279C118.946 68.5445 120.567 69.0498 122.098 69.7656C123.608 70.3871 124.893 71.4542 125.781 72.8246C126.41 73.856 126.75 75.0378 126.763 76.2457C126.737 77.4347 126.427 78.6003 125.86 79.6456C125.293 80.6908 124.484 81.5854 123.501 82.2551C121.52 83.62 119.168 84.3449 116.763 84.3321C112.717 84.2778 109.609 82.4135 107.536 80.7527C106.987 80.2875 106.642 79.6262 106.575 78.91C106.507 78.1939 106.722 77.4796 107.174 76.9199" fill="#28AAE1"></path><path d="M135.841 81.3823C135.841 81.7532 135.767 82.1204 135.623 82.4624C135.48 82.8044 135.27 83.1145 135.005 83.3744C134.741 83.6343 134.427 83.8389 134.082 83.9763C133.738 84.1136 133.37 84.181 132.999 84.1743C132.631 84.1792 132.266 84.1103 131.925 83.9717C131.585 83.833 131.275 83.6275 131.015 83.3672C130.755 83.1069 130.55 82.7971 130.412 82.4562C130.274 82.1152 130.206 81.7501 130.211 81.3823V51.4709C130.211 50.7244 130.508 50.0085 131.036 49.4806C131.563 48.9528 132.279 48.6562 133.026 48.6562C133.772 48.6562 134.488 48.9528 135.016 49.4806C135.544 50.0085 135.841 50.7244 135.841 51.4709V60.2905C137.502 59.3606 139.367 58.8554 141.271 58.8198C144.208 58.8306 147.02 60.0057 149.092 62.0875C151.164 64.1693 152.325 66.9877 152.321 69.9246V81.3823C152.321 82.1216 152.028 82.8306 151.505 83.3534C150.982 83.8761 150.273 84.1698 149.534 84.1698C148.794 84.1698 148.085 83.8761 147.563 83.3534C147.04 82.8306 146.746 82.1216 146.746 81.3823V69.9246C146.763 69.201 146.633 68.4815 146.363 67.8096C146.094 67.1377 145.692 66.5274 145.18 66.0156C144.668 65.5038 144.058 65.1011 143.386 64.8319C142.714 64.5626 141.994 64.4324 141.271 64.4491C138.013 64.4491 135.895 66.9334 135.841 69.9246V81.3823Z" fill="#28AAE1"></path><path d="M162.066 52.4824C162.073 52.846 162.007 53.2074 161.872 53.5453C161.738 53.8833 161.537 54.191 161.282 54.4505C161.027 54.71 160.723 54.9161 160.388 55.0568C160.053 55.1975 159.692 55.2699 159.329 55.2699C158.597 55.2615 157.898 54.9636 157.384 54.4412C156.871 53.9188 156.586 53.2145 156.591 52.4824V51.4144C156.591 51.056 156.662 50.701 156.8 50.3701C156.938 50.0392 157.14 49.7389 157.394 49.4865C157.649 49.2341 157.951 49.0346 158.283 48.8995C158.615 48.7643 158.97 48.6963 159.329 48.6993C159.687 48.6963 160.043 48.7643 160.375 48.8995C160.707 49.0346 161.009 49.2341 161.263 49.4865C161.518 49.7389 161.72 50.0392 161.858 50.3701C161.995 50.701 162.066 51.056 162.066 51.4144V52.4824ZM162.066 61.6096V81.4344C162.069 81.7948 162.001 82.1521 161.864 82.4857C161.728 82.8192 161.526 83.1222 161.271 83.377C161.016 83.6318 160.713 83.8334 160.38 83.9699C160.046 84.1064 159.689 84.1752 159.329 84.1722C158.968 84.1752 158.611 84.1064 158.277 83.9699C157.944 83.8334 157.641 83.6318 157.386 83.377C157.131 83.1222 156.93 82.8192 156.793 82.4857C156.657 82.1521 156.588 81.7948 156.591 81.4344V61.6096C156.581 61.2447 156.644 60.8815 156.777 60.5417C156.91 60.2018 157.111 59.8923 157.366 59.6317C157.622 59.371 157.927 59.1646 158.265 59.0247C158.602 58.8849 158.964 58.8144 159.329 58.8176C159.695 58.8092 160.059 58.8761 160.399 59.0142C160.738 59.1522 161.046 59.3585 161.303 59.6202C161.559 59.8819 161.76 60.1935 161.891 60.5357C162.022 60.8779 162.082 61.2434 162.066 61.6096" fill="#28AAE1"></path><path d="M244.103 61.5073V80.6715C244.13 82.7262 243.627 84.7533 242.643 86.5575C241.66 88.3618 240.229 89.8826 238.487 90.9735C236.746 92.0645 234.753 92.6889 232.7 92.7867C230.648 92.8845 228.604 92.4523 226.767 91.5319C226.439 91.3887 226.143 91.1806 225.897 90.9199C225.652 90.6593 225.461 90.3516 225.338 90.0154C225.214 89.6792 225.16 89.3215 225.179 88.9638C225.197 88.6062 225.288 88.256 225.446 87.9344C225.798 87.327 226.366 86.8746 227.037 86.6675C227.708 86.4603 228.432 86.5136 229.066 86.8166C229.92 87.2489 230.858 87.4903 231.815 87.5241C232.771 87.5578 233.724 87.3831 234.606 87.012C235.489 86.6409 236.28 86.0824 236.925 85.3751C237.57 84.6678 238.054 83.8287 238.342 82.9159C236.867 83.7239 235.21 84.1413 233.528 84.1287C230.714 84.1108 228.021 82.9816 226.036 80.9873C224.051 78.9929 222.934 76.2949 222.93 73.481V61.5073C222.936 60.8051 223.215 60.1328 223.707 59.6316C224.199 59.1304 224.866 58.8393 225.568 58.8194C225.924 58.8094 226.278 58.8721 226.608 59.0036C226.939 59.1352 227.239 59.3328 227.491 59.5844C227.742 59.8361 227.94 60.1364 228.072 60.467C228.203 60.7976 228.266 61.1516 228.256 61.5073V73.4719C228.256 76.4133 230.374 78.6442 233.528 78.6442C236.682 78.6442 238.75 76.4133 238.75 73.4719V61.5073C238.737 61.1556 238.797 60.8051 238.924 60.477C239.051 60.1489 239.244 59.8501 239.49 59.5987C239.737 59.3474 240.031 59.1486 240.357 59.0147C240.682 58.8807 241.031 58.8143 241.383 58.8194C242.099 58.8194 242.785 59.1017 243.294 59.605C243.802 60.1083 244.091 60.792 244.098 61.5073" fill="#28AAE1"></path><path d="M50.6758 71.4446C50.7165 64.3537 56.2327 58.4121 63.4141 58.4121C70.2019 58.4121 75.5552 63.4667 75.9806 70.5169V70.7704C75.986 70.9223 75.9724 71.0743 75.9398 71.2229C75.7679 72.4537 74.709 73.3045 73.2247 73.3045H56.6852C56.9382 74.5978 57.557 75.7914 58.4681 76.7436C59.7623 78.0378 60.8665 78.8523 63.4775 79.0786C65.4821 79.2551 67.7447 78.8614 68.9077 77.7618C70.0707 76.6621 72.1342 76.7843 72.8175 77.5943C73.4962 78.3138 74.003 79.8841 72.8175 80.9882C70.2698 83.3232 67.17 84.4273 63.473 84.4273C56.2327 84.3866 50.7346 78.5446 50.6939 71.4356L50.6758 71.4446ZM56.3413 68.8879H71.116C70.6092 66.8063 67.7176 63.3672 63.387 63.3672C61.7602 63.3506 60.1763 63.8882 58.8957 64.8916C57.6151 65.895 56.7143 67.3044 56.3413 68.8879Z" fill="#1C1259"></path><path d="M49.5038 62.5827L40.9965 82.5342C40.784 83.0236 40.432 83.4395 39.9846 83.73C39.5371 84.0206 39.014 84.1728 38.4805 84.1678C37.9573 84.1752 37.4443 84.0228 37.0101 83.7309C36.5759 83.439 36.2411 83.0215 36.0505 82.5342C35.5482 81.3803 32.2765 73.6468 32.2765 73.6468C32.2765 73.6468 29.1088 81.3848 28.6292 82.5342C28.4268 83.0225 28.0829 83.4391 27.6418 83.7302C27.2006 84.0213 26.6824 84.1737 26.1539 84.1678C25.6227 84.1702 25.1025 84.0166 24.6577 83.7263C24.2129 83.4359 23.8631 83.0215 23.6515 82.5342C23.1582 81.3803 15.2256 62.5827 15.2256 62.5827C15.0795 62.251 15.0028 61.8929 15.0001 61.5304C14.9974 61.1679 15.0688 60.8087 15.2099 60.4748C15.351 60.1409 15.5588 59.8393 15.8206 59.5886C16.0825 59.3379 16.3928 59.1434 16.7325 59.0169C17.0562 58.8849 17.4036 58.8205 17.7531 58.8278C18.1027 58.8351 18.447 58.9139 18.765 59.0593C19.0829 59.2047 19.3677 59.4136 19.6019 59.6733C19.836 59.9329 20.0145 60.2378 20.1264 60.569L26.2082 74.4025L29.8283 65.8047C30.0455 65.3189 30.3986 64.9063 30.845 64.6168C31.2915 64.3273 31.8122 64.1733 32.3443 64.1733C32.8764 64.1733 33.3972 64.3273 33.8436 64.6168C34.2901 64.9063 34.6432 65.3189 34.8603 65.8047L38.5076 74.4025L44.5578 60.569C44.6718 60.2342 44.8534 59.9264 45.0913 59.6646C45.3292 59.4028 45.6183 59.1926 45.9407 59.0471C46.2631 58.9016 46.612 58.8238 46.9657 58.8186C47.3194 58.8134 47.6704 58.8809 47.9969 59.0169C48.6648 59.2957 49.1968 59.8254 49.4785 60.4921C49.7603 61.1588 49.7693 61.9094 49.5038 62.5827" fill="#1C1259"></path></svg>