<svg xmlns="http://www.w3.org/2000/svg" width="500" height="257.898" viewBox="-146.577 -81.346 500 257.898" enable-background="new -146.577 -81.346 500 257.898"><g enable-background="new"><path d="M-144.405 164.64c0-3.896 0-4.592-.05-5.39-.052-.85-.25-1.25-1.074-1.423-.2-.05-.622-.073-.847-.073-.1 0-.2-.05-.2-.152 0-.152.125-.198.398-.198.575 0 1.247 0 1.8.024l1.02.05c.177 0 5.145 0 5.72-.026.473-.024.874-.073 1.072-.125.125-.024.225-.125.35-.125.072 0 .1.1.1.225 0 .173-.126.474-.2 1.176-.025.25-.074 1.346-.126 1.644-.024.127-.076.276-.173.276-.15 0-.2-.125-.2-.322 0-.175-.024-.6-.152-.898-.172-.398-.422-.7-1.77-.848-.424-.05-3.146-.073-3.422-.073-.1 0-.15.074-.15.25v6.89c0 .174.025.25.15.25.325 0 3.397 0 3.97-.05.6-.052.95-.1 1.174-.35.173-.198.274-.325.374-.325.073 0 .125.05.125.2 0 .15-.124.574-.2 1.398-.048.5-.1 1.422-.1 1.598 0 .2 0 .478-.172.478-.125 0-.173-.1-.173-.225 0-.252 0-.5-.1-.826-.1-.35-.325-.772-1.297-.872-.674-.073-3.145-.125-3.57-.125-.125 0-.173.073-.173.173v2.197c0 .848-.024 3.746 0 4.27.076 1.722.45 2.047 2.896 2.047.65 0 1.748 0 2.398-.276.65-.273.948-.77 1.124-1.795.05-.276.1-.377.225-.377.15 0 .15.2.15.377 0 .198-.2 1.896-.326 2.422-.172.65-.373.65-1.348.65-1.872 0-3.245-.05-4.22-.076-.972-.05-1.574-.072-1.948-.072-.05 0-.474 0-.997.024-.5 0-1.073.05-1.45.05-.275 0-.397-.05-.397-.197 0-.076.05-.152.2-.152.225 0 .523-.05.748-.1.5-.098.623-.647.723-1.373.126-1.048.126-3.02.126-5.417v-4.404zM-127.746 170.156c0 3.12.05 4.394.45 4.77.35.35 1.197.498 2.923.498 1.148 0 2.12-.024 2.646-.647.274-.325.45-.772.523-1.197.024-.152.1-.276.225-.276.1 0 .15.1.15.325 0 .224-.15 1.497-.325 2.12-.152.5-.225.574-1.398.574-1.574 0-2.795-.024-3.82-.073-1-.026-1.746-.05-2.396-.05-.1 0-.473 0-.898.024-.45.027-.924.05-1.273.05-.226 0-.35-.05-.35-.172 0-.073.05-.173.173-.173.2 0 .474-.052.674-.1.425-.1.474-.5.574-1.122.126-.875.126-2.546.126-4.594v-3.743c0-3.296 0-3.894-.05-4.57-.052-.725-.174-1.072-.9-1.175-.173-.024-.55-.05-.748-.05-.076 0-.173-.1-.173-.174 0-.124.1-.172.35-.172 1 0 2.37.05 2.496.05.1 0 1.748-.05 2.423-.05.225 0 .35.05.35.173 0 .074-.1.153-.174.153-.153 0-.475.024-.727.05-.647.126-.775.448-.823 1.198-.024.673-.024 1.274-.024 4.57v3.786zM-116.383 166.364c0-3.297 0-3.895-.05-4.57-.052-.726-.174-1.073-.9-1.176-.173-.024-.55-.05-.748-.05-.077 0-.174-.1-.174-.174 0-.125.1-.173.35-.173 1 0 2.42.052 2.545.052.153 0 4.744.024 5.245 0 .425-.027.823-.1 1-.125.1-.027.2-.1.3-.1.074 0 .1.1.1.198 0 .152-.124.398-.172 1-.024.198-.076 1.148-.125 1.398-.024.1-.1.225-.2.225-.125 0-.173-.098-.173-.274 0-.152-.024-.5-.125-.75-.15-.35-.374-.498-1.574-.647-.374-.05-2.92-.073-3.17-.073-.1 0-.124.073-.124.225v5.766c0 .15 0 .225.125.225.276 0 3.17 0 3.67-.05.523-.05.848-.076 1.073-.298.15-.152.25-.276.325-.276.073 0 .125.05.125.173 0 .12-.125.473-.173 1.172-.05.425-.1 1.224-.1 1.373 0 .173-.05.398-.2.398-.1 0-.15-.073-.15-.198 0-.2 0-.423-.1-.7-.075-.3-.275-.55-1.123-.65-.6-.072-2.944-.097-3.32-.097-.126 0-.15.073-.15.15v1.77c0 .726-.024 3.196 0 3.622.05 1.422.45 1.696 2.62 1.696.573 0 1.622 0 2.198-.225.574-.248.872-.62.997-1.47.05-.252.1-.325.224-.325s.152.173.152.325c0 .15-.173 1.598-.3 2.048-.15.547-.375.547-1.225.547-1.646 0-2.92-.05-3.818-.073-.924-.05-1.498-.05-1.823-.05-.05 0-.475 0-.95.023-.424.027-.923.05-1.272.05-.225 0-.35-.05-.35-.172 0-.073.052-.173.174-.173.2 0 .474-.073.674-.1.425-.073.474-.498.574-1.12.125-.876.125-2.547.125-4.595v-3.75h-.008zM-102.62 166.364c0-3.297 0-3.895-.05-4.57-.052-.726-.174-1.073-.9-1.176-.173-.024-.55-.05-.748-.05-.073 0-.173-.1-.173-.174 0-.125.1-.173.348-.173 1 0 2.346.052 2.473.052.2 0 1.523-.05 2.173-.05.25 0 .35.05.35.172 0 .073-.074.173-.174.173-.15 0-.275 0-.55.05-.575.126-.727.424-.776 1.177-.05.672-.05 1.273-.05 4.57v1.273h.1c.348-.398 4.268-4.27 5.09-5.12.624-.622 1.198-1.172 1.198-1.52 0-.277-.1-.4-.276-.426-.125-.023-.2-.124-.2-.197 0-.1.1-.152.25-.152.45 0 1.123.052 1.646.052.125 0 1.574-.05 2.12-.05.226 0 .326.05.326.15 0 .1-.05.174-.225.174-.325 0-.8.125-1.224.298-.9.398-1.323.872-2.298 1.796-.55.5-4.293 4.096-4.767 4.618.574.623 5.14 5.193 6.04 6.02 1.847 1.646 2.097 1.92 3.145 2.345.574.225 1.197.298 1.35.298.148 0 .273.074.273.174 0 .1-.1.173-.474.173h-1.125c-.623 0-1.024 0-1.522-.05-1.148-.1-1.723-.575-2.67-1.298-1-.776-5.62-5.643-6.667-6.892h-.1v2.072c0 2.048 0 3.72.1 4.594.076.623.176 1.024.848 1.12.3.052.65.1.848.1.125 0 .173.1.173.174 0 .1-.1.173-.35.173-1.072 0-2.396-.072-2.57-.072s-1.498.073-2.172.073c-.225 0-.35-.05-.35-.172 0-.073.052-.173.177-.173.198 0 .474-.05.674-.1.425-.098.474-.498.574-1.12.125-.876.125-2.547.125-4.595v-3.735h.007zM-81.194 170.105c0 2.048 0 3.72.1 4.594.076.622.173 1.023.848 1.12.298.05.8.1 1 .1.15 0 .173.1.173.173 0 .1-.1.173-.35.173-1.196 0-2.594-.073-2.72-.073-.1 0-1.624.073-2.27.073-.25 0-.35-.05-.35-.173 0-.073.05-.15.176-.15.2 0 .45-.05.647-.1.45-.1.574-.522.65-1.148.1-.875.1-2.546.1-4.594v-8.91l-3.172.05c-1.373.024-1.896.173-2.22.674-.25.374-.277.523-.35.674-.05.173-.125.198-.225.198-.05 0-.15-.05-.15-.173 0-.225.45-2.12.475-2.297.05-.125.15-.398.225-.398.15 0 .374.173.972.25.623.072 1.474.1 1.723.1h8.29c.722 0 1.223-.052 1.573-.1.326-.052.524-.1.624-.1s.1.126.1.25c0 .648-.073 2.173-.073 2.423 0 .174-.1.277-.2.277s-.15-.073-.172-.377l-.024-.225c-.076-.647-.55-1.12-2.646-1.173l-2.747-.05v8.91h-.004zM-70.755 166.364c0-3.297 0-3.895-.05-4.57-.052-.726-.174-1.073-.9-1.176-.173-.024-.55-.05-.748-.05-.073 0-.173-.1-.173-.174 0-.125.1-.173.35-.173 1 0 2.472.052 2.594.052.225 0 2.072-.05 2.747-.05 1.398 0 2.944.124 4.093.923.55.398 1.522 1.422 1.522 2.896 0 1.572-.647 3.097-2.695 4.844 1.8 2.246 3.32 4.17 4.594 5.49 1.172 1.198 1.895 1.4 2.445 1.475.425.072.647.072.775.072.125 0 .2.1.2.173 0 .125-.125.173-.525.173h-1.373c-1.25 0-1.8-.125-2.346-.423-.948-.5-1.747-1.525-2.996-3.12-.924-1.15-1.9-2.522-2.37-3.096-.1-.1-.15-.126-.3-.126l-2.796-.05c-.1 0-.15.05-.15.172v.5c0 2.05 0 3.693.1 4.57.074.624.2 1.025.873 1.122.3.05.775.1.972.1.15 0 .172.1.172.173 0 .1-.1.174-.35.174-1.196 0-2.594-.073-2.694-.073-.024 0-1.498.074-2.172.074-.225 0-.35-.05-.35-.173 0-.072.052-.172.177-.172.198 0 .474-.05.674-.1.425-.098.474-.498.574-1.12.126-.876.126-2.547.126-4.595v-3.74zm1.896 1.796c0 .125.052.2.15.276.325.173 1.45.325 2.422.325.525 0 1.124-.026 1.647-.376.747-.5 1.32-1.623 1.32-3.245 0-2.647-1.445-4.17-3.794-4.17-.647 0-1.35.073-1.574.125-.1.05-.173.127-.173.252v6.812zM-47.406 159.923c4.943 0 8.687 3.02 8.687 7.96 0 4.744-3.518 8.663-8.81 8.663-6.016 0-8.587-4.518-8.587-8.337 0-3.422 2.646-8.287 8.71-8.287zm.5 15.75c1.97 0 5.94-1.05 5.94-7.188 0-5.092-3.097-7.763-6.567-7.763-3.67 0-6.317 2.297-6.317 6.915.003 4.94 2.974 8.037 6.943 8.037zM-33.193 173.377c.05 1.747.25 2.27.848 2.422.398.1.9.124 1.097.124.1 0 .173.073.173.173 0 .125-.15.173-.398.173-1.246 0-2.12-.073-2.32-.073s-1.125.073-2.122.073c-.225 0-.35-.024-.35-.173 0-.1.077-.173.174-.173.175 0 .573-.024.898-.125.55-.153.623-.727.623-2.647v-12.157c0-.848.126-1.073.3-1.073.248 0 .622.423.847.647.35.35 3.546 3.746 6.94 7.24 2.172 2.246 4.518 4.77 5.193 5.47l-.225-10.638c-.024-1.373-.152-1.847-.823-1.972-.398-.073-.9-.1-1.073-.1-.15 0-.174-.125-.174-.198 0-.127.173-.152.425-.152 1 0 2.05.05 2.298.05.25 0 .972-.05 1.872-.05.225 0 .398.024.398.152 0 .073-.1.198-.25.198-.1 0-.273 0-.522.05-.726.153-.775.575-.775 1.848l-.05 12.433c0 1.4-.024 1.526-.173 1.526-.225 0-.45-.173-1.674-1.297-.225-.2-3.394-3.322-5.715-5.74-2.546-2.672-5.02-5.27-5.694-6.02l.253 10.007zM-11.813 170.105c0 2.048 0 3.72.1 4.594.076.622.15 1.023.8 1.12.324.05.798.1 1 .1.124 0 .172.1.172.173 0 .1-.1.173-.35.173-1.224 0-2.646-.073-2.747-.073-.125 0-1.498.073-2.172.073-.224 0-.348-.05-.348-.173 0-.073.05-.173.176-.173.198 0 .474-.05.674-.1.425-.098.5-.498.574-1.12.1-.876.125-2.547.125-4.595v-3.743c0-3.297 0-3.895-.05-4.57-.05-.726-.225-1.05-.7-1.15-.248-.05-.522-.074-.673-.074-.1 0-.173-.1-.173-.173 0-.125.1-.173.35-.173.722 0 2.096.05 2.22.05.1 0 1.522-.05 2.197-.05.25 0 .35.05.35.173 0 .073-.1.173-.173.173-.15 0-.3 0-.55.05-.6.126-.726.424-.775 1.177-.024.672-.024 1.273-.024 4.57v3.74zM-4.595 166.364c0-3.297 0-3.895-.05-4.57-.052-.726-.174-1.073-.9-1.176-.173-.024-.55-.05-.748-.05-.073 0-.173-.1-.173-.174 0-.125.1-.173.35-.173 1 0 2.345.052 2.472.052.2 0 1.522-.05 2.172-.05.25 0 .35.05.35.172 0 .073-.074.173-.174.173-.15 0-.274 0-.55.05-.574.126-.726.424-.775 1.177-.052.672-.052 1.273-.052 4.57v1.273h.1c.35-.398 4.27-4.27 5.092-5.12.623-.622 1.197-1.172 1.197-1.52 0-.277-.1-.4-.276-.426-.124-.023-.2-.124-.2-.197 0-.1.1-.152.25-.152.45 0 1.124.052 1.647.052.125 0 1.574-.05 2.12-.05.226 0 .326.05.326.15 0 .1-.05.174-.225.174-.325 0-.8.125-1.224.298-.9.398-1.322.872-2.297 1.796-.55.5-4.293 4.096-4.767 4.618.574.623 5.14 5.193 6.04 6.02 1.847 1.646 2.097 1.92 3.145 2.345.574.225 1.197.298 1.35.298.148 0 .273.074.273.174 0 .1-.1.173-.474.173h-1.12c-.622 0-1.023 0-1.52-.05-1.15-.1-1.724-.575-2.672-1.298-1-.776-5.618-5.643-6.666-6.892h-.1v2.072c0 2.048 0 3.72.1 4.594.076.623.176 1.024.848 1.12.3.052.65.1.848.1.125 0 .173.1.173.174 0 .1-.1.173-.35.173-1.072 0-2.396-.072-2.57-.072-.173 0-1.498.073-2.172.073-.225 0-.35-.05-.35-.172 0-.073.052-.173.177-.173.198 0 .474-.05.674-.1.425-.098.474-.498.574-1.12.125-.876.125-2.547.125-4.595v-3.735h.002zM10.916 166.364c0-3.297 0-3.895-.05-4.57-.05-.674-.174-1.073-.9-1.176-.173-.024-.55-.05-.748-.05-.076 0-.173-.1-.173-.174 0-.125.1-.173.35-.173 1 0 2.32.052 2.52.052s1.575-.05 2.222-.05c.25 0 .374.05.374.172 0 .073-.1.173-.2.173-.148 0-.273 0-.55.05-.573.1-.698.475-.747 1.177-.05.672-.05 1.273-.05 4.57v2.97c0 3.073.673 4.346 1.622 5.194 1.073.972 2.023 1.15 3.272 1.15 1.35 0 2.646-.602 3.394-1.5 1.025-1.223 1.25-2.973 1.25-5.143v-2.668c0-3.297-.024-3.895-.05-4.57-.025-.674-.15-1.073-.873-1.176-.173-.023-.55-.05-.748-.05-.1 0-.174-.1-.174-.173 0-.125.1-.173.35-.173.97 0 2.245.05 2.37.05.148 0 1.196-.05 1.846-.05.25 0 .35.05.35.173 0 .073-.077.173-.174.173-.152 0-.276 0-.55.05-.6.126-.723.475-.775 1.177-.05.672-.024 1.273-.024 4.57v2.27c0 2.3-.3 4.87-2.046 6.368-1.598 1.373-3.297 1.547-4.594 1.547-.726 0-3.02-.05-4.57-1.498-1.073-1-1.923-2.47-1.923-5.57v-3.12zM28.474 175.972c-.3-.152-.325-.225-.325-.8 0-1.047.1-1.895.124-2.245 0-.225.05-.35.173-.35.122 0 .2.074.2.25s0 .474.076.772c.35 1.548 1.996 2.096 3.47 2.096 2.172 0 3.297-1.222 3.297-2.82 0-1.525-.823-2.248-2.77-3.695l-1-.747c-2.374-1.77-3.15-3.072-3.15-4.545 0-2.495 1.973-3.995 4.87-3.995.874 0 1.746.125 2.272.252.423.098.6.098.775.098.176 0 .225.027.225.152 0 .1-.1.8-.1 2.246 0 .326-.024.478-.173.478-.15 0-.174-.1-.2-.276-.025-.25-.2-.823-.326-1.048-.152-.252-.875-1.05-2.847-1.05-1.598 0-2.923.798-2.923 2.296 0 1.35.674 2.124 2.847 3.594l.624.425c2.67 1.822 3.594 3.296 3.594 5.118 0 1.246-.474 2.595-2.048 3.62-.924.6-2.297.747-3.494.747-1.02 0-2.293-.145-3.192-.573zM52.1 164.64c0-3.896 0-4.592-.052-5.39-.05-.85-.25-1.25-1.073-1.423-.2-.05-.623-.073-.848-.073-.1 0-.2-.05-.2-.152 0-.152.125-.198.398-.198.574 0 1.246 0 1.8.024l1.02.05c.176 0 5.144 0 5.718-.026.474-.024.875-.073 1.073-.125.125-.024.225-.125.35-.125.072 0 .1.1.1.225 0 .173-.126.474-.2 1.176-.025.25-.074 1.346-.126 1.644-.024.127-.076.276-.173.276-.15 0-.2-.125-.2-.322 0-.175-.024-.6-.152-.898-.173-.398-.423-.7-1.772-.848-.423-.05-3.145-.073-3.42-.073-.1 0-.15.074-.15.25v6.89c0 .174.024.25.15.25.324 0 3.396 0 3.97-.05.6-.052.948-.1 1.173-.35.173-.198.274-.325.374-.325.073 0 .125.05.125.2 0 .15-.125.574-.2 1.398-.05.5-.1 1.422-.1 1.598 0 .2 0 .478-.173.478-.125 0-.173-.1-.173-.225 0-.252 0-.5-.1-.826-.1-.35-.326-.772-1.298-.872-.674-.073-3.145-.125-3.57-.125-.125 0-.173.073-.173.173v2.197c0 .848-.025 3.746 0 4.27.075 1.722.45 2.047 2.895 2.047.65 0 1.747 0 2.397-.276.65-.273.948-.77 1.124-1.795.05-.276.1-.377.225-.377.15 0 .15.2.15.377 0 .198-.2 1.896-.325 2.422-.173.65-.374.65-1.35.65-1.87 0-3.244-.05-4.22-.076-.97-.05-1.573-.072-1.947-.072-.05 0-.474 0-.997.024-.5 0-1.072.05-1.448.05-.276 0-.398-.05-.398-.197 0-.076.05-.152.2-.152.225 0 .523-.05.748-.1.5-.098.623-.647.723-1.373.125-1.048.125-3.02.125-5.417v-4.404zm7.212-10.636c.125.225 0 .298-.1.298-.076 0-.325-.05-.748 0-1.224.125-2.97.702-3.795 1.05-.174.074-.326.126-.375.126-.05 0-.125-.05-.125-.152 0-.073.05-.125.173-.198.9-.623 3.22-2.023 3.397-2.12.423-.253.574-.326.7-.326.075 0 .124.05.248.225.175.25.35.596.624 1.097zM66.76 166.364c0-3.297 0-3.895-.052-4.57-.05-.726-.173-1.073-.9-1.176-.172-.024-.55-.05-.747-.05-.075 0-.172-.1-.172-.174 0-.125.1-.173.35-.173 1 0 2.472.052 2.594.052.225 0 2.072-.05 2.747-.05 1.4 0 2.946.124 4.095.923.55.398 1.522 1.422 1.522 2.896 0 1.572-.647 3.097-2.695 4.844 1.8 2.246 3.32 4.17 4.594 5.49 1.173 1.198 1.896 1.4 2.446 1.475.423.072.647.072.775.072.125 0 .2.1.2.173 0 .125-.125.173-.525.173H79.62c-1.247 0-1.8-.125-2.347-.423-.948-.5-1.747-1.525-2.996-3.12-.924-1.15-1.896-2.522-2.37-3.096-.1-.1-.15-.126-.3-.126l-2.796-.05c-.1 0-.148.05-.148.172v.5c0 2.05 0 3.693.1 4.57.073.624.2 1.025.872 1.122.3.05.775.1.972.1.152 0 .176.1.176.173 0 .1-.1.174-.35.174-1.196 0-2.594-.073-2.694-.073-.024 0-1.498.074-2.172.074-.225 0-.35-.05-.35-.173 0-.072.052-.172.174-.172.2 0 .474-.05.674-.1.425-.098.474-.498.574-1.12.125-.876.125-2.547.125-4.595v-3.738h-.004zm1.895 1.796c0 .125.05.2.15.276.324.173 1.448.325 2.42.325.526 0 1.125-.026 1.648-.376.748-.5 1.322-1.623 1.322-3.245 0-2.647-1.446-4.17-3.795-4.17-.647 0-1.35.073-1.574.125-.1.05-.173.127-.173.252v6.812h.002zM87.188 170.105c0 2.048 0 3.72.1 4.594.076.622.173 1.023.848 1.12.298.05.8.1 1 .1.15 0 .173.1.173.173 0 .1-.1.173-.35.173-1.197 0-2.595-.073-2.722-.073-.1 0-1.623.073-2.27.073-.25 0-.35-.05-.35-.173 0-.073.052-.15.177-.15.2 0 .45-.05.647-.1.45-.1.574-.522.65-1.148.1-.875.1-2.546.1-4.594v-8.91l-3.172.05c-1.373.024-1.896.173-2.22.674-.25.374-.277.523-.35.674-.05.173-.125.198-.225.198-.05 0-.15-.05-.15-.173 0-.225.45-2.12.475-2.297.05-.125.15-.398.225-.398.15 0 .374.173.972.25.623.072 1.474.1 1.723.1h8.29c.722 0 1.223-.052 1.573-.1.325-.052.523-.1.623-.1s.1.126.1.25c0 .648-.073 2.173-.073 2.423 0 .174-.1.277-.2.277s-.152-.073-.173-.377l-.024-.225c-.076-.647-.55-1.12-2.646-1.173l-2.747-.05v8.91h-.005zM97.63 166.364c0-3.297 0-3.895-.05-4.57-.052-.726-.174-1.073-.9-1.176-.173-.024-.55-.05-.748-.05-.076 0-.173-.1-.173-.174 0-.125.1-.173.348-.173 1 0 2.422.052 2.546.052.152 0 4.743.024 5.244 0 .425-.027.826-.1 1-.125.1-.027.198-.1.298-.1.073 0 .1.1.1.198 0 .152-.125.398-.173 1-.027.198-.076 1.148-.125 1.398-.027.1-.1.225-.2.225-.125 0-.173-.098-.173-.274 0-.152-.024-.5-.125-.75-.152-.35-.377-.498-1.574-.647-.374-.05-2.92-.073-3.17-.073-.1 0-.124.073-.124.225v5.766c0 .15 0 .225.125.225.276 0 3.17 0 3.67-.05.523-.05.848-.076 1.073-.298.15-.152.25-.276.325-.276.073 0 .125.05.125.173 0 .12-.125.473-.173 1.172-.05.425-.1 1.224-.1 1.373 0 .173-.05.398-.2.398-.098 0-.15-.073-.15-.198 0-.2 0-.423-.1-.7-.072-.3-.275-.55-1.123-.65-.6-.072-2.944-.097-3.32-.097-.126 0-.15.073-.15.15v1.77c0 .726-.024 3.196 0 3.622.05 1.422.45 1.696 2.62 1.696.573 0 1.624 0 2.198-.225.574-.248.872-.62.997-1.47.05-.252.1-.325.224-.325.127 0 .152.173.152.325 0 .15-.173 1.598-.298 2.048-.152.547-.377.547-1.224.547-1.647 0-2.92-.05-3.82-.073-.923-.05-1.497-.05-1.822-.05-.05 0-.474 0-.948.023-.425.027-.924.05-1.273.05-.224 0-.348-.05-.348-.172 0-.073.05-.173.173-.173.2 0 .474-.073.674-.1.424-.073.473-.498.573-1.12.125-.876.125-2.547.125-4.595v-3.75h-.008zm6.815-9.488c.125.225 0 .3-.1.3-.073 0-.322-.05-.748 0-1.224.126-2.97.7-3.795 1.05-.173.072-.325.124-.374.124-.05 0-.125-.05-.125-.15 0-.075.05-.126.173-.2.9-.622 3.22-2.02 3.394-2.12.425-.25.574-.325.7-.325.075 0 .124.05.248.225.177.245.35.597.627 1.096zM111.39 166.364c0-3.297 0-3.895-.05-4.57-.052-.726-.174-1.073-.9-1.176-.173-.024-.55-.05-.748-.05-.076 0-.173-.1-.173-.174 0-.125.097-.173.348-.173.997 0 2.346.052 2.47.052.2 0 1.525-.05 2.172-.05.252 0 .35.05.35.172 0 .073-.074.173-.174.173-.15 0-.276 0-.547.05-.575.126-.727.424-.776 1.177-.05.672-.05 1.273-.05 4.57v1.273h.1c.348-.398 4.268-4.27 5.09-5.12.624-.622 1.198-1.172 1.198-1.52 0-.277-.1-.4-.276-.426-.125-.023-.198-.124-.198-.197 0-.1.1-.152.25-.152.45 0 1.123.052 1.646.052.125 0 1.574-.05 2.12-.05.226 0 .326.05.326.15 0 .1-.05.174-.225.174-.325 0-.8.125-1.222.298-.9.398-1.325.872-2.3 1.796-.547.5-4.293 4.096-4.767 4.618.574.623 5.14 5.193 6.04 6.02 1.847 1.646 2.094 1.92 3.145 2.345.575.225 1.198.298 1.347.298.152 0 .276.074.276.174 0 .1-.098.173-.474.173h-1.125c-.623 0-1.024 0-1.522-.05-1.15-.1-1.725-.575-2.67-1.298-1-.776-5.62-5.643-6.667-6.892h-.1v2.072c0 2.048 0 3.72.1 4.594.073.623.173 1.024.848 1.12.298.052.647.1.848.1.125 0 .173.1.173.174 0 .1-.1.173-.35.173-1.072 0-2.396-.072-2.57-.072-.173 0-1.5.073-2.172.073-.225 0-.352-.05-.352-.172 0-.073.052-.173.174-.173.2 0 .477-.05.674-.1.425-.098.477-.498.574-1.12.127-.876.127-2.547.127-4.595v-3.735h.01zM128.024 166.364c0-3.297 0-3.895-.05-4.57-.052-.726-.174-1.073-.9-1.176-.173-.024-.55-.05-.748-.05-.076 0-.173-.1-.173-.174 0-.125.098-.173.35-.173.996 0 2.42.052 2.542.052.152 0 4.746.024 5.244 0 .424-.027.825-.1 1-.125.1-.027.197-.1.297-.1.073 0 .1.1.1.198 0 .152-.125.398-.173 1-.027.198-.076 1.148-.125 1.398-.028.1-.1.225-.2.225-.126 0-.174-.098-.174-.274 0-.152-.024-.5-.125-.75-.15-.35-.376-.498-1.573-.647-.374-.05-2.92-.073-3.17-.073-.1 0-.124.073-.124.225v5.766c0 .15 0 .225.125.225.276 0 3.17 0 3.668-.05.523-.05.848-.076 1.073-.298.148-.152.248-.276.324-.276.073 0 .125.05.125.173 0 .12-.126.473-.174 1.172-.05.425-.1 1.224-.1 1.373 0 .173-.05.398-.2.398-.098 0-.15-.073-.15-.198 0-.2 0-.423-.1-.7-.072-.3-.275-.55-1.123-.65-.6-.072-2.944-.097-3.32-.097-.126 0-.15.073-.15.15v1.77c0 .726-.027 3.196 0 3.622.05 1.422.447 1.696 2.62 1.696.576 0 1.624 0 2.198-.225.575-.248.873-.62.998-1.47.05-.252.1-.325.225-.325.127 0 .152.173.152.325 0 .15-.173 1.598-.298 2.048-.152.547-.377.547-1.224.547-1.647 0-2.92-.05-3.82-.073-.923-.05-1.497-.05-1.822-.05-.048 0-.473 0-.947.023-.425.027-.924.05-1.273.05-.225 0-.352-.05-.352-.172 0-.073.05-.173.173-.173.2 0 .478-.073.675-.1.425-.073.477-.498.574-1.12.126-.876.126-2.547.126-4.595-.002-.002-.002-3.75-.002-3.75zM139.937 175.972c-.3-.152-.325-.225-.325-.8 0-1.047.1-1.895.125-2.245 0-.225.05-.35.173-.35.122 0 .2.074.2.25s0 .474.073.772c.35 1.548 1.996 2.096 3.47 2.096 2.172 0 3.297-1.222 3.297-2.82 0-1.525-.826-2.248-2.77-3.695l-.998-.747c-2.373-1.77-3.148-3.072-3.148-4.545 0-2.495 1.975-3.995 4.87-3.995.872 0 1.747.125 2.273.252.423.098.6.098.772.098.172 0 .224.027.224.152 0 .1-.1.8-.1 2.246 0 .326-.024.478-.173.478-.148 0-.172-.1-.197-.276-.027-.25-.2-.823-.325-1.048-.152-.252-.872-1.05-2.847-1.05-1.597 0-2.92.798-2.92 2.296 0 1.35.675 2.124 2.848 3.594l.623.425c2.672 1.822 3.595 3.296 3.595 5.118 0 1.246-.477 2.595-2.048 3.62-.924.6-2.297.747-3.494.747-1.023 0-2.3-.145-3.196-.573zM156.37 170.105c0 2.048 0 3.72.1 4.594.075.622.15 1.023.798 1.12.325.05.8.1 1 .1.125 0 .173.1.173.173 0 .1-.1.173-.348.173-1.224 0-2.65-.073-2.747-.073-.127 0-1.5.073-2.172.073-.225 0-.352-.05-.352-.173 0-.073.052-.173.174-.173.2 0 .477-.05.674-.1.425-.098.5-.498.574-1.12.1-.876.127-2.547.127-4.595v-3.743c0-3.297 0-3.895-.052-4.57-.05-.726-.225-1.05-.702-1.15-.25-.05-.523-.074-.672-.074-.1 0-.173-.1-.173-.173 0-.125.1-.173.35-.173.723 0 2.094.05 2.22.05.1 0 1.523-.05 2.198-.05.25 0 .35.05.35.173 0 .073-.1.173-.174.173-.15 0-.298 0-.547.05-.6.126-.726.424-.775 1.177-.024.672-.024 1.273-.024 4.57v3.74h.003zm2.797-13.23c.125.226 0 .302-.1.302-.076 0-.325-.05-.748 0-1.225.125-2.972.7-3.796 1.048-.173.073-.325.125-.374.125-.05 0-.127-.05-.127-.15 0-.075.05-.126.173-.2.9-.622 3.22-2.02 3.397-2.12.423-.25.574-.325.7-.325.075 0 .124.05.25.225.174.245.347.597.624 1.096zM168.883 170.105c0 2.048 0 3.72.098 4.594.077.622.174 1.023.85 1.12.297.05.798.1 1 .1.148 0 .172.1.172.173 0 .1-.1.173-.35.173-1.196 0-2.597-.073-2.72-.073-.1 0-1.626.073-2.274.073-.25 0-.35-.05-.35-.173 0-.073.052-.15.174-.15.2 0 .45-.05.647-.1.45-.1.573-.522.65-1.148.1-.875.1-2.546.1-4.594v-8.91l-3.173.05c-1.373.024-1.896.173-2.22.674-.25.374-.277.523-.35.674-.05.173-.125.198-.225.198-.05 0-.152-.05-.152-.173 0-.225.45-2.12.477-2.297.05-.125.15-.398.225-.398.15 0 .374.173.972.25.623.072 1.47.1 1.723.1h8.29c.725 0 1.223-.052 1.573-.1.322-.052.523-.1.623-.1.098 0 .098.126.098.25 0 .648-.072 2.173-.072 2.423 0 .174-.1.277-.198.277-.1 0-.152-.073-.176-.377l-.024-.225c-.073-.647-.55-1.12-2.646-1.173l-2.747-.05v8.91h.006zM179.322 166.364c0-3.297 0-3.895-.05-4.57-.052-.726-.174-1.073-.9-1.176-.173-.024-.55-.05-.748-.05-.076 0-.173-.1-.173-.174 0-.125.1-.173.35-.173.997 0 2.422.052 2.543.052.152 0 4.746.024 5.244 0 .425-.027.826-.1 1-.125.1-.027.198-.1.298-.1.073 0 .1.1.1.198 0 .152-.125.398-.173 1-.027.198-.076 1.148-.125 1.398-.027.1-.1.225-.2.225-.125 0-.173-.098-.173-.274 0-.152-.024-.5-.125-.75-.153-.35-.378-.498-1.575-.647-.374-.05-2.92-.073-3.17-.073-.1 0-.124.073-.124.225v5.766c0 .15 0 .225.126.225.276 0 3.17 0 3.668-.05.523-.05.848-.076 1.073-.298.15-.152.25-.276.325-.276.073 0 .125.05.125.173 0 .12-.125.473-.173 1.172-.05.425-.1 1.224-.1 1.373 0 .173-.05.398-.2.398-.098 0-.15-.073-.15-.198 0-.2 0-.423-.1-.7-.072-.3-.275-.55-1.123-.65-.598-.072-2.943-.097-3.32-.097-.125 0-.15.073-.15.15v1.77c0 .726-.026 3.196 0 3.622.05 1.422.448 1.696 2.62 1.696.577 0 1.625 0 2.2-.225.573-.248.87-.62.996-1.47.05-.252.1-.325.225-.325.128 0 .153.173.153.325 0 .15-.173 1.598-.298 2.048-.152.547-.377.547-1.224.547-1.646 0-2.92-.05-3.818-.073-.924-.05-1.498-.05-1.823-.05-.05 0-.475 0-.95.023-.424.027-.923.05-1.272.05-.225 0-.352-.05-.352-.172 0-.073.05-.173.173-.173.2 0 .476-.073.673-.1.425-.073.477-.498.574-1.12.127-.876.127-2.547.127-4.595l-.002-3.75zm6.815-9.488c.125.225 0 .3-.1.3-.073 0-.322-.05-.748 0-1.223.126-2.972.7-3.793 1.05-.173.072-.325.124-.377.124s-.125-.05-.125-.15c0-.075.05-.126.173-.2.9-.622 3.218-2.02 3.394-2.12.425-.25.574-.325.702-.325.073 0 .125.05.25.225.174.245.35.597.623 1.096zM191.238 175.972c-.3-.152-.325-.225-.325-.8 0-1.047.1-1.895.125-2.245 0-.225.05-.35.173-.35s.2.074.2.25 0 .474.074.772c.35 1.548 1.996 2.096 3.47 2.096 2.172 0 3.296-1.222 3.296-2.82 0-1.525-.826-2.248-2.77-3.695l-.998-.747c-2.373-1.77-3.148-3.072-3.148-4.545 0-2.495 1.975-3.995 4.87-3.995.872 0 1.747.125 2.273.252.423.098.6.098.772.098s.224.027.224.152c0 .1-.1.8-.1 2.246 0 .326-.024.478-.173.478-.148 0-.172-.1-.197-.276-.027-.25-.2-.823-.325-1.048-.152-.252-.872-1.05-2.847-1.05-1.597 0-2.92.798-2.92 2.296 0 1.35.675 2.124 2.848 3.594l.623.425c2.672 1.822 3.595 3.296 3.595 5.118 0 1.246-.477 2.595-2.048 3.62-.924.6-2.297.747-3.494.747-1.023 0-2.3-.145-3.195-.573zM207.67 170.105c0 2.048 0 3.72.096 4.594.076.622.152 1.023.8 1.12.324.05.798.1 1 .1.124 0 .172.1.172.173 0 .1-.1.173-.35.173-1.223 0-2.648-.073-2.746-.073-.127 0-1.5.073-2.172.073-.225 0-.352-.05-.352-.173 0-.073.05-.173.173-.173.2 0 .478-.05.675-.1.425-.098.5-.498.574-1.12.1-.876.126-2.547.126-4.595v-3.743c0-3.297 0-3.895-.05-4.57-.052-.726-.226-1.05-.703-1.15-.25-.05-.523-.074-.672-.074-.1 0-.172-.1-.172-.173 0-.125.098-.173.35-.173.722 0 2.093.05 2.22.05.098 0 1.522-.05 2.197-.05.25 0 .35.05.35.173 0 .073-.1.173-.174.173-.148 0-.297 0-.546.05-.6.126-.726.424-.775 1.177-.025.672-.025 1.273-.025 4.57v3.74h.004zM224.078 164.64c0-3.896 0-4.592-.05-5.39-.052-.85-.25-1.25-1.074-1.423-.198-.05-.623-.073-.848-.073-.1 0-.2-.05-.2-.152 0-.152.125-.198.398-.198 1.124 0 2.695.073 2.82.073.276 0 2.175-.073 2.947-.073 1.575 0 3.246.15 4.57 1.097.624.45 1.724 1.672 1.724 3.395 0 1.85-.772 3.695-3.02 5.767 2.048 2.622 3.746 4.843 5.193 6.39 1.35 1.422 2.424 1.698 3.047 1.8.474.072.823.072.972.072.125 0 .225.073.225.152 0 .15-.15.198-.6.198h-1.772c-1.398 0-2.02-.125-2.67-.474-1.074-.574-1.95-1.796-3.37-3.668-1.05-1.373-2.222-3.047-2.72-3.695-.1-.1-.174-.152-.326-.152l-3.072-.05c-.125 0-.173.075-.173.2v.598c0 2.397 0 4.37.125 5.417.076.726.225 1.276.972 1.373.35.05.9.1 1.124.1.152 0 .2.073.2.152 0 .125-.127.198-.398.198-1.376 0-2.947-.073-3.072-.073-.027 0-1.598.073-2.346.073-.276 0-.398-.05-.398-.198 0-.076.05-.152.198-.152.225 0 .523-.05.748-.1.5-.098.623-.647.726-1.373.125-1.048.125-3.02.125-5.417v-4.394h-.002zm1.997 2.174c0 .125.05.222.173.298.377.225 1.525.398 2.622.398.6 0 1.297-.076 1.872-.477.872-.6 1.525-1.948 1.525-3.844 0-3.12-1.647-4.993-4.32-4.993-.748 0-1.422.073-1.67.15-.128.05-.2.15-.2.297l-.002 8.17zM242.335 166.364c0-3.297 0-3.895-.05-4.57-.052-.726-.174-1.073-.9-1.176-.173-.024-.547-.05-.748-.05-.073 0-.173-.1-.173-.174 0-.125.1-.173.35-.173 1 0 2.423.052 2.545.052.15 0 4.742.024 5.243 0 .423-.027.823-.1.997-.125.1-.027.2-.1.3-.1.074 0 .1.1.1.198 0 .152-.126.398-.174 1-.024.198-.073 1.148-.125 1.398-.023.1-.1.225-.197.225-.127 0-.173-.098-.173-.274 0-.152-.027-.5-.127-.75-.15-.35-.374-.498-1.57-.647-.378-.05-2.92-.073-3.173-.073-.1 0-.125.073-.125.225v5.766c0 .15 0 .225.125.225.276 0 3.172 0 3.67-.05.523-.05.848-.076 1.073-.298.152-.152.252-.276.325-.276s.125.05.125.173c0 .12-.125.473-.173 1.172-.05.425-.1 1.224-.1 1.373 0 .173-.05.398-.198.398-.1 0-.152-.073-.152-.198 0-.2 0-.423-.098-.7-.076-.3-.276-.55-1.124-.65-.6-.072-2.947-.097-3.32-.097-.128 0-.153.073-.153.15v1.77c0 .726-.024 3.196 0 3.622.05 1.422.45 1.696 2.622 1.696.574 0 1.623 0 2.197-.225.577-.248.875-.62 1-1.47.05-.252.1-.325.225-.325.124 0 .15.173.15.325 0 .15-.175 1.598-.3 2.048-.15.547-.374.547-1.222.547-1.647 0-2.92-.05-3.82-.073-.923-.05-1.497-.05-1.822-.05-.05 0-.474 0-.95.023-.424.027-.925.05-1.274.05-.225 0-.35-.05-.35-.172 0-.073.052-.173.174-.173.198 0 .474-.073.674-.1.423-.073.474-.498.574-1.12.125-.876.125-2.547.125-4.595v-3.75h-.005zM257.02 173.377c.05 1.747.25 2.27.847 2.422.398.1.9.124 1.097.124.1 0 .173.073.173.173 0 .125-.15.173-.398.173-1.247 0-2.122-.073-2.32-.073-.2 0-1.124.073-2.12.073-.226 0-.353-.024-.353-.173 0-.1.076-.173.173-.173.176 0 .577-.024.9-.125.55-.153.622-.727.622-2.647v-12.157c0-.848.125-1.073.298-1.073.252 0 .623.423.848.647.35.35 3.546 3.746 6.942 7.24 2.172 2.246 4.518 4.77 5.193 5.47l-.225-10.638c-.024-1.373-.152-1.847-.823-1.972-.398-.073-.9-.1-1.073-.1-.152 0-.173-.125-.173-.198 0-.127.172-.152.422-.152 1 0 2.048.05 2.297.05.25 0 .97-.05 1.87-.05.226 0 .4.024.4.152 0 .073-.1.198-.25.198-.1 0-.276 0-.523.05-.726.153-.775.575-.775 1.848l-.05 12.433c0 1.4-.025 1.526-.174 1.526-.225 0-.45-.173-1.67-1.297-.226-.2-3.398-3.322-5.716-5.74-2.546-2.672-5.02-5.27-5.694-6.02l.25 10.007zM276.4 166.364c0-3.297 0-3.895-.05-4.57-.052-.726-.174-1.073-.9-1.176-.173-.024-.547-.05-.748-.05-.073 0-.173-.1-.173-.174 0-.125.1-.173.348-.173 1 0 2.424.052 2.546.052.25 0 1.647-.05 2.947-.05 2.198 0 6.217-.2 8.812 2.42 1.097 1.1 2.148 2.875 2.148 5.394 0 2.67-1.148 4.72-2.373 5.967-.95.972-2.92 2.443-6.666 2.443-.947 0-2.12-.073-3.07-.125-.95-.072-1.697-.124-1.797-.124-.05 0-.45.024-.9.024-.45.027-.97.05-1.32.05-.226 0-.35-.05-.35-.172 0-.073.05-.173.173-.173.198 0 .474-.05.674-.1.423-.098.474-.498.574-1.12.125-.876.125-2.547.125-4.595v-3.746zm2 2.295c0 2.245 0 4.22.023 4.617.027.523.076 1.297.252 1.525.276.395 1.048.848 3.646.848 2.022 0 3.82-.672 5.142-1.92 1.148-1.073 1.723-3.1 1.723-5.044 0-2.695-1.176-4.418-2.072-5.317-2.075-2.098-4.494-2.37-7.116-2.37-.423 0-1.124.072-1.322.148-.2.076-.276.173-.276.425v7.086zM294.76 175.972c-.298-.152-.325-.225-.325-.8 0-1.047.1-1.895.127-2.245 0-.225.05-.35.173-.35s.198.074.198.25 0 .474.076.772c.348 1.548 1.995 2.096 3.466 2.096 2.172 0 3.297-1.222 3.297-2.82 0-1.525-.823-2.248-2.768-3.695l-1-.747c-2.373-1.77-3.145-3.072-3.145-4.545 0-2.495 1.972-3.995 4.868-3.995.875 0 1.75.125 2.273.252.424.098.602.098.776.098s.224.027.224.15c0 .1-.1.8-.1 2.247 0 .325-.027.477-.173.477-.152 0-.173-.1-.2-.276-.024-.248-.198-.822-.322-1.047-.152-.252-.875-1.05-2.847-1.05-1.598 0-2.923.798-2.923 2.296 0 1.348.674 2.123 2.847 3.593l.623.425c2.67 1.823 3.594 3.297 3.594 5.12 0 1.245-.475 2.594-2.05 3.618-.923.6-2.296.748-3.493.748-1.028.002-2.298-.144-3.197-.572zM315.958 175.276c2.32 0 2.923-.377 3.42-.972.226-.276.378-.848.45-1.148.052-.2.126-.325.253-.325.126 0 .174.074.174.475 0 .674-.3 1.923-.45 2.446-.125.524-.152.55-.65.55-3.668 0-7.39-.1-11.233-.1-.248 0-.397-.023-.397-.172 0-.1.027-.25.3-.647 3.295-4.77 6.54-9.488 9.56-14.204h-4.643c-1.124 0-2.424-.027-3.12.35-.772.397-1.173 1.172-1.25 1.67-.05.325-.172.377-.297.377-.1 0-.125-.1-.125-.276 0-.252.325-2.172.45-2.822.024-.298.073-.398.198-.398.2 0 .35.127.924.152 2.097.072 3.148.05 3.846.05h6.14c.326 0 .45.05.45.173 0 .1-.023.25-.124.374-3.196 4.895-6.39 9.638-9.71 14.456h5.836v-.007zM324.905 166.364c0-3.297 0-3.895-.05-4.57-.052-.726-.174-1.073-.9-1.176-.173-.024-.55-.05-.748-.05-.076 0-.173-.1-.173-.174 0-.125.097-.173.35-.173.996 0 2.42.052 2.542.052.152 0 4.746.024 5.244 0 .425-.027.826-.1 1-.125.1-.027.198-.1.298-.1.073 0 .1.1.1.198 0 .152-.125.398-.173 1-.027.198-.076 1.148-.125 1.398-.027.1-.1.225-.2.225-.125 0-.173-.098-.173-.274 0-.152-.024-.5-.125-.75-.152-.35-.377-.498-1.574-.647-.374-.05-2.92-.073-3.17-.073-.1 0-.124.073-.124.225v5.766c0 .15 0 .225.125.225.275 0 3.168 0 3.667-.05.523-.05.848-.076 1.073-.298.15-.152.25-.276.325-.276.073 0 .125.05.125.173 0 .12-.125.473-.173 1.172-.05.425-.1 1.224-.1 1.373 0 .173-.05.398-.2.398-.098 0-.15-.073-.15-.198 0-.2 0-.423-.1-.7-.072-.3-.275-.55-1.123-.65-.6-.072-2.944-.097-3.32-.097-.126 0-.15.073-.15.15v1.77c0 .726-.027 3.196 0 3.622.05 1.422.447 1.696 2.62 1.696.576 0 1.624 0 2.198-.225.574-.248.872-.62.997-1.47.05-.252.1-.325.224-.325.127 0 .152.173.152.325 0 .15-.173 1.598-.298 2.048-.152.547-.377.547-1.224.547-1.647 0-2.92-.05-3.82-.073-.923-.05-1.497-.05-1.822-.05-.05 0-.474 0-.948.023-.425.027-.924.05-1.273.05-.224 0-.35-.05-.35-.172 0-.073.05-.173.172-.173.2 0 .477-.073.674-.1.425-.073.477-.498.574-1.12.127-.876.127-2.547.127-4.595l-.002-3.75zM338.665 166.364c0-3.297 0-3.895-.05-4.57-.052-.726-.174-1.073-.9-1.176-.173-.024-.547-.05-.748-.05-.073 0-.173-.1-.173-.174 0-.125.1-.173.35-.173 1 0 2.472.052 2.597.052.226 0 2.073-.05 2.748-.05 1.398 0 2.947.124 4.096.923.547.398 1.522 1.422 1.522 2.896 0 1.572-.647 3.097-2.695 4.844 1.8 2.246 3.322 4.17 4.595 5.49 1.173 1.198 1.896 1.4 2.446 1.475.424.072.648.072.773.072s.2.1.2.173c0 .125-.127.173-.525.173h-1.373c-1.25 0-1.796-.125-2.346-.423-.95-.5-1.748-1.525-2.994-3.12-.924-1.15-1.9-2.522-2.373-3.096-.1-.1-.15-.126-.298-.126l-2.795-.05c-.1 0-.152.05-.152.172v.5c0 2.05 0 3.693.1 4.57.073.624.2 1.025.872 1.122.3.05.775.1.972.1.152 0 .173.1.173.173 0 .1-.098.174-.35.174-1.196 0-2.594-.073-2.694-.073-.023 0-1.497.074-2.17.074-.226 0-.35-.05-.35-.173 0-.072.05-.172.173-.172.198 0 .474-.05.674-.1.423-.098.474-.498.574-1.12.126-.876.126-2.547.126-4.595v-3.74zm1.896 1.796c0 .125.052.2.153.276.325.173 1.446.325 2.422.325.525 0 1.124-.026 1.647-.376.748-.5 1.322-1.623 1.322-3.245 0-2.647-1.446-4.17-3.792-4.17-.647 0-1.35.073-1.574.125-.098.05-.173.127-.173.252v6.812h-.004z"/></g><g fill="#E2231A"><path d="M85.822 13.757h48.525v15.51H85.822zM85.822 45.89h48.525v15.503H85.822zM85.822 78.008h48.525V93.51H85.822z"/></g><g fill="#86754D"><path d="M149.253 13.757h48.526v15.51h-48.527zM185.07-16.51h-13.79L168.95 2.427h8.742zM149.253 45.89h48.526v15.503h-48.527zM149.253 78.008h48.526V93.51h-48.527z"/></g><path fill="#2D7050" d="M256.277 87.097c-.29-1.274-.435-3.694-.435-7.263v-6.857c0-5.48-.747-9.55-2.24-12.22-1.5-2.668-3.953-5.81-7.548-7.26 4.297-1.483 7.375-4.02 9.242-7.606 1.863-3.588 2.71-6.15 2.71-9.864 0-3.076-.485-5.813-1.44-8.217-.96-2.403-2.262-4.596-3.916-6.576-1.986-2.404-4.416-4.222-7.276-5.46-2.87-1.24-6.96-1.908-12.287-2.015h-20.95v15.378h17.572c3.34 0 5.85.462 7.522 1.38 2.975 1.625 4.44 3.584 4.44 6.937 0 2.777-1.514 5.553-4.588 7.036-1.744.842-4.346 1.272-7.826 1.272h-17.122v15.5h15.51c4.517 0 7.608.83 9.262 2.492 1.646 1.663 2.5 4.984 2.57 9.968l.106 8.868c.037 2.298.266 4.543.685 6.734.208 1.06.56 2.46 1.058 4.19h17.95v-1.96c-1.58-.96-2.574-2.444-3-4.457z"/><path fill-rule="evenodd" clip-rule="evenodd" fill="#86754D" d="M34.858-57.487v-2.883H13.592v2.883l-.36.09c-2.76.687-5.36 1.637-7.798 2.8-2.528 1.208-4.888 2.66-7.067 4.31-2.26 1.713-4.33 3.642-6.205 5.74-1.933 2.167-3.66 4.522-5.177 7.023l-.058.1c-.295-.518-.85-.864-1.483-.864-.938 0-1.703.77-1.703 1.71 0 .906.71 1.655 1.604 1.708l.07.245-3.27 10.646h-.87v6.597h-.93c-.796 0-1.447.655-1.447 1.453v5.3c0 .8.65 1.452 1.447 1.452h.93v6.59h85.902v-6.59h.935c.79 0 1.446-.65 1.446-1.453v-5.3c0-.798-.657-1.453-1.445-1.453h-.934v-6.596h-.87L63.04-34.624l.073-.245c.886-.054 1.6-.802 1.6-1.708 0-.94-.763-1.71-1.707-1.71-.632 0-1.182.35-1.478.865l-.066-.1c-1.518-2.502-3.242-4.858-5.18-7.023-1.862-2.1-3.93-4.028-6.196-5.742-2.184-1.65-4.54-3.1-7.067-4.308-2.443-1.164-5.045-2.114-7.807-2.802l-.355-.09zm2.278 138.433c-.447-2.786-.84-12.173-3.04-13.376.72.16 1.04.23 1.772-.033.755-.272 1.486.346 1.715 1.657.46-.89 1.23-1.038 1.88-.61.82.548.566 1.517 1.494 2.25-.255.944-.193 2.287-.772 2.703-.636.474-1.395.396-2.118-.59.796 2.272 2.187 3.236 4.313 1.814 2 1.423 3.362.55 4.272-1.78-1.313 1.044-2.298 1.007-3.082.158-.464-.51-.673-1.364-1.252-2.28.706-.687.71-1.784 1.116-2.282.804-.99 1.88-1.034 3.078-.066-1.264-1.104-1.06-2.254-.303-3.086.615-.684 1.633-.894 2.453-1.405.83.51 1.84.72 2.462 1.404.747.832.96 1.982-.304 3.086 1.2-.968 2.267-.923 3.08.066.4.5.41 1.595 1.107 2.283-.566.914-.78 1.767-1.247 2.278-.78.85-1.765.886-3.086-.157.92 2.33 2.274 3.203 4.276 1.78 2.126 1.423 3.52.458 4.31-1.812-.715.985-1.478 1.063-2.12.59-.565-.417-.508-1.76-.762-2.704.92-.733.665-1.702 1.494-2.25.64-.43 1.42-.28 1.87.61.23-1.31.96-1.928 1.724-1.657.722.264 1.05.194 1.773.033-2.2 1.203-2.595 10.59-3.038 13.376H37.136zM67.174-33.69c.73 0 1.32-.595 1.32-1.325s-.59-1.325-1.32-1.325c-.722 0-1.313.596-1.313 1.325 0 .73.59 1.325 1.314 1.325m-85.902 0c-.726 0-1.32-.595-1.32-1.325s.594-1.325 1.32-1.325c.727 0 1.32.596 1.32 1.325 0 .73-.593 1.325-1.32 1.325m43.1-26.953c-1.72.04-3.155-1.34-3.192-3.072-.012-.616.152-1.193.448-1.687l-3.226-4.836-3.542 2.384c-.07 1.135-.997 2.06-2.155 2.08-1.207.03-2.216-.94-2.24-2.16-.025-1.214.94-2.227 2.15-2.252.27-.004.524.037.763.117l3.546-2.38-2.8-4.198c-1.132-.062-2.05-1-2.072-2.16-.03-1.215.936-2.228 2.147-2.253 1.21-.026 2.223.945 2.248 2.158.008.272-.037.527-.123.773l2.807 4.2 3.44-2.316c.065-1.14.992-2.06 2.145-2.085 1.215-.026 2.22.945 2.25 2.16.023 1.214-.94 2.227-2.15 2.256-.272.004-.53-.037-.77-.122l-3.446 2.316 3.23 4.836c.132-.02.268-.033.407-.037 1.723-.04 3.16 1.344 3.193 3.07.04 1.732-1.334 3.17-3.057 3.207"/><path fill="#2D7050" d="M71.975 87.173c-.22-.25-.46-.49-.706-.713-1.167-1.055-2.496-1.657-3.9-1.657-1.412-.008-2.914.594-4.424 1.937-.345.305-.698.65-1.042 1.047-.164.173-.476.066-.485-.165-.116-1.62-.288-2.992-.56-4.162-.188-.845-.442-1.582-.738-2.234H37.337c-.304.65-.55 1.39-.747 2.234-.267 1.17-.443 2.542-.55 4.162-.016.23-.32.338-.485.165-.722-.808-1.45-1.438-2.158-1.904-1.322-.865-2.61-1.183-3.825-1.055s-2.36.7-3.39 1.632c-.608.548-1.166 1.22-1.683 1.995v38.035c2.108-1.088 5.2-2.015 8.814-3.094 3.99-1.2 8.618-2.588 13.264-4.587 7.338-3.153 14.34-8.955 19.29-16.756 2.783-4.37 4.917-9.372 6.107-14.88"/><path fill="#E2231A" d="M36.91 80.938l-.003.033c-.164.347-.308.718-.447 1.114-.132.396-.25.816-.353 1.27-.12.518-.222 1.08-.304 1.68-.09.594-.156 1.236-.213 1.92l-.008.12-.09-.087c-.295-.31-.6-.585-.903-.84-.31-.26-.617-.487-.92-.685-.7-.457-1.388-.766-2.07-.956-.705-.197-1.398-.25-2.075-.18-.653.07-1.29.26-1.896.55-.625.294-1.22.7-1.778 1.213-.234.205-.448.428-.67.667-.217.24-.434.495-.63.767l-.104-.033v-9.76h-49.304V61.67h49.304V45.6h-49.304V29.54h49.304v-16.06h-49.304V-2.585H73.082V77.206c0 1.6-.073 3.165-.23 4.697-.147 1.574-.385 3.115-.68 4.616l-.024.107-.066-.078c-.082-.078-.164-.16-.238-.235-.082-.078-.156-.153-.238-.223-.64-.582-1.33-1.03-2.052-1.336-.698-.297-1.428-.453-2.184-.457-.78 0-1.584.165-2.397.523-.78.338-1.568.85-2.364 1.546-.108.095-.222.197-.32.3-.116.107-.223.21-.33.322l-.082.086-.008-.12c-.057-.683-.123-1.326-.213-1.92-.082-.6-.19-1.16-.312-1.68-.106-.495-.238-.956-.386-1.385-.157-.43-.32-.817-.502-1.192l-.008-.02v-.008c.05-.305.09-.66.13-1.05l.14-1.307c0-.024.01-.05.01-.074.04-.43.09-.883.14-1.344v-.008c0-.008.007-.016.007-.033v-.045c.205-1.85.46-3.936.846-5.65.394-1.723.91-3.083 1.625-3.478.058-.03.082-.083.082-.14 0-.04-.008-.083-.016-.116-.016-.04-.033-.078-.066-.103-.04-.04-.098-.066-.156-.05-.172.038-.32.07-.46.096-.13.023-.263.04-.386.04-.115.008-.23-.008-.36-.033-.133-.024-.28-.066-.444-.124-.04-.016-.074-.024-.107-.04-.04-.01-.082-.018-.115-.018-.172-.033-.337-.03-.5.017-.157.04-.32.12-.46.235-.14.11-.263.243-.378.412-.115.164-.213.353-.287.572 0 .016-.008.025-.016.054l-.026.082-.074-.062c-.09-.103-.197-.186-.303-.256-.107-.066-.23-.115-.345-.148-.164-.04-.337-.058-.51-.04-.17.024-.335.077-.5.16-.033.02-.058.03-.09.046-.025.016-.05.033-.082.057V68.4c-.23.154-.386.335-.51.528-.114.194-.196.404-.286.622-.066.19-.14.38-.254.57-.107.196-.255.378-.46.543-.025.02-.05.066-.066.115-.016.04-.016.09-.008.12.04.152.066.313.1.473l.073.512c.057.38.106.763.212 1.088.1.32.23.585.46.75.205.148.41.247.632.297.205.04.42.037.64-.025l.09-.024c.033-.016.066-.025.09-.04l.074.08c-.016.022-.033.05-.05.08-.016.028-.032.053-.05.077-.155.23-.31.42-.492.58-.172.153-.36.27-.558.35-.197.075-.42.116-.656.108-.22 0-.46-.05-.714-.14-.148-.05-.304-.116-.46-.198-.156-.083-.32-.18-.484-.284-.025-.015-.074-.028-.123-.028-.05.004-.098.012-.122.033-.222.152-.435.28-.64.38-.213.098-.41.172-.6.213l-.056.016v-1.55l.016-.016c.066-.04.13-.1.19-.157.065-.057.13-.114.188-.18.14-.157.263-.33.36-.527.116-.197.214-.412.32-.647.083-.177.165-.362.264-.552.1-.194.206-.39.33-.58.023-.042.032-.092.023-.15-.008-.05-.024-.103-.058-.132-.18-.18-.32-.404-.42-.638-.106-.23-.18-.466-.262-.697-.057-.18-.107-.358-.18-.52-.066-.148-.14-.296-.238-.415-.082-.095-.164-.19-.246-.276-.09-.078-.18-.148-.272-.214l-.016-.02V51.457h8.454c.97 0 1.84.128 2.594.346.82.235 1.518.57 2.06.948V41.345c-.542.375-1.24.713-2.06.948-.755.214-1.625.346-2.594.346h-8.454V29.312h5.17c.97 0 1.84.132 2.595.354.83.23 1.52.57 2.068.944V19.203c-.55.38-1.24.713-2.068.946-.755.217-1.625.35-2.594.35h-5.17V9.567c0-.97.122-1.838.344-2.602.23-.828.566-1.518.936-2.073h-12.3c.374.554.706 1.245.94 2.073.213.765.353 1.632.353 2.602v10.93h-5.183c-.964 0-1.834-.13-2.598-.35-.82-.232-1.51-.566-2.06-.945V30.61c.55-.375 1.24-.713 2.06-.944.763-.222 1.633-.354 2.598-.354h5.183V42.64h-8.61c-1.034 0-1.92-.15-2.68-.397-.718-.23-1.317-.544-1.826-.898V52.75c.51-.353 1.108-.67 1.826-.905.76-.243 1.646-.387 2.68-.387h8.61v16.47l-.024.017c-.09.062-.18.136-.267.22-.086.08-.17.172-.25.267-.095.12-.172.268-.238.416-.066.16-.115.338-.177.52-.078.23-.152.465-.258.696-.107.235-.238.457-.423.638-.03.03-.05.083-.06.132-.003.058 0 .107.026.15.127.196.234.386.328.58.094.19.184.375.267.552.107.235.206.45.313.647.11.198.22.37.365.527.06.062.123.124.184.18.058.055.123.108.19.15l.023.024v1.55l-.066-.016c-.194-.045-.39-.116-.592-.214-.206-.1-.42-.227-.64-.38-.03-.02-.074-.028-.123-.032-.05 0-.098.012-.13.03-.165.102-.32.2-.477.283-.16.082-.312.148-.46.197-.254.09-.493.14-.722.14-.234.01-.45-.032-.648-.106-.197-.083-.39-.198-.562-.35-.177-.16-.34-.35-.49-.58-.015-.026-.032-.05-.052-.08-.016-.028-.033-.048-.045-.077l.065-.083c.033.016.066.025.095.04.03.01.06.017.095.025.213.062.43.066.64.025.218-.05.427-.15.624-.297.23-.165.368-.43.467-.75.103-.326.156-.71.213-1.088.025-.173.04-.346.074-.51.025-.16.058-.322.1-.475.007-.03 0-.078-.017-.12-.008-.048-.033-.094-.062-.114-.205-.165-.353-.346-.464-.544-.106-.19-.18-.38-.254-.57-.082-.218-.168-.43-.287-.622-.116-.194-.272-.375-.51-.527l-.078-.052c-.025-.017-.053-.025-.086-.046-.164-.082-.337-.136-.51-.16-.163-.017-.336 0-.508.04-.11.033-.23.082-.337.148-.11.07-.212.153-.31.256l-.067.062-.025-.082c-.016-.03-.008-.012-.008-.03l-.016-.024c-.074-.218-.173-.408-.28-.573-.114-.166-.237-.302-.377-.413-.148-.115-.3-.194-.464-.235-.164-.046-.332-.05-.505-.017-.033 0-.066.008-.106.017-.037.016-.074.024-.107.04-.173.06-.312.1-.443.125-.132.025-.25.04-.37.033-.122 0-.245-.016-.38-.04-.14-.026-.284-.06-.457-.096-.062-.016-.123.008-.156.05-.034.024-.054.06-.07.102-.014.033-.022.074-.017.116.004.057.03.11.086.14.81.445 1.37 2.15 1.772 4.224.406 2.064.656 4.496.854 6.408.05.52.103.997.147 1.438.05.426.098.8.148 1.106M24.497 109.85V93.787h-46.36c2.38 6.28 6.026 11.704 10.358 16.063h36.002z"/><path fill="#231F20" d="M-18.45-2.864H66.9V-5.8H-18.45v2.936zm72.31 76.306v1.6c.287-.104.6-.27.935-.508.074-.05.238-.053.312 0 .328.214.64.38.927.478.5.177.952.18 1.33.025.394-.15.73-.462 1.026-.907l.1-.152c-.067.03-.124.054-.198.07-.46.132-.91.008-1.313-.284-.477-.35-.584-1.11-.7-1.883-.04-.33-.09-.675-.172-.967-.024-.087.025-.243.1-.293.4-.325.557-.72.697-1.092.172-.44.328-.857.813-1.174.057-.037.115-.07.172-.1.345-.18.706-.222 1.06-.127.245.07.475.202.672.416l.024-.05c.164-.452.394-.79.673-1.013.303-.235.656-.33 1.017-.264.074.012.148.033.22.062.33.12.56.16.79.157.237-.004.484-.062.828-.14.27-.057.435.383.197.515-1.404.775-2.036 5.386-2.438 9.086 0 .033-.008.058-.016.087-.05.49-.1.968-.14 1.418-.1.932-.19 1.756-.27 2.358.368.738.664 1.59.894 2.58.246 1.047.41 2.242.517 3.61.212-.22.434-.43.655-.618 1.625-1.447 3.26-2.085 4.793-2.085 1.552 0 3.004.66 4.276 1.8.156.145.312.302.468.466.6-2.966.92-6.07.92-9.304v-79.51h-48.53V87.49c.406-.54.84-1.026 1.31-1.447 1.107-1.006 2.367-1.628 3.7-1.772 1.343-.14 2.755.207 4.183 1.142.61.404 1.223.906 1.835 1.533.115-1.368.28-2.564.517-3.61.214-.907.476-1.698.804-2.39-.09-.61-.188-1.5-.294-2.547-.394-3.832-1-9.713-2.594-10.59-.238-.133-.074-.574.193-.516.34.078.59.136.825.14.234.004.464-.037.788-.157.082-.03.156-.05.23-.062.36-.066.706.03 1.01.264.282.222.516.56.676 1.014.008.017.012.034.02.05.206-.214.435-.346.682-.416.35-.095.714-.054 1.054.128.053.03.11.062.17.1.483.316.64.732.81 1.173.15.37.296.767.707 1.092.066.05.115.206.095.293-.078.292-.127.638-.177.968-.107.775-.213 1.533-.698 1.883-.398.294-.845.417-1.313.285-.066-.016-.13-.04-.19-.07.03.054.06.103.09.152.296.445.637.758 1.027.907.383.157.83.152 1.34-.025.286-.1.594-.265.922-.48.078-.052.242-.048.316 0 .33.232.64.397.927.504V73.44h.013c-.037-.038-.078-.075-.11-.12-.292-.314-.477-.718-.7-1.183-.155-.35-.336-.738-.586-1.133-.053-.09-.037-.268.045-.346.353-.354.517-.857.66-1.31.124-.368.227-.706.432-.957.077-.09.163-.18.245-.263V51.79h-8.273c-1 0-1.855.14-2.577.376-.726.23-1.33.56-1.83.915-.173.128-.435-.007-.435-.226V41.237c0-.218.263-.354.435-.23.5.362 1.104.683 1.83.918.722.235 1.576.375 2.577.375h8.273V29.65h-4.843c-.944 0-1.78.127-2.512.333-.83.235-1.51.58-2.044.96-.18.124-.44-.008-.44-.227v-11.62c0-.22.26-.354.44-.227.534.383 1.215.724 2.044.96.73.207 1.568.333 2.512.333h4.843V9.573c0-.942-.123-1.785-.336-2.52-.235-.828-.572-1.52-.953-2.056-.127-.177.008-.44.226-.44h12.513c.222 0 .353.263.222.44-.378.536-.714 1.228-.952 2.055-.205.735-.328 1.578-.328 2.52v10.59H58.7c.937 0 1.782-.125 2.504-.333.83-.236 1.52-.578 2.052-.96.18-.128.435.007.435.226v11.62c0 .22-.253.35-.434.228-.533-.38-1.223-.725-2.052-.96-.722-.206-1.568-.334-2.503-.334h-4.84V42.3h8.126c.935 0 1.773-.123 2.503-.333.828-.235 1.517-.577 2.043-.96.18-.124.443.013.443.23v11.618c0 .218-.263.354-.443.227-.525-.384-1.215-.72-2.044-.956-.73-.206-1.57-.334-2.504-.334H53.86v16.33c.082.083.172.178.254.273.197.25.304.59.427.956.14.455.305.957.666 1.312.074.078.098.255.04.346-.245.387-.426.78-.59 1.133-.213.466-.402.87-.69 1.183-.04.046-.073.083-.114.12h.008zm-.558 1.723v-1.323c-.27.144-.566.214-.887.206-.336-.008-.698-.11-1.083-.305.345.627.747 1.072 1.2 1.282.228.115.49.16.77.14m-9.275-1.323v1.323c.28.02.542-.025.78-.14.45-.21.846-.655 1.19-1.282-.386.194-.74.297-1.075.305-.33.008-.624-.062-.895-.206m9.275-6.115V51.515c0-.14.14-.28.28-.28h8.404c.985 0 1.87.132 2.65.354.683.193 1.28.453 1.782.753V41.748c-.5.297-1.1.56-1.78.758-.78.222-1.667.354-2.652.354H53.58c-.14 0-.278-.14-.278-.28V29.37c0-.137.14-.277.28-.277h5.12c.986 0 1.88.136 2.66.354.682.194 1.273.457 1.773.754V19.61c-.5.296-1.09.56-1.773.75-.78.225-1.674.36-2.66.36h-5.12c-.14 0-.28-.14-.28-.277V9.573c0-.994.14-1.888.36-2.673.19-.682.452-1.277.748-1.784H42.915c.3.507.558 1.102.75 1.784.222.785.362 1.68.362 2.672v10.87c0 .14-.14.28-.28.28h-5.12c-.994 0-1.88-.137-2.665-.36-.677-.19-1.272-.457-1.773-.75V30.2c.5-.297 1.095-.56 1.772-.754.784-.22 1.67-.354 2.664-.354h5.122c.14 0 .28.14.28.276v13.212c0 .14-.14.28-.28.28h-8.552c-1.06 0-1.97-.157-2.75-.404-.58-.19-1.092-.43-1.535-.705V52.34c.444-.272.957-.515 1.536-.705.78-.247 1.69-.4 2.75-.4h8.552c.14 0 .28.14.28.28v16.22c.245-.132.516-.198.804-.206.213 0 .435.024.665.098-.09-.206-.14-.404-.164-.61-.058-.663.22-1.277.673-1.78.427-.474 1-.733 1.584-.99.32-.143.64-.29.936-.47.057-.036.22-.036.287 0 .287.178.616.327.936.47.58.257 1.148.516 1.583.99.452.503.73 1.117.665 1.78-.024.206-.074.404-.156.61.23-.074.443-.1.657-.1.285.01.556.075.802.2M23.942 88.49c-.04-.07-.025-.132 0-.194V78.004h-48.516c.047 2.72.316 5.357.786 7.88.497 2.66 1.207 5.2 2.11 7.622h45.62v-5.014zm43.51-91.356h5.853c.14 0 .287.14.287.28v79.79c0 9.642-2.815 18.18-7.256 25.153-5.015 7.886-12.107 13.767-19.535 16.965-4.678 2.007-9.327 3.408-13.33 4.603-3.828 1.15-7.058 2.118-9.11 3.268-.058.025-.107.037-.16.033-.037-.005-.078-.018-.11-.034-2.06-1.15-5.287-2.118-9.112-3.268-4.005-1.195-8.65-2.596-13.33-4.607-2.404-1.033-4.768-2.344-7.042-3.918-2.23-1.545-4.375-3.334-6.368-5.353-2.218-2.243-4.256-4.77-6.035-7.542-1.697-2.654-3.164-5.535-4.332-8.62-.945-2.507-1.688-5.144-2.205-7.897-.488-2.636-.765-5.377-.798-8.212-.006-.016-.006-.037-.006-.054V-2.585c0-.14.14-.28.28-.28h5.854V-8.9h-.656c-.946 0-1.724-.778-1.724-1.728v-5.3c0-.954.778-1.73 1.724-1.73h.656v-15.778c-.75-.135-1.32-.788-1.32-1.58 0-.883.718-1.602 1.597-1.602s1.598.72 1.598 1.6c0 .794-.572 1.448-1.32 1.583v9.186h.386l3.187-10.363c-.94-.157-1.66-.98-1.66-1.96 0-.908.607-1.672 1.433-1.913.004-.037.017-.08.025-.118l1.964-6.426c.008-.03.084-.132.11-.15L9.45-60.593c.02-.016.134-.05.15-.05H22.954c-.374-.166-.71-.393-1-.67-.63-.605-1.03-1.453-1.052-2.395-.007-.324.038-.648.116-.953.066-.257.168-.496.29-.725l-2.98-4.47-3.204 2.158c-.066.587-.34 1.115-.743 1.506-.436.422-1.02.688-1.667.7-.68.013-1.305-.253-1.765-.69-.46-.444-.747-1.06-.764-1.744-.016-.684.246-1.312.69-1.772.435-.46 1.05-.75 1.736-.768.143 0 .29.01.44.035.093.016.196.037.286.062l3.21-2.156-2.578-3.857c-.587-.068-1.112-.338-1.502-.742-.42-.44-.68-1.026-.694-1.677-.016-.682.25-1.31.69-1.768.44-.46 1.05-.754 1.732-.77.68-.013 1.31.25 1.765.695.455.44.746 1.055.767 1.737 0 .148-.008.297-.033.44-.016.102-.037.2-.06.296l2.572 3.857 3.098-2.09c.07-.586.337-1.113.743-1.505.435-.418 1.017-.684 1.666-.697.682-.016 1.305.25 1.765.692.46.44.747 1.055.763 1.737.017.684-.245 1.313-.69 1.774-.438.464-1.05.75-1.73.767-.15.004-.292-.008-.44-.03-.103-.015-.197-.038-.29-.063l-3.104 2.085 2.98 4.46h.045c.062-.007.136-.013.222-.013.932-.02 1.793.346 2.425.95.632.608 1.03 1.457 1.05 2.394.022.94-.344 1.805-.943 2.438-.312.325-.685.59-1.1.773H38.837c.03 0 .14.035.157.05L61.46-45.18c.025.016.09.118.1.15l1.96 6.425c.017.037.026.08.034.118.83.24 1.436 1.005 1.436 1.912 0 .983-.722 1.805-1.666 1.96L66.51-24.25h.393v-9.186c-.755-.136-1.32-.79-1.32-1.582 0-.882.713-1.6 1.59-1.6.88 0 1.6.718 1.6 1.6 0 .793-.573 1.447-1.32 1.582V-17.66h.656c.943 0 1.714.777 1.714 1.73v5.3c0 .95-.772 1.728-1.715 1.728h-.657v6.037zm4.53 90.037c-.23-.25-.467-.49-.713-.713-1.167-1.055-2.496-1.657-3.9-1.657-1.412-.004-2.914.594-4.424 1.94-.353.302-.698.648-1.05 1.044-.157.177-.47.066-.485-.17-.098-1.61-.278-2.987-.55-4.153-.196-.853-.434-1.59-.738-2.238h-22.79c-.3.647-.545 1.385-.738 2.238-.27 1.166-.448 2.542-.554 4.154-.016.235-.324.346-.485.17-.722-.81-1.444-1.435-2.158-1.91-1.317-.86-2.61-1.178-3.825-1.05-1.21.124-2.364.7-3.39 1.632-.603.552-1.174 1.22-1.68 1.995v38.035c2.11-1.088 5.193-2.01 8.808-3.094 3.99-1.2 8.623-2.584 13.27-4.587 7.337-3.153 14.338-8.96 19.296-16.752 2.783-4.377 4.917-9.376 6.107-14.885M36.927 76.59H60.41c.353-3.19.895-6.968 2.01-8.6h-.065c-.295.005-.583-.045-.985-.19-.04-.015-.082-.028-.13-.036-.207-.037-.404.02-.576.157-.197.153-.37.41-.5.763-.06.165-.108.35-.15.557-.04.243-.4.305-.516.082-.033-.062-.066-.128-.098-.177-.18-.264-.386-.42-.6-.482-.212-.053-.442-.03-.656.087-.04.016-.082.04-.115.066-.338.227-.47.56-.61.915-.155.405-.32.825-.737 1.208.066.276.107.577.148.87.1.65.19 1.298.477 1.508.263.198.558.28.846.198.28-.083.582-.314.886-.725.155-.228.573-.01.483.25-.19.54-.41 1.01-.665 1.402-.36.535-.788.923-1.288 1.12-.51.203-1.083.203-1.715-.02-.287-.107-.59-.247-.903-.445-1.018.684-1.896.79-2.66.433-.77-.362-1.387-1.216-1.87-2.444-.09-.24.23-.478.426-.322.607.487 1.133.717 1.584.725.42.015.796-.182 1.125-.537.23-.25.402-.622.6-1.047.14-.313.303-.65.508-1.014-.345-.42-.51-.915-.657-1.368-.098-.317-.19-.6-.328-.774-.353-.43-.755-.65-1.19-.66-.443-.008-.944.198-1.477.626 0 .008-.008.008-.008.008l-.008.008c-.213.173-.566-.247-.353-.428.517-.462.763-.91.796-1.335.058-.496-.164-.965-.517-1.36-.353-.388-.87-.615-1.404-.854-.288-.128-.575-.26-.855-.416-.27.157-.566.29-.846.416-.535.24-1.052.465-1.405.853-.353.395-.575.864-.525 1.36.04.423.28.872.804 1.334.205.18-.14.602-.36.428 0 0 0-.008-.01-.008v-.008c-.54-.428-1.033-.634-1.476-.626-.443.008-.846.23-1.2.66-.13.173-.225.457-.327.774-.147.454-.303.948-.656 1.368.213.362.37.7.517 1.014.198.425.37.795.6 1.047.328.354.706.552 1.124.536.452-.01.97-.24 1.576-.726.206-.157.525.083.427.322-.476 1.228-1.092 2.08-1.863 2.444-.763.36-1.64.25-2.667-.433-.312.197-.608.338-.895.445-.64.223-1.21.223-1.72.02-.5-.197-.932-.584-1.285-1.12-.258-.392-.48-.86-.673-1.4-.086-.26.328-.48.493-.253.3.41.6.642.886.724.283.082.574 0 .837-.198.295-.21.386-.857.476-1.508.04-.293.09-.594.148-.87-.42-.383-.583-.803-.74-1.207-.134-.353-.266-.687-.598-.914-.04-.025-.082-.05-.123-.066-.213-.116-.44-.14-.648-.087-.22.062-.427.22-.6.482-.036.05-.07.115-.106.177-.112.222-.473.16-.518-.082-.033-.206-.082-.392-.144-.557-.127-.354-.3-.61-.5-.762-.178-.135-.375-.193-.575-.156-.045.008-.095.02-.136.037-.398.145-.69.195-.985.19h-.066c1.118 1.632 1.66 5.41 2.02 8.6m23.418.557h-23.36c.05.412.082.812.123 1.19.098.937.184 1.744.263 2.33h22.588c.082-.586.172-1.394.27-2.33.034-.378.075-.778.116-1.19M23.942 61.945h-48.524v15.503h48.524V61.945zm0 47.633v-15.51h-45.407c1.126 2.904 2.526 5.628 4.137 8.138 1.736 2.707 3.718 5.172 5.875 7.372h35.395zm0 .552h-34.837c1.836 1.8 3.786 3.412 5.813 4.813 2.24 1.554 4.58 2.852 6.952 3.862 4.642 2.007 9.275 3.39 13.264 4.586 3.612 1.09 6.698 2.012 8.808 3.096V110.13zm0-96.933V-2.306h-48.524v15.503h48.524zm0 .556h-48.524v15.51h48.524v-15.51zm0 16.066h-48.524V45.32h48.524V29.82zm0 16.066h-48.524V61.39h48.524V45.885zm.427-106.81c.78-.012 1.485-.35 1.994-.877.505-.533.81-1.254.792-2.043-.016-.79-.353-1.498-.883-2.005-.525-.507-1.244-.81-2.032-.793-.048 0-.11.003-.183.01-.074.005-.14.013-.185.022-.078.012-.226-.054-.275-.122l-3.226-4.836c-.073-.117-.036-.31.075-.385l3.444-2.317c.044-.03.192-.05.25-.033.102.037.213.066.328.085.106.016.22.024.345.024.525-.017 1-.246 1.342-.6.337-.36.546-.844.534-1.377-.014-.532-.24-1.008-.592-1.35-.357-.342-.84-.548-1.375-.535-.5.012-.952.216-1.288.54-.337.33-.56.78-.583 1.28-.008.053-.078.185-.123.213l-3.446 2.32c-.11.08-.308.037-.39-.076l-2.8-4.2c-.032-.047-.05-.194-.032-.25.04-.104.07-.213.086-.33.016-.104.024-.217.02-.34-.012-.53-.238-1.013-.59-1.355-.362-.34-.842-.545-1.372-.533-.53.008-1.005.237-1.346.59-.336.36-.546.848-.537 1.38.012.503.218.962.546 1.296.323.342.77.563 1.27.587.054.004.182.08.214.122l2.8 4.203c.077.114.04.31-.075.383l-3.542 2.384c-.045.03-.197.05-.25.03-.107-.034-.213-.063-.324-.08-.11-.016-.226-.024-.345-.024-.53.012-1.006.24-1.347.598-.34.354-.546.845-.534 1.376.012.527.24 1.01.594 1.352.353.34.837.544 1.37.536.5-.012.956-.22 1.293-.54.332-.33.554-.78.583-1.28 0-.055.078-.185.123-.22l3.542-2.38c.115-.08.308-.04.386.076l3.227 4.836c.05.068.053.233.008.3-.135.228-.246.477-.312.74-.066.256-.098.522-.098.797.016.788.353 1.497.886 2.004.527.506 1.24.813 2.03.793M53.86-36.83c-2.61 0-4.744 2.144-4.744 4.77v7.81h9.488v-7.81c0-1.313-.534-2.506-1.395-3.368-.863-.865-2.045-1.4-3.35-1.4m1.067-.448c1.034.21 1.953.73 2.676 1.45.97.966 1.56 2.3 1.56 3.764v7.81h.337l3.185-10.363c-.944-.157-1.658-.98-1.658-1.96 0-.275.05-.537.156-.774-2.963-4.88-6.747-9.224-11.303-12.67-4.252-3.217-9.177-5.663-14.742-7.056v22.73c.016.263.025.524.025.794v9.3h.18l6.074-14.198c-1.277-.185-2.258-1.287-2.258-2.612 0-1.457 1.18-2.637 2.634-2.637 1.45 0 2.627 1.182 2.627 2.638 0 1.325-.976 2.427-2.248 2.612l6.066 14.2h.32v-7.812c0-2.56 1.822-4.716 4.235-5.215-.764-.394-1.297-1.2-1.297-2.123 0-1.308 1.06-2.376 2.364-2.376 1.305 0 2.372 1.068 2.372 2.376 0 .925-.533 1.73-1.305 2.124m3.965 13.578H-18.45v2.938h85.354v-2.938h-8.012zm4.112-10.075l-2.922 9.524h5.852l-2.93-9.523zM23.76-60.09H18.37v17.274c1.69-1.084 3.706-1.718 5.852-1.718 2.15 0 4.16.634 5.86 1.718V-60.09h-6.32zm-5.95 0h-3.943v23.008c.74-2.166 2.134-4.03 3.944-5.35V-60.09zm-4.497 0H9.688l-22.3 15.312-1.9 6.21c.578.016 1.095.278 1.452.688 2.975-4.84 6.755-9.148 11.294-12.587 4.334-3.282 9.373-5.774 15.078-7.18v-2.442zm49.642 21.522l-1.896-6.21-22.303-15.31h-3.62v2.443c5.7 1.405 10.745 3.897 15.078 7.18 4.54 3.438 8.315 7.746 11.294 12.586.353-.41.87-.67 1.445-.688M34.58-60.088h-3.945v17.655c1.81 1.32 3.205 3.186 3.944 5.35v-23.006zm0 35.838v-10.078c-.4-5.376-4.9-9.65-10.36-9.65-5.445 0-9.956 4.274-10.354 9.65v10.078H34.58zM13.312-34.348v-22.726C7.74-55.68 2.813-53.236-1.43-50.02c-4.56 3.447-8.338 7.79-11.3 12.672.095.237.155.498.155.773 0 .983-.718 1.805-1.66 1.96l3.18 10.365h.337v-7.81c0-1.464.597-2.8 1.56-3.765.722-.72 1.648-1.24 2.682-1.45-.77-.394-1.303-1.2-1.303-2.123 0-1.308 1.064-2.376 2.367-2.376s2.366 1.068 2.366 2.376c0 .923-.53 1.73-1.3 2.123 2.41.498 4.236 2.654 4.236 5.215v7.81h.32l6.06-14.198c-1.264-.185-2.245-1.287-2.245-2.612 0-1.457 1.178-2.637 2.63-2.637 1.445 0 2.628 1.18 2.628 2.637 0 1.325-.98 2.427-2.25 2.612l6.067 14.2h.18v-9.302c0-.27.016-.536.033-.798m-26.57-2.81c-.088-.066-.11-.13-.1-.19-.253-.395-.698-.656-1.203-.656-.786 0-1.424.64-1.424 1.43 0 .79.638 1.43 1.424 1.43s1.43-.64 1.43-1.43c0-.21-.047-.407-.127-.584m75.062-.19c.008.06-.016.124-.098.19-.09.176-.132.374-.132.582 0 .79.648 1.43 1.428 1.43.788 0 1.428-.64 1.428-1.43 0-.79-.64-1.43-1.427-1.43-.5 0-.943.262-1.198.658m-20.01-.577L35.95-24.25h11.688l-5.844-13.675zm0-1.055c1.14 0 2.075-.933 2.075-2.08s-.935-2.086-2.076-2.086c-1.145 0-2.076.937-2.076 2.085s.93 2.08 2.076 2.08m12.066 1.4c1 0 1.806-.82 1.806-1.82 0-1.004-.804-1.818-1.806-1.818-.993 0-1.806.814-1.806 1.82 0 1 .813 1.82 1.806 1.82m13.314 3.605c.574 0 1.042-.468 1.042-1.045 0-.575-.468-1.042-1.042-1.042-.566 0-1.043.468-1.043 1.042 0 .577.477 1.045 1.044 1.045M24.22-45.167c-.968 0-1.854-.36-2.502-.933-.657-.577-1.06-1.383-1.06-2.273 0-.886.403-1.688 1.06-2.27.648-.576 1.535-.93 2.503-.93.978 0 1.864.354 2.504.93.66.582 1.067 1.384 1.067 2.27 0 .89-.405 1.696-1.066 2.273-.64.574-1.526.933-2.503.933m0-.56c.842 0 1.597-.302 2.143-.786.534-.478.87-1.135.87-1.86 0-.724-.337-1.377-.87-1.853-.546-.49-1.3-.79-2.142-.79-.837 0-1.59.3-2.137.79-.534.476-.87 1.13-.87 1.852 0 .725.337 1.382.87 1.86.546.485 1.3.786 2.138.786M6.657-37.925L.812-24.25h11.684l-5.84-13.675zm-12.07 1.096c-1.303 0-2.493.537-3.353 1.402-.858.86-1.39 2.054-1.39 3.367v7.81h9.492v-7.81c0-2.626-2.135-4.77-4.75-4.77m-9.145 3.057l-2.924 9.524h5.85l-2.926-9.523zM6.656-38.98c1.14 0 2.068-.933 2.068-2.08s-.927-2.086-2.068-2.086-2.077.937-2.077 2.085.935 2.08 2.076 2.08m-12.07 1.4c1 0 1.81-.82 1.81-1.82 0-1.004-.81-1.818-1.81-1.818-.997 0-1.812.814-1.812 1.82 0 1 .815 1.82 1.812 1.82m-13.314 3.605c.57 0 1.043-.468 1.043-1.045 0-.575-.472-1.042-1.043-1.042-.577 0-1.042.468-1.042 1.042 0 .577.466 1.045 1.042 1.045m53.307 13.77H13.87v13.846h20.71v-13.846zm13.247 3.1h-9.03v7.643h9.03v-7.642zm20.282 0h-.657v7.647h.656c.64 0 1.165-.527 1.165-1.172v-5.3c0-.647-.526-1.174-1.166-1.174m-43.89-1.793c1.876 0 3.596.92 4.958 2.126 1.896 1.676 3.115 3.935 3.115 5.045 0 1.024-.936 1.933-2.454 2.57-1.446.607-3.436.982-5.62.982-2.183 0-4.17-.375-5.614-.983-1.518-.636-2.458-1.545-2.458-2.57 0-1.11 1.223-3.368 3.12-5.043 1.366-1.206 3.08-2.125 4.953-2.125m0 .557c-1.714 0-3.31.86-4.587 1.988-1.78 1.57-2.926 3.632-2.926 4.625 0 .775.81 1.506 2.113 2.055 1.38.583 3.29.94 5.4.94 2.11 0 4.023-.358 5.406-.94 1.31-.548 2.113-1.28 2.113-2.055 0-.993-1.15-3.056-2.923-4.625-1.276-1.127-2.877-1.988-4.596-1.988m-30.724.68h2.073c.945 0 1.72.777 1.72 1.73v5.3c0 .95-.775 1.728-1.72 1.728h-2.074c-.95 0-1.72-.777-1.72-1.727v-5.3c0-.954.77-1.73 1.72-1.73m0 .555c-.642 0-1.167.527-1.167 1.174v5.3c0 .645.524 1.172 1.166 1.172h2.073c.64 0 1.166-.527 1.166-1.172v-5.3c0-.647-.525-1.174-1.167-1.174h-2.074zm59.387-.556h2.068c.945 0 1.724.777 1.724 1.73v5.3c0 .95-.78 1.728-1.723 1.728h-2.067c-.952 0-1.724-.777-1.724-1.727v-5.3c0-.954.77-1.73 1.723-1.73m0 .555c-.648 0-1.174.527-1.174 1.174v5.3c0 .645.524 1.172 1.173 1.172h2.068c.64 0 1.166-.527 1.166-1.172v-5.3c0-.647-.525-1.174-1.165-1.174h-2.067zm-72.544 0c-.64 0-1.165.527-1.165 1.174v5.3c0 .645.525 1.172 1.164 1.172h.655v-7.646h-.656zm67.758-.556c.14 0 .28.14.28.278v8.2c0 .14-.14.28-.28.28h-9.575c-.144 0-.28-.14-.28-.28v-8.2c0-.138.136-.278.28-.278h9.575zm16.194.556h-4.145v7.642h4.145v-7.642zm.28-.556c.14 0 .278.14.278.278v8.2c0 .14-.14.28-.28.28H59.87c-.14 0-.27-.14-.27-.28v-8.2c0-.138.13-.278.27-.278h4.703zm-64.22 0h9.57c.148 0 .283.14.283.278v8.2c0 .14-.135.28-.283.28H.352c-.144 0-.28-.14-.28-.28v-8.2c0-.138.136-.278.28-.278m.28 8.202h9.02v-7.642H.632v7.642zm-16.754-8.202h4.697c.14 0 .28.14.28.278v8.2c0 .14-.14.28-.28.28h-4.697c-.14 0-.28-.14-.28-.28v-8.2c0-.138.14-.278.28-.278m.274 8.202h4.147v-7.642h-4.148v7.642zm29.16 3.1v-13.847H-18.45v13.846h31.763zm21.825-13.847v13.846h31.765v-13.848H35.137z"/><path stroke="#231F20" stroke-width=".007" fill="none" d="M-18.45-2.864H66.9V-5.8H-18.45zM53.86 73.442v1.6c.287-.104.6-.27.935-.508.074-.05.238-.053.312 0 .328.214.64.38.927.478.5.177.952.18 1.33.025.394-.15.73-.462 1.026-.907l.1-.152c-.067.03-.124.054-.198.07-.46.132-.91.008-1.313-.284-.477-.35-.584-1.11-.7-1.883-.04-.33-.09-.675-.172-.967-.024-.087.033-.243.1-.293.4-.325.557-.72.697-1.092.172-.44.328-.857.813-1.174.057-.037.115-.07.172-.1.345-.18.706-.222 1.06-.127.245.07.475.202.672.416l.024-.05c.164-.452.394-.79.673-1.013.303-.235.656-.33 1.017-.264.074.012.148.033.22.062.33.12.56.16.79.157.237-.004.484-.062.828-.14.27-.057.435.383.197.515-1.404.775-2.036 5.386-2.438 9.086 0 .033-.008.058-.016.087-.05.49-.1.968-.14 1.418-.1.932-.19 1.756-.27 2.358.368.738.664 1.59.894 2.58.246 1.047.41 2.242.517 3.61.212-.22.434-.43.655-.618 1.625-1.447 3.26-2.085 4.793-2.085 1.552 0 3.004.66 4.276 1.8.156.145.312.302.468.466.6-2.966.92-6.07.92-9.304v-79.51h-48.53V87.49c.406-.54.84-1.03 1.31-1.447 1.107-1.006 2.367-1.628 3.7-1.772 1.343-.14 2.755.207 4.183 1.142.61.404 1.223.906 1.835 1.533.115-1.368.28-2.564.517-3.61.214-.907.476-1.698.804-2.39-.09-.61-.188-1.5-.294-2.547-.394-3.832-1-9.713-2.594-10.59-.238-.133-.074-.574.193-.516.34.078.59.136.825.14.234.004.464-.037.788-.157.082-.03.156-.05.23-.062.36-.066.706.03 1.01.264.282.222.516.56.676 1.014.008.017.012.034.02.05.206-.214.435-.346.682-.416.35-.095.714-.054 1.054.128.053.03.11.062.17.1.483.316.64.732.81 1.173.15.37.296.767.707 1.092.066.05.115.206.095.293-.078.292-.127.638-.177.968-.107.775-.213 1.533-.698 1.883-.398.294-.845.417-1.313.285-.066-.016-.13-.04-.19-.07.03.054.06.103.09.152.296.445.637.758 1.027.907.383.157.83.152 1.34-.025.286-.1.594-.265.922-.48.078-.052.242-.048.316 0 .33.232.64.397.927.504V73.44h.013c-.037-.038-.078-.075-.11-.12-.292-.314-.477-.718-.7-1.183-.155-.35-.336-.738-.586-1.133-.053-.09-.037-.268.045-.346.353-.354.517-.857.66-1.31.124-.368.227-.706.432-.957.077-.09.163-.18.245-.263V51.79h-8.273c-1 0-1.855.14-2.577.376-.726.23-1.33.56-1.83.915-.173.128-.435-.007-.435-.226V41.237c0-.218.263-.354.435-.23.5.362 1.104.683 1.83.918.722.235 1.576.375 2.577.375h8.273V29.65h-4.843c-.944 0-1.78.127-2.512.333-.83.235-1.51.58-2.044.96-.18.124-.44-.008-.44-.227v-11.62c0-.22.26-.354.44-.227.534.383 1.215.724 2.044.96.73.207 1.568.333 2.512.333h4.843V9.573c0-.942-.123-1.785-.336-2.52-.235-.828-.572-1.52-.953-2.056-.127-.177.008-.44.226-.44h12.513c.222 0 .353.263.222.44-.378.536-.714 1.228-.952 2.055-.205.735-.328 1.578-.328 2.52v10.59H58.7c.937 0 1.782-.125 2.504-.333.83-.236 1.52-.578 2.052-.96.18-.128.435.007.435.226v11.62c0 .22-.253.35-.434.228-.533-.38-1.223-.725-2.052-.96-.722-.206-1.568-.334-2.503-.334h-4.84V42.3h8.126c.935 0 1.773-.123 2.503-.333.828-.235 1.517-.577 2.043-.96.18-.124.443.013.443.23v11.618c0 .218-.263.354-.443.227-.525-.384-1.215-.72-2.044-.956-.73-.206-1.57-.334-2.504-.334H53.86v16.33c.082.083.172.178.254.273.197.25.304.59.427.956.14.455.305.957.666 1.312.074.078.098.255.04.346-.245.387-.426.78-.59 1.133-.213.466-.402.87-.69 1.183-.04.046-.073.083-.114.12h.008zM53.302 75.165v-1.323c-.27.144-.566.214-.887.206-.336-.008-.698-.11-1.083-.305.345.627.747 1.072 1.2 1.282.228.115.49.16.77.14zM44.027 73.842v1.323c.28.02.542-.025.78-.14.45-.21.846-.655 1.19-1.282-.386.194-.74.297-1.075.305-.33.008-.616-.062-.895-.206z"/><path fill="#fff" stroke="#231F20" stroke-width=".007" d="M53.302 67.727V51.515c0-.14.14-.28.28-.28h8.404c.985 0 1.87.132 2.65.354.683.193 1.28.453 1.782.753V41.748c-.5.297-1.1.56-1.78.758-.78.222-1.667.354-2.652.354H53.58c-.14 0-.278-.14-.278-.28V29.37c0-.137.14-.277.28-.277h5.12c.986 0 1.88.136 2.66.354.682.194 1.273.457 1.773.754V19.61c-.5.296-1.09.56-1.773.75-.78.225-1.674.36-2.66.36h-5.12c-.14 0-.28-.14-.28-.277V9.573c0-.994.14-1.888.36-2.673.19-.682.452-1.277.748-1.784H42.92c.294.507.553 1.102.754 1.784.213.785.353 1.68.353 2.672v10.87c0 .14-.14.28-.28.28h-5.12c-.994 0-1.88-.137-2.665-.36-.677-.19-1.272-.457-1.773-.75V30.2c.5-.297 1.095-.56 1.772-.754.784-.22 1.67-.354 2.664-.354h5.122c.14 0 .28.14.28.276v13.212c0 .14-.14.28-.28.28h-8.552c-1.06 0-1.97-.157-2.75-.404-.58-.19-1.092-.43-1.535-.705V52.34c.444-.272.957-.515 1.536-.705.78-.247 1.69-.4 2.75-.4h8.552c.14 0 .28.14.28.28v16.22c.245-.132.516-.198.804-.206.213 0 .435.024.665.098-.09-.206-.14-.404-.164-.61-.058-.663.22-1.277.673-1.78.427-.474 1-.733 1.584-.99.32-.143.64-.29.936-.47.057-.036.22-.036.287 0 .287.178.616.327.936.47.58.257 1.148.516 1.583.99.452.503.73 1.117.665 1.78-.024.206-.074.404-.156.61.23-.074.443-.1.657-.1.285.01.556.075.802.2zM23.942 88.492c-.04-.07-.025-.132 0-.194V78.004h-48.516c.047 2.72.316 5.357.786 7.88.497 2.66 1.207 5.2 2.11 7.622h45.62v-5.014z"/><path stroke="#231F20" stroke-width=".007" d="M67.453-2.864h5.852c.14 0 .287.14.287.28v79.79c0 9.642-2.815 18.18-7.256 25.153-5.015 7.886-12.107 13.767-19.535 16.965-4.678 2.007-9.327 3.408-13.33 4.603-3.828 1.15-7.058 2.118-9.11 3.268-.058.025-.107.037-.16.033-.037-.005-.078-.018-.11-.034-2.06-1.15-5.287-2.118-9.112-3.268-3.997-1.195-8.65-2.596-13.33-4.607-2.404-1.033-4.768-2.344-7.042-3.918-2.23-1.545-4.375-3.334-6.368-5.353-2.218-2.243-4.256-4.77-6.035-7.542-1.697-2.654-3.164-5.535-4.332-8.62-.945-2.507-1.688-5.144-2.205-7.897-.488-2.636-.765-5.377-.798-8.212-.006-.016-.006-.037-.006-.054V-2.584c0-.14.14-.28.28-.28h5.854V-8.9h-.656c-.946 0-1.724-.778-1.724-1.728v-5.3c0-.954.778-1.73 1.724-1.73h.656v-15.778c-.75-.135-1.32-.788-1.32-1.58 0-.883.718-1.606 1.597-1.606s1.598.723 1.598 1.605c0 .793-.572 1.447-1.32 1.582v9.186h.386l3.187-10.363c-.94-.157-1.66-.98-1.66-1.96 0-.908.607-1.672 1.433-1.913.004-.037.017-.08.025-.118l1.964-6.426c.008-.03.084-.132.11-.15L9.45-60.593c.02-.016.134-.05.15-.05H22.954c-.374-.166-.71-.393-1-.67-.63-.605-1.03-1.453-1.052-2.395-.007-.324.038-.648.116-.953.066-.257.168-.496.29-.725l-2.98-4.47-3.204 2.158c-.066.587-.34 1.115-.743 1.506-.436.422-1.02.688-1.667.7-.68.013-1.305-.253-1.765-.69-.46-.444-.747-1.06-.764-1.744-.016-.684.246-1.312.69-1.772.435-.46 1.05-.75 1.736-.768.143 0 .29.01.44.035.093.016.196.037.286.062l3.21-2.156-2.578-3.857c-.587-.068-1.112-.338-1.502-.742-.42-.44-.68-1.026-.694-1.677-.016-.682.25-1.31.69-1.772.44-.455 1.05-.75 1.732-.766.68-.012 1.31.252 1.765.696.455.44.75 1.055.767 1.737 0 .148-.008.297-.033.44-.016.102-.037.2-.06.296l2.572 3.856 3.098-2.09c.07-.586.337-1.113.743-1.505.435-.417 1.017-.683 1.666-.696.682-.016 1.305.25 1.765.692.46.44.747 1.055.763 1.737.017.684-.245 1.313-.69 1.774-.438.464-1.05.75-1.73.767-.15.004-.292-.008-.44-.03-.103-.015-.197-.038-.29-.063l-3.104 2.086 2.98 4.46h.045c.062-.007.136-.013.222-.013.932-.02 1.793.346 2.425.95.632.608 1.03 1.457 1.05 2.394.022.94-.344 1.805-.943 2.438-.312.325-.685.59-1.1.773H38.837c.03 0 .14.035.157.05L61.46-45.18c.025.016.1.118.1.15l1.96 6.425c.017.037.026.08.034.118.83.24 1.436 1.005 1.436 1.912 0 .983-.722 1.805-1.666 1.96L66.51-24.25h.393v-9.186c-.755-.136-1.32-.79-1.32-1.582 0-.882.713-1.605 1.59-1.605.88 0 1.6.723 1.6 1.605 0 .793-.573 1.447-1.32 1.582V-17.66h.656c.943 0 1.714.777 1.714 1.73v5.3c0 .95-.772 1.728-1.715 1.728h-.657v6.037zM71.983 87.173c-.23-.25-.468-.49-.714-.713-1.167-1.055-2.496-1.657-3.9-1.657-1.412-.004-2.914.594-4.424 1.94-.353.302-.698.648-1.05 1.044-.157.177-.47.066-.485-.17-.098-1.61-.278-2.99-.55-4.153-.196-.853-.434-1.59-.738-2.238h-22.79c-.3.647-.545 1.385-.738 2.238-.27 1.162-.448 2.542-.554 4.154-.016.235-.324.346-.485.17-.722-.81-1.444-1.435-2.158-1.91-1.317-.86-2.61-1.178-3.825-1.05-1.21.124-2.364.7-3.39 1.632-.603.552-1.174 1.22-1.68 1.995v38.035c2.11-1.088 5.193-2.01 8.808-3.094 3.99-1.2 8.623-2.584 13.27-4.587 7.337-3.153 14.338-8.96 19.296-16.752 2.783-4.377 4.917-9.376 6.107-14.885zM36.927 76.59H60.41c.353-3.19.903-6.968 2.01-8.6h-.065c-.287.005-.583-.045-.985-.19-.04-.015-.082-.028-.13-.036-.207-.037-.404.02-.576.157-.197.153-.37.41-.5.763-.06.165-.108.35-.15.557-.04.243-.4.305-.516.082-.033-.062-.066-.128-.098-.177-.18-.268-.386-.42-.6-.482-.212-.053-.442-.03-.656.087-.04.016-.082.04-.115.066-.338.227-.47.56-.61.915-.155.405-.32.825-.737 1.208.066.276.107.577.148.87.1.65.19 1.298.477 1.508.263.198.558.28.846.198.28-.083.582-.314.886-.725.155-.228.573-.01.483.25-.19.54-.41 1.01-.665 1.402-.36.535-.788.923-1.288 1.12-.51.203-1.083.203-1.715-.02-.287-.107-.59-.247-.903-.445-1.018.684-1.896.79-2.66.433-.77-.362-1.387-1.216-1.87-2.444-.09-.24.23-.478.426-.322.607.487 1.133.717 1.584.725.42.015.796-.182 1.125-.537.23-.25.402-.622.6-1.047.14-.313.303-.65.508-1.014-.345-.42-.51-.915-.657-1.368-.098-.317-.19-.6-.328-.774-.353-.43-.747-.65-1.19-.66-.443-.008-.944.198-1.477.626 0 .008-.008.008-.008.008l-.008.008c-.213.173-.566-.247-.353-.428.517-.462.763-.91.796-1.335.058-.496-.164-.965-.517-1.36-.353-.388-.87-.615-1.404-.854-.288-.128-.575-.26-.855-.416-.27.157-.566.29-.846.416-.535.24-1.052.465-1.405.853-.353.395-.575.864-.525 1.36.04.423.28.872.804 1.334.205.18-.14.602-.36.428 0 0 0-.008-.01-.008v-.008c-.54-.428-1.033-.634-1.476-.626-.443.008-.846.23-1.2.66-.13.173-.225.457-.327.774-.147.454-.303.948-.656 1.368.213.362.37.7.517 1.014.198.425.37.795.6 1.047.328.354.706.552 1.124.536.452-.01.97-.24 1.576-.726.206-.157.525.083.427.322-.476 1.228-1.092 2.08-1.863 2.444-.763.36-1.64.25-2.667-.433-.312.197-.608.338-.895.445-.64.223-1.21.223-1.72.02-.5-.197-.932-.584-1.285-1.12-.258-.392-.48-.86-.673-1.4-.086-.26.328-.48.493-.253.3.41.6.642.886.724.283.082.574 0 .837-.198.295-.21.386-.857.476-1.508.04-.293.09-.594.148-.87-.42-.383-.583-.803-.74-1.207-.134-.353-.266-.687-.598-.914-.04-.025-.082-.05-.123-.066-.213-.116-.44-.14-.648-.087-.22.062-.427.214-.6.482-.036.05-.07.115-.106.177-.112.222-.473.16-.518-.082-.033-.206-.082-.392-.144-.557-.127-.354-.3-.61-.5-.762-.178-.135-.37-.193-.575-.156-.045.008-.095.02-.136.037-.398.145-.69.195-.985.19h-.066c1.118 1.632 1.66 5.41 2.02 8.6zM60.344 77.147h-23.36c.05.412.082.812.123 1.19.098.937.184 1.744.263 2.33h22.588c.082-.586.172-1.394.27-2.33.034-.378.075-.778.116-1.19zM-24.582 61.945h48.524v15.503h-48.524zM23.942 109.578v-15.51h-45.407c1.126 2.904 2.526 5.628 4.137 8.138 1.736 2.707 3.718 5.172 5.875 7.372h35.395z" fill="none"/><path fill="#fff" stroke="#231F20" stroke-width=".007" d="M23.942 110.13h-34.837c1.836 1.8 3.786 3.412 5.813 4.813 2.24 1.554 4.58 2.852 6.952 3.862 4.642 2.007 9.275 3.39 13.264 4.586 3.612 1.09 6.698 2.012 8.808 3.096V110.13z"/><path stroke="#231F20" stroke-width=".007" fill="none" d="M23.942 13.197V-2.306h-48.524v15.503z"/><path fill="#fff" stroke="#231F20" stroke-width=".007" d="M-24.582 13.753h48.524v15.51h-48.524z"/><path stroke="#231F20" stroke-width=".007" fill="none" d="M-24.582 29.82h48.524V45.32h-48.524z"/><path fill="#fff" stroke="#231F20" stroke-width=".007" d="M-24.582 45.886h48.524V61.39h-48.524z"/><path stroke="#231F20" stroke-width=".007" d="M24.37-60.923c.787-.013 1.485-.35 1.994-.878.505-.533.81-1.254.792-2.043-.016-.79-.353-1.498-.883-2.005-.525-.507-1.244-.81-2.032-.793-.048 0-.11.003-.183.01-.074.005-.14.013-.185.022-.078.008-.226-.054-.275-.122l-3.226-4.836c-.073-.117-.036-.31.075-.385l3.444-2.317c.044-.03.192-.05.25-.033.102.037.213.066.328.085.106.016.22.024.345.024.525-.017 1-.246 1.342-.6.337-.36.546-.844.534-1.377-.014-.532-.24-1.008-.592-1.35-.357-.342-.84-.548-1.375-.535-.5.012-.952.216-1.288.54-.337.33-.56.78-.583 1.28-.008.053-.078.185-.123.213l-3.446 2.32c-.11.08-.308.037-.39-.076l-2.8-4.2c-.032-.047-.05-.194-.032-.25.04-.104.07-.213.086-.33.016-.104.024-.217.02-.34-.012-.53-.238-1.013-.59-1.355-.362-.34-.842-.545-1.372-.533-.53.008-1.005.237-1.346.59-.336.36-.546.848-.537 1.38.012.503.218.962.546 1.296.323.342.77.563 1.27.587.054.004.182.08.214.122l2.8 4.203c.077.114.04.31-.075.383l-3.542 2.384c-.045.03-.197.05-.25.03-.103-.034-.213-.063-.324-.08-.11-.016-.226-.024-.345-.024-.53.012-1.006.24-1.347.598-.34.354-.542.845-.534 1.376.012.527.24 1.01.594 1.352.353.34.837.544 1.37.536.5-.012.956-.22 1.293-.546.332-.323.554-.775.583-1.273 0-.055.078-.185.123-.22l3.542-2.38c.115-.08.308-.04.386.076l3.227 4.836c.05.068.053.233.008.3-.135.228-.238.477-.312.74-.066.256-.098.522-.098.797.016.788.353 1.497.886 2.004.527.506 1.24.813 2.03.793zM53.86-36.83c-2.61 0-4.744 2.144-4.744 4.77v7.81h9.488v-7.81c0-1.313-.534-2.506-1.387-3.368-.87-.865-2.052-1.4-3.357-1.4zM54.927-37.276c1.034.21 1.953.73 2.676 1.45.97.966 1.56 2.3 1.56 3.764v7.81h.337l3.185-10.363c-.944-.157-1.658-.98-1.658-1.96 0-.275.05-.537.156-.774-2.963-4.88-6.747-9.224-11.303-12.67-4.252-3.217-9.177-5.663-14.742-7.056v22.73c.016.263.025.524.025.794v9.3h.18l6.074-14.198c-1.277-.185-2.258-1.287-2.258-2.612 0-1.457 1.18-2.637 2.634-2.637 1.45 0 2.627 1.182 2.627 2.638 0 1.325-.976 2.427-2.248 2.612l6.066 14.2h.32v-7.812c0-2.56 1.822-4.716 4.235-5.215-.764-.394-1.297-1.2-1.297-2.123 0-1.308 1.06-2.376 2.364-2.376 1.305 0 2.372 1.068 2.372 2.376 0 .925-.533 1.73-1.305 2.124zM58.892-23.698h-77.344v2.94H66.9v-2.94H59.696zM63.004-33.773l-2.922 9.523h5.852zM23.76-60.09H18.37v17.274c1.69-1.084 3.706-1.718 5.852-1.718 2.15 0 4.16.634 5.86 1.718V-60.09h-6.32zM17.81-60.09h-3.943v23.008c.74-2.166 2.134-4.03 3.944-5.35V-60.09zM13.313-60.09H9.688l-22.3 15.312-1.9 6.21c.578.016 1.095.278 1.452.688 2.975-4.84 6.755-9.148 11.294-12.587 4.334-3.282 9.373-5.774 15.078-7.18v-2.442zM62.955-38.568l-1.896-6.21-22.303-15.31h-3.62v2.443c5.7 1.405 10.745 3.897 15.078 7.18 4.54 3.438 8.315 7.746 11.294 12.586.353-.41.87-.67 1.445-.688zM34.58-60.09h-3.945v17.657c1.81 1.32 3.205 3.186 3.944 5.35v-23.006zM34.58-24.25v-10.078c-.4-5.376-4.9-9.65-10.36-9.65-5.445 0-9.956 4.274-10.354 9.65v10.078H34.58zM13.313-34.348v-22.726C7.74-55.68 2.813-53.236-1.43-50.02c-4.56 3.447-8.338 7.79-11.3 12.672.095.237.155.498.155.773 0 .983-.718 1.805-1.66 1.96l3.18 10.365h.337v-7.81c0-1.464.6-2.8 1.56-3.765.722-.72 1.648-1.24 2.682-1.45-.77-.394-1.303-1.2-1.303-2.123 0-1.308 1.064-2.376 2.367-2.376s2.366 1.068 2.366 2.376c0 .923-.53 1.73-1.3 2.123 2.414.498 4.236 2.654 4.236 5.215v7.81h.32l6.06-14.198c-1.264-.185-2.245-1.287-2.245-2.612 0-1.457 1.178-2.637 2.63-2.637 1.445 0 2.628 1.18 2.628 2.637 0 1.325-.98 2.427-2.25 2.612l6.067 14.2h.18v-9.302c0-.27.016-.536.033-.798zM-13.257-37.158c-.088-.066-.11-.13-.1-.19-.253-.395-.698-.656-1.203-.656-.786 0-1.424.64-1.424 1.43 0 .79.638 1.43 1.424 1.43s1.43-.64 1.43-1.43c0-.21-.047-.407-.127-.584zM61.805-37.348c.008.06-.016.124-.098.19-.09.176-.132.374-.132.582 0 .79.648 1.43 1.428 1.43.788 0 1.428-.64 1.428-1.43 0-.79-.64-1.43-1.427-1.43-.5 0-.943.262-1.198.658zM41.794-37.925L35.95-24.25h11.688zM41.794-38.98c1.14 0 2.076-.933 2.076-2.08s-.935-2.086-2.076-2.086c-1.145 0-2.076.937-2.076 2.085s.93 2.08 2.076 2.08zM53.86-37.58c1 0 1.806-.82 1.806-1.82 0-1.004-.804-1.818-1.806-1.818-.993 0-1.806.814-1.806 1.82 0 1 .813 1.82 1.806 1.82zM67.174-33.973c.574 0 1.042-.468 1.042-1.045 0-.575-.468-1.042-1.042-1.042-.566 0-1.043.468-1.043 1.042 0 .577.477 1.045 1.044 1.045zM24.22-45.167c-.968 0-1.854-.36-2.502-.933-.657-.577-1.06-1.383-1.06-2.273 0-.886.403-1.688 1.06-2.27.648-.576 1.535-.93 2.503-.93.978 0 1.864.354 2.504.93.66.582 1.067 1.384 1.067 2.27 0 .89-.405 1.696-1.066 2.273-.64.574-1.526.933-2.503.933zM24.22-45.728c.842 0 1.597-.3 2.143-.785.534-.478.87-1.135.87-1.86 0-.724-.337-1.377-.87-1.853-.546-.49-1.3-.79-2.142-.79-.837 0-1.59.3-2.137.79-.534.476-.87 1.13-.87 1.852 0 .725.337 1.382.87 1.86.546.485 1.3.786 2.138.786zM6.656-37.925L.812-24.25h11.684zM-5.414-36.83c-1.303 0-2.493.537-3.353 1.402-.858.86-1.39 2.054-1.39 3.367v7.81h9.492v-7.81c0-2.626-2.135-4.77-4.75-4.77zM-14.56-33.773l-2.924 9.523h5.85zM6.656-38.98c1.14 0 2.068-.933 2.068-2.08s-.927-2.086-2.068-2.086-2.077.937-2.077 2.085.935 2.08 2.076 2.08zM-5.414-37.58c1 0 1.81-.82 1.81-1.82 0-1.004-.81-1.818-1.81-1.818-.997 0-1.808.814-1.808 1.82 0 1 .81 1.82 1.808 1.82zM-18.728-33.973c.57 0 1.043-.468 1.043-1.045 0-.575-.472-1.042-1.043-1.042-.577 0-1.042.468-1.042 1.042 0 .577.466 1.045 1.042 1.045zM13.87-20.203h20.71v13.846H13.87zM38.798-17.102h9.03v7.646h-9.03zM68.11-17.102h-.657v7.646h.656c.64 0 1.165-.527 1.165-1.172v-5.3c0-.647-.526-1.174-1.166-1.174zM24.22-18.895c1.876 0 3.596.92 4.958 2.126 1.896 1.676 3.115 3.93 3.115 5.045 0 1.024-.936 1.933-2.454 2.57-1.446.607-3.436.982-5.62.982-2.183 0-4.17-.375-5.614-.983-1.518-.636-2.458-1.545-2.458-2.57 0-1.113 1.223-3.368 3.12-5.043 1.366-1.206 3.08-2.125 4.953-2.125zM24.22-18.338c-1.714 0-3.31.86-4.587 1.988-1.78 1.57-2.926 3.632-2.926 4.625 0 .775.81 1.506 2.113 2.055 1.38.583 3.29.94 5.4.94 2.11 0 4.023-.358 5.406-.94 1.31-.548 2.113-1.28 2.113-2.055 0-.993-1.15-3.056-2.923-4.625-1.276-1.127-2.877-1.988-4.596-1.988zM-6.504-17.658h2.073c.945 0 1.72.777 1.72 1.73v5.3c0 .95-.775 1.728-1.72 1.728h-2.074c-.95 0-1.72-.777-1.72-1.727v-5.3c0-.954.77-1.73 1.72-1.73zM-6.504-17.102c-.642 0-1.167.527-1.167 1.174v5.3c0 .645.524 1.172 1.166 1.172h2.073c.64 0 1.166-.527 1.166-1.172v-5.3c0-.647-.525-1.174-1.167-1.174h-2.074zM52.883-17.658h2.068c.945 0 1.724.777 1.724 1.73v5.3c0 .95-.78 1.728-1.723 1.728h-2.067c-.952 0-1.724-.777-1.724-1.727v-5.3c0-.954.77-1.73 1.723-1.73zM52.883-17.102c-.648 0-1.174.527-1.174 1.174v5.3c0 .645.524 1.172 1.173 1.172h2.068c.64 0 1.166-.527 1.166-1.172v-5.3c0-.647-.525-1.174-1.165-1.174h-2.067zM-19.66-17.102c-.64 0-1.165.527-1.165 1.174v5.3c0 .645.525 1.172 1.164 1.172h.655v-7.646h-.656zM48.098-17.658c.14 0 .28.14.28.278v8.2c0 .14-.14.28-.28.28h-9.575c-.144 0-.28-.14-.28-.28v-8.2c0-.138.136-.278.28-.278h9.575zM60.147-17.102h4.145v7.646h-4.145zM64.57-17.658c.14 0 .28.14.28.278v8.2c0 .14-.14.28-.28.28H59.87c-.132 0-.27-.14-.27-.28v-8.2c0-.138.14-.278.27-.278h4.703zM.352-17.658h9.57c.148 0 .283.14.283.278v8.2c0 .14-.135.28-.283.28H.352c-.144 0-.28-.14-.28-.28v-8.2c0-.138.136-.278.28-.278zM.63-17.102h9.022v7.646H.632zM-16.122-17.658h4.697c.14 0 .28.14.28.278v8.2c0 .14-.14.28-.28.28h-4.697c-.14 0-.28-.14-.28-.28v-8.2c0-.138.14-.278.28-.278zM-15.848-17.102h4.147v7.646h-4.148zM13.313-6.357v-13.846H-18.45v13.846zM35.137-20.203v13.846h31.765v-13.846z" fill="none"/></svg>