<svg width="283" height="119" viewBox="0 0 283 119" fill="none" xmlns="http://www.w3.org/2000/svg">
<rect width="283" height="35" fill="#1E1E1E"/>
<rect y="42" width="199" height="35" fill="#1E1E1E"/>
<rect y="84" width="86" height="35" fill="#1E1E1E"/>
<path d="M21.518 27V23.022H16.058V8.8H11.612V27H21.518ZM32.1512 27.338C37.8972 27.338 41.6932 23.23 41.6932 17.874C41.6932 12.596 37.8972 8.462 32.1512 8.462C26.4052 8.462 22.6092 12.596 22.6092 17.874C22.6092 23.23 26.4052 27.338 32.1512 27.338ZM32.1512 12.622C35.0632 12.622 37.0652 14.884 37.0652 17.874C37.0652 20.942 35.0372 23.178 32.1512 23.178C29.2652 23.178 27.2372 20.942 27.2372 17.874C27.2372 14.884 29.2392 12.622 32.1512 12.622ZM61.8974 16.782H54.6174V20.5H57.7634V22.112C57.4774 22.398 56.1774 23.23 53.8894 23.23C51.0034 23.23 48.7674 21.15 48.7674 17.77C48.7674 14.832 50.6394 12.57 53.8894 12.57C56.3334 12.57 57.8934 14.026 58.2834 14.546L61.0914 11.634C60.1554 10.464 57.9714 8.462 53.6814 8.462C48.0134 8.462 44.1654 12.648 44.1654 17.848C44.1654 23.698 48.4294 27.338 53.5774 27.338C57.7634 27.338 59.9734 25.96 61.8974 24.478V16.782ZM74.2976 27.338C80.0436 27.338 83.8396 23.23 83.8396 17.874C83.8396 12.596 80.0436 8.462 74.2976 8.462C68.5516 8.462 64.7556 12.596 64.7556 17.874C64.7556 23.23 68.5516 27.338 74.2976 27.338ZM74.2976 12.622C77.2096 12.622 79.2116 14.884 79.2116 17.874C79.2116 20.942 77.1836 23.178 74.2976 23.178C71.4116 23.178 69.3836 20.942 69.3836 17.874C69.3836 14.884 71.3856 12.622 74.2976 12.622ZM97.7853 8.8H93.3393V27H97.7853V8.8ZM113.123 27H117.543V8.8H113.175V20.084L106.519 8.8H101.995V27H106.363V15.846L113.123 27ZM137.929 22.918L139.229 27H143.701L137.409 8.8H132.729L126.437 27H130.909L132.209 22.918H137.929ZM136.785 19.278H133.353L135.069 13.506L136.785 19.278ZM152.647 8.8V27H158.003C163.853 27 167.597 23.594 167.597 17.9C167.597 12.206 163.853 8.8 158.003 8.8H152.647ZM158.003 12.648C160.993 12.648 162.969 14.416 162.969 17.9C162.969 21.384 160.993 23.152 158.003 23.152H157.093V12.648H158.003ZM180.988 22.918L182.288 27H186.76L180.468 8.8H175.788L169.496 27H173.968L175.268 22.918H180.988ZM179.844 19.278H176.412L178.128 13.506L179.844 19.278ZM196.796 27V18.784L202.36 8.8H197.446L194.586 14.754L191.804 8.8H186.812L192.376 18.784V27H196.796Z" fill="white"/>
</svg>
