<svg width="540" height="540" viewBox="0 0 540 540" fill="none" xmlns="http://www.w3.org/2000/svg">
<g clip-path="url(#clip0)">
<rect width="540" height="540" rx="20" fill="#2D2D2D"/>
<path d="M113.906 475L238.623 193.662L226.758 160.176C220.254 142.773 212.871 130.645 204.609 123.789C196.523 116.758 185.361 113.242 171.123 113.242C161.279 113.242 151.699 114.297 142.383 116.406V65.7812C154.336 62.793 167.52 61.2988 181.934 61.2988C200.039 61.2988 215.244 64.1992 227.549 70C240.029 75.625 250.664 84.502 259.453 96.6309C268.418 108.76 277.646 127.744 287.139 153.584L372.041 389.043C377.139 402.754 382.324 412.861 387.598 419.365C392.871 425.869 399.199 429.121 406.582 429.121C409.746 429.121 415.459 428.242 423.721 426.484V473.418C419.15 475.527 413.262 477.197 406.055 478.428C398.848 479.658 392.168 480.273 386.016 480.273C370.195 480.273 357.451 476.494 347.783 468.936C338.115 461.201 330.029 448.105 323.525 429.648C298.389 359.688 282.92 315.918 277.119 298.34C271.318 280.762 267.627 268.193 266.045 260.635H264.463C258.311 284.365 249.873 308.799 239.15 333.936L178.242 475H113.906Z" fill="white"/>
<circle cx="315" cy="99" r="35" fill="#66FCF1"/>
</g>
<defs>
<clipPath id="clip0">
<rect width="540" height="540" rx="20" fill="white"/>
</clipPath>
</defs>
</svg>
