<svg width="150" height="52" viewBox="0 0 150 52" fill="none" xmlns="http://www.w3.org/2000/svg">
<g clip-path="url(#clip0)">
<path d="M86.016 14.6445L81.01 7.63515V13.067C80.976 13.3756 81.0175 13.6878 81.1309 13.9767C81.2151 14.0766 81.4833 14.1397 81.946 14.1766H82.0459V14.5236H79.4535V14.1766H79.5587C80.0162 14.1397 80.2896 14.0766 80.3685 13.9767C80.4877 13.6893 80.5311 13.3761 80.4947 13.067V7.62988C80.5313 7.31912 80.4879 7.00417 80.3685 6.71493C80.2914 6.62028 80.0232 6.55716 79.564 6.52561H79.4588V6.1733H81.336L85.9318 12.6674V7.64038C85.9673 7.32963 85.9239 7.01497 85.8056 6.72543C85.56 6.58468 85.2785 6.51889 84.9958 6.53613H84.8959V6.18383H87.4778V6.50458H87.3726C86.9134 6.53613 86.6452 6.59923 86.5681 6.69388C86.4498 6.98342 86.4064 7.29808 86.4419 7.60883V14.6235L86.016 14.6445Z" fill="#414042"/>
<path d="M94.0455 14.5289H88.0667V14.1818H88.1719C88.6241 14.1502 88.8923 14.0819 88.9764 13.982C89.0949 13.6943 89.1384 13.3813 89.1026 13.0723V7.62988C89.1381 7.31914 89.0947 7.00447 88.9764 6.71493C88.7324 6.5749 88.4528 6.50909 88.1719 6.52561H88.0667V6.1733H93.7563V7.64038H93.1358V7.52997C93.1459 7.24496 93.1067 6.96033 93.0201 6.68861C92.7255 6.62114 92.4221 6.59986 92.121 6.62552H90.3121V9.97509H91.8317C92.0386 9.98974 92.2465 9.9702 92.447 9.91726C92.5258 9.88571 92.5732 9.70692 92.5837 9.39142V9.28625H93.0306V11.1267H92.5837V11.0268C92.5837 10.7428 92.5258 10.5693 92.447 10.5009C92.2506 10.4282 92.0401 10.4013 91.8317 10.4221H90.3121V13.0513C90.277 13.3322 90.3302 13.6171 90.4646 13.8663C90.5697 13.9767 90.8326 14.0293 91.2638 14.0293H92.1472C92.5253 14.064 92.9065 14.0301 93.2725 13.9294C93.3619 13.861 93.425 13.5824 93.4513 13.0828V12.9829H94.0718L94.0455 14.5289Z" fill="#414042"/>
<path d="M94.5661 6.50458V6.15228H96.9429L99.4196 12.2467L101.844 6.15228H103.947V6.50458H103.842C103.561 6.48807 103.281 6.55385 103.037 6.69388C102.919 6.98342 102.876 7.29808 102.911 7.60883V13.046C102.875 13.355 102.919 13.668 103.037 13.9557C103.121 14.0556 103.39 14.124 103.842 14.1555H103.947V14.5026H100.792V14.1555H100.897C101.344 14.124 101.612 14.0556 101.696 13.9557C101.812 13.6673 101.854 13.3546 101.817 13.046V7.31962L99.1987 13.8663H98.7833L96.2172 7.23024V13.0723C96.1815 13.3813 96.225 13.6943 96.3434 13.982C96.4276 14.0819 96.6958 14.1502 97.148 14.1818H97.2531V14.5289H94.5661V14.1818H94.6713C95.1235 14.1502 95.3917 14.0819 95.4758 13.982C95.5943 13.6943 95.6377 13.3813 95.602 13.0723V7.62988C95.635 7.31962 95.5936 7.00595 95.4811 6.71493C95.2354 6.57419 94.9539 6.50836 94.6713 6.5256L94.5661 6.50458Z" fill="#414042"/>
<path d="M104.836 14.5289V14.0766L109.226 6.61502H106.76C106.455 6.59671 106.149 6.62147 105.851 6.68861C105.735 6.73594 105.677 6.85689 105.677 7.05671C105.677 7.25652 105.677 7.41955 105.677 7.69824V7.8402H105.057V6.16278H110.578V6.5414L106.203 14.003H108.674C109.062 14.0367 109.453 14.0065 109.831 13.9136C109.915 13.8558 109.968 13.5613 109.994 13.0302V12.9251H110.583V14.5026L104.836 14.5289Z" fill="#414042"/>
<path d="M117.671 14.5289H111.693V14.1818H111.798C112.25 14.1502 112.518 14.0819 112.602 13.982C112.721 13.6943 112.764 13.3813 112.729 13.0723V7.62988C112.764 7.31914 112.721 7.00447 112.602 6.71493C112.358 6.5749 112.079 6.50909 111.798 6.52561H111.693V6.1733H117.361V7.64038H116.741V7.52997C116.751 7.24496 116.712 6.96033 116.625 6.68861C116.33 6.62114 116.027 6.59986 115.726 6.62552H113.917V9.97509H115.431C115.64 9.98956 115.849 9.97003 116.052 9.91726C116.131 9.88571 116.173 9.70692 116.189 9.39142V9.28625H116.635V11.1267H116.189V11.0268C116.189 10.7428 116.131 10.5693 116.052 10.5009C115.854 10.4283 115.641 10.4014 115.431 10.4221H113.917V13.0513C113.879 13.3323 113.933 13.6179 114.069 13.8663C114.169 13.9767 114.437 14.0293 114.869 14.0293H115.752C116.13 14.064 116.511 14.0301 116.877 13.9294C116.967 13.861 117.025 13.5824 117.051 13.0828V12.9829H117.677L117.671 14.5289Z" fill="#414042"/>
<path d="M121.158 6.61502H119.838C119.565 6.61419 119.293 6.63175 119.023 6.66759C118.87 6.66759 118.797 6.83059 118.797 7.08825C118.797 7.34591 118.797 7.44583 118.797 7.58254V7.69824H118.208V6.16278H125.307V7.69824H124.718V7.58254C124.718 7.44583 124.718 7.27756 124.718 7.08825C124.718 6.89895 124.639 6.68863 124.492 6.66759C124.223 6.63209 123.953 6.61454 123.682 6.61502H122.357V13.067C122.321 13.377 122.368 13.6908 122.493 13.9767C122.583 14.0872 122.846 14.1503 123.293 14.1766H123.534V14.5236H120.011V14.1766H120.248C120.695 14.1503 120.963 14.0872 121.047 13.9767C121.169 13.6901 121.215 13.3765 121.179 13.067L121.158 6.61502Z" fill="#414042"/>
<path d="M129.04 14.1818V14.5289H125.79V14.1818H125.901C126.353 14.1502 126.621 14.0819 126.705 13.982C126.821 13.6936 126.862 13.3809 126.826 13.0723V7.62988C126.862 7.31959 126.821 7.00521 126.705 6.71493C126.461 6.5749 126.182 6.50909 125.901 6.52561H125.79V6.1733H129.04V6.50458H128.935C128.476 6.53613 128.207 6.59923 128.13 6.69388C128.012 6.98342 127.969 7.29808 128.004 7.60883V13.046C127.968 13.355 128.012 13.668 128.13 13.9557C128.209 14.0556 128.477 14.124 128.935 14.1555L129.04 14.1818Z" fill="#414042"/>
<path d="M83.1291 31.3293L80.2896 24.3515C80.1576 24.011 79.9976 23.6821 79.8111 23.3682C79.6735 23.2573 79.498 23.2044 79.3221 23.2209H79.2064V22.8739H82.2142V23.2209H82.0932C81.5148 23.2209 81.2308 23.2946 81.2308 23.4418C81.3182 23.7588 81.4307 24.0682 81.5674 24.3672L83.7128 29.6256L85.732 24.3672L85.8424 24.0833C85.9304 23.8912 85.9906 23.6876 86.0212 23.4786C86.0212 23.3156 85.7478 23.2314 85.2114 23.2314H85.0852V22.8844H87.2254V23.2314H87.1045C86.8468 23.2314 86.689 23.284 86.6312 23.3524C86.4591 23.6739 86.3115 24.0079 86.1895 24.3515L83.5077 31.3398L83.1291 31.3293Z" fill="#414042"/>
<path d="M89.3182 28.6476L88.8345 29.7571C88.6977 30.0336 88.6054 30.33 88.561 30.6352C88.561 30.793 88.8029 30.8719 89.2814 30.8719H89.3708V31.2189H87.2201V30.8666H87.3411C87.5397 30.8814 87.7385 30.8394 87.9143 30.7456C88.0986 30.4303 88.2552 30.0995 88.3822 29.7571L91.3059 22.7477H91.695L94.6029 29.7991C94.7275 30.1172 94.8899 30.4191 95.0867 30.6983C95.2449 30.8182 95.4406 30.8778 95.6388 30.8666H95.765V31.2189H92.7046V30.8666H92.8045C93.3304 30.8666 93.588 30.793 93.588 30.6405C93.5655 30.3327 93.4871 30.0315 93.3567 29.7518L92.8887 28.6423L89.3182 28.6476ZM89.497 28.1901H92.652L91.0745 24.3778L89.497 28.1901ZM91.7476 20.4813H93.0254L91.0588 22.1535H90.5329L91.7476 20.4813Z" fill="#414042"/>
<path d="M101.991 31.2189H96.0016V30.8666H96.1068C96.559 30.8351 96.8272 30.772 96.9113 30.6721C97.0296 30.3825 97.073 30.0678 97.0375 29.7571V24.3199C97.0739 24.0109 97.0305 23.6977 96.9113 23.4102C96.8272 23.3121 96.559 23.249 96.1068 23.2209H96.0016V22.8739H99.2513V23.2209H99.1409C98.6887 23.249 98.4205 23.3121 98.3363 23.4102C98.2201 23.6985 98.1785 24.0114 98.2154 24.3199V29.7571C98.1798 30.051 98.2178 30.3491 98.3258 30.6247C98.5996 30.733 98.896 30.771 99.1882 30.7352H100.066C100.458 30.7748 100.853 30.7355 101.228 30.6195C101.328 30.5458 101.391 30.2251 101.418 29.6624V29.552H102.007L101.991 31.2189Z" fill="#414042"/>
<path d="M104.273 28.6476L103.795 29.7571C103.657 30.0337 103.563 30.3299 103.516 30.6352C103.516 30.793 103.758 30.8719 104.242 30.8719H104.331V31.2189H102.17V30.8666H102.285C102.484 30.8814 102.683 30.8394 102.859 30.7456C103.045 30.4315 103.202 30.1005 103.327 29.7571L106.25 22.7477H106.645L109.531 29.7991C109.655 30.1166 109.816 30.4184 110.01 30.6983C110.168 30.8182 110.364 30.8778 110.562 30.8666H110.688V31.2189H107.612V30.8666H107.712C108.238 30.8666 108.501 30.793 108.501 30.6405C108.479 30.332 108.398 30.0305 108.264 29.7518L107.801 28.6423L104.273 28.6476ZM104.452 28.1901H107.607L106.029 24.3778L104.452 28.1901Z" fill="#414042"/>
<path d="M111.356 31.0559V29.4416H111.945V29.5467C111.945 29.7308 111.945 29.8728 111.945 29.9674C111.939 30.102 111.969 30.2358 112.033 30.3543C112.097 30.4729 112.192 30.5719 112.308 30.6405C112.702 30.8871 113.158 31.0166 113.622 31.0138C113.835 31.0248 114.047 30.9928 114.247 30.9196C114.447 30.8464 114.63 30.7336 114.785 30.5879C114.929 30.4294 115.041 30.2436 115.114 30.0414C115.186 29.8391 115.217 29.6245 115.205 29.41C115.224 29.0537 115.13 28.7006 114.937 28.4004C114.645 28.0625 114.287 27.7871 113.885 27.5906L113.296 27.2488C112.024 26.5232 111.393 25.7344 111.393 24.8826C111.386 24.5819 111.443 24.2832 111.561 24.0065C111.679 23.7299 111.855 23.4817 112.076 23.2788C112.548 22.8523 113.166 22.626 113.801 22.6478C114.127 22.6512 114.453 22.6811 114.774 22.7372C115.153 22.8025 115.527 22.8921 115.894 23.0053V24.4935H115.316V24.383C115.316 24.1779 115.316 24.0307 115.316 23.9361C115.324 23.8004 115.298 23.6649 115.239 23.5425C115.18 23.42 115.09 23.3147 114.979 23.2367C114.656 23.0674 114.292 22.991 113.927 23.0159C113.746 23.0086 113.565 23.0405 113.397 23.1095C113.23 23.1785 113.079 23.2828 112.955 23.4155C112.826 23.5575 112.727 23.7235 112.663 23.904C112.599 24.0845 112.571 24.2759 112.581 24.4671C112.566 24.7919 112.657 25.1129 112.839 25.3821C113.091 25.6955 113.409 25.9503 113.77 26.1288L114.353 26.4706C114.967 26.7836 115.525 27.1958 116.004 27.6905C116.296 28.0611 116.447 28.5232 116.43 28.9946C116.437 29.3237 116.372 29.6503 116.238 29.9511C116.105 30.2519 115.906 30.5196 115.657 30.7351C115.128 31.204 114.44 31.4524 113.733 31.4293C113.312 31.4297 112.892 31.3963 112.476 31.3293C112.095 31.2757 111.719 31.1841 111.356 31.0559V31.0559Z" fill="#414042"/>
<path d="M117.545 31.2189V30.7667L121.936 23.3314H119.475C119.168 23.3126 118.861 23.3356 118.56 23.3997C118.444 23.447 118.387 23.5733 118.387 23.7731C118.387 23.9729 118.387 24.1306 118.387 24.4093V24.5513H117.734V22.8581H123.261V23.2367L118.881 30.6931H121.352C121.74 30.7246 122.131 30.6945 122.509 30.6037C122.593 30.5406 122.651 30.2461 122.672 29.7203V29.6414H123.293V31.2189H117.545Z" fill="#414042"/>
<path d="M127.373 23.3314H126.048C125.777 23.329 125.507 23.3448 125.238 23.3787C125.086 23.405 125.007 23.5417 125.007 23.7994C125.007 24.057 125.007 24.1569 125.007 24.2989V24.383H124.418V22.8581H131.532V24.383H130.943V24.2726C130.943 24.1306 130.943 23.9676 130.943 23.7731C130.943 23.5785 130.87 23.3787 130.717 23.3524C130.449 23.3187 130.178 23.3029 129.908 23.3051H128.588V29.7518C128.551 30.0631 128.597 30.3784 128.719 30.6668C128.809 30.772 129.077 30.8403 129.518 30.8613H129.76V31.2189H126.237V30.8666H126.479C126.921 30.8666 127.189 30.7772 127.278 30.6721C127.398 30.3829 127.443 30.0683 127.41 29.7571L127.373 23.3314Z" fill="#414042"/>
<path d="M133.857 28.6476L133.378 29.7571C133.241 30.0336 133.149 30.33 133.105 30.6352C133.105 30.793 133.341 30.8719 133.825 30.8719H133.914V31.2189H131.764V30.8666H131.879C132.08 30.8824 132.281 30.8404 132.458 30.7456C132.64 30.429 132.796 30.0984 132.926 29.7571L135.85 22.7477H136.239L139.147 29.7991C139.269 30.1183 139.431 30.4204 139.63 30.6983C139.781 30.8139 139.967 30.8734 140.156 30.8666H140.288V31.2189H137.211V30.8666H137.311C137.837 30.8666 138.095 30.793 138.095 30.6405C138.073 30.332 137.992 30.0305 137.858 29.7518L137.395 28.6423L133.857 28.6476ZM134.035 28.1901H137.19L135.613 24.3778L134.035 28.1901ZM136.291 20.4813H137.569L135.602 22.1535H135.077L136.291 20.4813Z" fill="#414042"/>
<path d="M140.966 31.0559V29.4416H141.555V29.5467C141.555 29.7308 141.555 29.8728 141.555 29.9674C141.548 30.102 141.579 30.2357 141.643 30.3543C141.707 30.4729 141.802 30.5718 141.918 30.6405C142.309 30.8877 142.764 31.0173 143.227 31.0138C143.44 31.0255 143.654 30.9939 143.854 30.9206C144.055 30.8474 144.239 30.7342 144.394 30.5879C144.539 30.4294 144.651 30.2436 144.723 30.0413C144.796 29.8391 144.827 29.6245 144.815 29.41C144.835 29.0529 144.739 28.6989 144.542 28.4004C144.25 28.0612 143.892 27.7856 143.49 27.5906L142.901 27.2488C141.635 26.5232 141.001 25.7344 140.997 24.8826C140.991 24.5815 141.049 24.2825 141.168 24.0058C141.287 23.7292 141.463 23.4812 141.686 23.2788C142.156 22.8536 142.773 22.6274 143.406 22.6478C143.732 22.6509 144.057 22.6808 144.379 22.7371C144.759 22.8019 145.135 22.8915 145.504 23.0053V24.4935H144.878V24.383C144.878 24.1779 144.878 24.0307 144.878 23.9361C144.888 23.8003 144.862 23.6644 144.803 23.5418C144.744 23.4192 144.654 23.314 144.542 23.2367C144.218 23.0674 143.854 22.991 143.49 23.0159C143.309 23.0089 143.128 23.041 142.96 23.11C142.792 23.1789 142.641 23.2831 142.517 23.4155C142.26 23.7034 142.125 24.0812 142.144 24.4671C142.131 24.7916 142.222 25.1118 142.401 25.3821C142.656 25.6931 142.973 25.9474 143.332 26.1288L143.921 26.4706C144.533 26.7834 145.09 27.1956 145.567 27.6905C145.859 28.0611 146.01 28.5232 145.993 28.9946C146 29.3232 145.935 29.6493 145.802 29.95C145.669 30.2507 145.473 30.5187 145.225 30.7351C144.695 31.203 144.007 31.4513 143.301 31.4292C142.878 31.4294 142.456 31.396 142.039 31.3293C141.673 31.2722 141.314 31.1806 140.966 31.0559V31.0559Z" fill="#414042"/>
<path d="M150.021 30.8719V31.2189H146.761V30.8666H146.866C147.318 30.8351 147.586 30.772 147.67 30.6721C147.789 30.3825 147.832 30.0678 147.797 29.7571V24.3199C147.833 24.0109 147.79 23.6977 147.67 23.4102C147.586 23.3121 147.318 23.249 146.866 23.2209H146.761V22.8739H150.021V23.2209H149.916C149.458 23.2472 149.19 23.3103 149.106 23.4102C148.992 23.6992 148.951 24.0114 148.985 24.3199V29.7571C148.952 30.0673 148.993 30.381 149.106 30.6721C149.19 30.772 149.458 30.8351 149.916 30.8666L150.021 30.8719Z" fill="#414042"/>
<path d="M82.6191 47.4252V47.7775H79.3694V47.4252H79.4746C79.9268 47.4252 80.195 47.3306 80.2791 47.2307C80.397 46.9428 80.4404 46.63 80.4053 46.3209V40.8733C80.441 40.5642 80.3976 40.2512 80.2791 39.9636C80.0351 39.8236 79.7555 39.7578 79.4746 39.7743H79.3694V39.422H82.6191V39.7743H82.5139C82.2313 39.757 81.9498 39.8228 81.7041 39.9636C81.5913 40.2527 81.5498 40.5647 81.5832 40.8733V46.3157C81.5504 46.6242 81.5919 46.9361 81.7041 47.2254C81.7883 47.3253 82.0565 47.3937 82.5139 47.4199L82.6191 47.4252Z" fill="#414042"/>
<path d="M85.3009 44.0914V46.3157C85.2705 46.6238 85.31 46.9347 85.4166 47.2254C85.4954 47.3306 85.7215 47.3937 86.1001 47.4199H86.2053V47.7722H83.1029V47.4199H83.208C83.6603 47.4199 83.9284 47.3253 84.0126 47.2254C84.1304 46.9376 84.1738 46.6247 84.1388 46.3157V40.8733C84.1745 40.5642 84.1311 40.2512 84.0126 39.9636C83.7685 39.8236 83.4889 39.7578 83.208 39.7743H83.1029V39.422H85.0853L86.0896 39.3957H86.5366C88.2473 39.3957 89.1027 40.0968 89.1027 41.499C89.1328 42.0263 88.9804 42.5479 88.671 42.976C88.3617 43.4041 87.9143 43.7126 87.4042 43.8495L89.0133 46.3157C89.2237 46.644 89.4574 46.9568 89.7126 47.2517C89.8301 47.3559 89.9815 47.4139 90.1386 47.4147C90.1912 47.4147 90.3173 47.4147 90.5119 47.4147H90.6276V47.767H88.5242L86.2737 44.0861L85.3009 44.0914ZM85.3009 43.7128H85.7163C87.1676 43.7128 87.8933 43.0117 87.8933 41.6095C87.943 41.1044 87.7961 40.5997 87.4831 40.2002C87.0919 39.8828 86.5908 39.7334 86.0896 39.7848H85.3009V43.7128Z" fill="#414042"/>
<path d="M95.1129 47.9879C94.5812 48.0136 94.0504 47.9213 93.5586 47.7177C93.0667 47.514 92.6261 47.2041 92.2682 46.81C91.5912 45.8745 91.2267 44.7492 91.2267 43.5945C91.2267 42.4397 91.5912 41.3144 92.2682 40.379C92.6417 40.0053 93.0852 39.709 93.5733 39.5068C94.0614 39.3045 94.5846 39.2004 95.1129 39.2004C95.6413 39.2004 96.1644 39.3045 96.6526 39.5068C97.1407 39.709 97.5842 40.0053 97.9577 40.379C98.6347 41.3144 98.9992 42.4397 98.9992 43.5945C98.9992 44.7492 98.6347 45.8745 97.9577 46.81C97.5998 47.2041 97.1592 47.514 96.6673 47.7177C96.1755 47.9213 95.6446 48.0136 95.1129 47.9879V47.9879ZM95.1129 47.6092C95.5001 47.619 95.883 47.527 96.2235 47.3424C96.564 47.1579 96.8501 46.8873 97.0533 46.5576C97.5166 45.6433 97.7581 44.6327 97.7581 43.6076C97.7581 42.5826 97.5166 41.572 97.0533 40.6577C96.8459 40.3308 96.5593 40.0616 96.2201 39.8751C95.8809 39.6886 95.5 39.5908 95.1129 39.5908C94.7258 39.5908 94.345 39.6886 94.0058 39.8751C93.6666 40.0616 93.38 40.3308 93.1726 40.6577C92.7129 41.5731 92.4734 42.5833 92.4734 43.6076C92.4734 44.632 92.7129 45.6422 93.1726 46.5576C93.3758 46.8873 93.6619 47.1579 94.0024 47.3424C94.3428 47.527 94.7258 47.619 95.1129 47.6092V47.6092Z" fill="#414042"/>
<path d="M99.7982 47.7775V47.4252H99.9086C100.356 47.4252 100.624 47.3306 100.708 47.2306C100.826 46.9428 100.869 46.6299 100.834 46.3209V40.8733C100.87 40.5642 100.826 40.2512 100.708 39.9636C100.466 39.824 100.188 39.7582 99.9086 39.7743H99.7982V39.4219H102.427H103.295H103.695C104.238 39.3585 104.79 39.4191 105.307 39.5993C105.824 39.7794 106.293 40.0744 106.68 40.4621C107.066 40.8497 107.36 41.32 107.539 41.8374C107.718 42.3549 107.777 42.9062 107.712 43.4499C107.779 44.6087 107.403 45.7497 106.66 46.6417C106.291 47.0365 105.84 47.3459 105.338 47.5484C104.837 47.7509 104.298 47.8417 103.758 47.8143L99.7982 47.7775ZM102.012 39.79V46.3157C102.012 46.8415 102.065 47.1202 102.164 47.1886C102.527 47.3643 102.931 47.4371 103.332 47.3989C103.773 47.4311 104.216 47.3615 104.626 47.1956C105.036 47.0296 105.403 46.7718 105.698 46.4419C106.283 45.6021 106.562 44.5864 106.487 43.5655C106.487 42.2299 106.208 41.2729 105.64 40.6787C105.072 40.0845 104.163 39.79 102.895 39.79H102.012Z" fill="#414042"/>
<path d="M110.467 45.2009L109.989 46.3104C109.849 46.5863 109.755 46.8828 109.71 47.1886C109.71 47.3463 109.952 47.4252 110.431 47.4252H110.52V47.7775H108.369V47.4252H108.48C108.801 47.4252 109.006 47.3726 109.053 47.3043C109.238 46.991 109.394 46.6619 109.521 46.3209L112.445 39.3116H112.834L115.742 46.3577C115.868 46.6766 116.03 46.98 116.225 47.2622C116.385 47.3778 116.58 47.4353 116.777 47.4252H116.893V47.7775H113.817V47.4252H113.917C114.443 47.4252 114.706 47.3516 114.706 47.1991C114.684 46.8922 114.604 46.5924 114.469 46.3157L114.001 45.2009H110.467ZM110.646 44.7434H113.801L112.224 40.9311L110.646 44.7434Z" fill="#414042"/>
<path d="M29.3939 15.7225V18.1519H32.0493V15.7225H29.3939ZM31.697 17.8259H29.7409V16.0748H31.7075L31.697 17.8259Z" fill="#414042"/>
<path d="M25.2608 15.7225V18.1519H26.812V15.7225H25.2608ZM26.465 17.8259H25.6079V16.0748H26.4492L26.465 17.8259Z" fill="#414042"/>
<path d="M28.1161 15.7225C27.906 15.7253 27.7053 15.8107 27.5577 15.9603C27.4101 16.1099 27.3273 16.3116 27.3273 16.5218V17.4262C27.3145 17.5375 27.3253 17.6501 27.3591 17.7569C27.3928 17.8637 27.4488 17.962 27.5233 18.0456C27.5978 18.1292 27.6891 18.1962 27.7913 18.242C27.8934 18.2878 28.0041 18.3115 28.1161 18.3115C28.2281 18.3115 28.3388 18.2878 28.4409 18.242C28.5431 18.1962 28.6345 18.1292 28.7089 18.0456C28.7834 17.962 28.8394 17.8637 28.8732 17.7569C28.9069 17.6501 28.9177 17.5375 28.9049 17.4262V16.5218C28.9035 16.312 28.8203 16.1111 28.673 15.9618C28.5257 15.8125 28.3258 15.7266 28.1161 15.7225ZM28.5631 17.4262C28.5699 17.4886 28.5634 17.5518 28.5442 17.6115C28.525 17.6713 28.4934 17.7263 28.4515 17.7731C28.4095 17.8198 28.3582 17.8572 28.3009 17.8828C28.2436 17.9084 28.1815 17.9216 28.1187 17.9216C28.056 17.9216 27.9939 17.9084 27.9366 17.8828C27.8792 17.8572 27.8279 17.8198 27.786 17.7731C27.7441 17.7263 27.7125 17.6713 27.6933 17.6115C27.674 17.5518 27.6676 17.4886 27.6744 17.4262V16.5218C27.6676 16.4594 27.674 16.3962 27.6933 16.3365C27.7125 16.2767 27.7441 16.2217 27.786 16.1749C27.8279 16.1282 27.8792 16.0908 27.9366 16.0652C27.9939 16.0396 28.056 16.0264 28.1187 16.0264C28.1815 16.0264 28.2436 16.0396 28.3009 16.0652C28.3582 16.0908 28.4095 16.1282 28.4515 16.1749C28.4934 16.2217 28.525 16.2767 28.5442 16.3365C28.5634 16.3962 28.5699 16.4594 28.5631 16.5218V17.4262Z" fill="#414042"/>
<path d="M38.5435 15.7225V18.1519H41.1726V15.7225H38.5435ZM40.8466 17.8259H38.8905V16.0748H40.8466V17.8259Z" fill="#414042"/>
<path d="M43.7492 15.7225V18.1519H45.3005V15.7225H43.7492ZM44.9534 17.8259H44.0963V16.0748H44.9534V17.8259Z" fill="#414042"/>
<path d="M42.4399 15.7225C42.2288 15.7239 42.0269 15.8087 41.8781 15.9584C41.7294 16.1082 41.6459 16.3107 41.6459 16.5218V17.4262C41.6683 17.6197 41.761 17.7982 41.9064 17.9278C42.0519 18.0574 42.2399 18.129 42.4346 18.129C42.6294 18.129 42.8174 18.0574 42.9629 17.9278C43.1083 17.7982 43.201 17.6197 43.2234 17.4262V16.5218C43.2234 16.3125 43.1414 16.1116 42.9949 15.9621C42.8484 15.8127 42.6491 15.7267 42.4399 15.7225ZM42.8869 17.4262C42.8869 17.5448 42.8398 17.6584 42.756 17.7423C42.6721 17.8261 42.5584 17.8732 42.4399 17.8732C42.3214 17.8732 42.2077 17.8261 42.1239 17.7423C42.04 17.6584 41.9929 17.5448 41.9929 17.4262V16.5218C41.9929 16.4032 42.04 16.2896 42.1239 16.2057C42.2077 16.1219 42.3214 16.0748 42.4399 16.0748C42.5584 16.0748 42.6721 16.1219 42.756 16.2057C42.8398 16.2896 42.8869 16.4032 42.8869 16.5218V17.4262Z" fill="#414042"/>
<path d="M35.3516 15.5595H35.2517C34.762 15.5453 34.2866 15.7253 33.929 16.0602C33.5714 16.3951 33.3608 16.8578 33.3429 17.3473C33.5375 18.3044 34.3946 18.3517 35.2044 18.399H35.3885C36.1877 18.3727 37.0606 18.3254 37.2604 17.3473C37.2412 16.8582 37.0302 16.3964 36.6729 16.0617C36.3156 15.7271 35.841 15.5467 35.3516 15.5595V15.5595ZM35.3254 18.0257H35.2728C34.3788 18.0257 33.8215 17.9573 33.6953 17.3105C33.7499 16.923 33.9418 16.5678 34.236 16.3097C34.5302 16.0515 34.9072 15.9075 35.2986 15.9036C35.69 15.8998 36.0698 16.0365 36.369 16.2889C36.6682 16.5412 36.8669 16.8925 36.9291 17.279C36.7819 17.9573 36.2245 18.0046 35.3254 18.0257V18.0257Z" fill="#414042"/>
<path d="M35.1939 51.9579C35.24 51.9659 35.2856 51.9765 35.3306 51.9895H35.3674L35.1939 51.9579ZM35.1939 44.3648V45.7688H35.5409V44.3648H35.1939ZM35.1939 44.3648V45.7688H35.5409V44.3648H35.1939ZM35.1939 44.3648V45.7688H35.5409V44.3648H35.1939ZM46.5046 44.0914C46.3053 44.5732 46.0661 45.0376 45.7895 45.4796L46.2154 45.4533C46.4812 45.0129 46.7082 44.5501 46.8938 44.0704L46.5046 44.0914ZM39.3427 50.4435H40.284C41.1901 50.0389 42.0578 49.5532 42.8764 48.9922C42.6503 48.9922 42.4294 48.9922 42.2033 48.9922C41.2959 49.5561 40.3383 50.035 39.3427 50.4225V50.4435ZM35.1939 45.7688H35.5409V44.3648H35.1939V45.7688ZM35.1939 49.0868V50.4908H35.5409V49.0868H35.1939ZM35.1939 44.3543V45.7583H35.5409V44.3648L35.1939 44.3543ZM35.1939 44.3543V45.7583H35.5409V44.3648L35.1939 44.3543Z" fill="#414042"/>
<path d="M46.2154 45.4165C45.374 46.8185 44.2339 48.0178 42.8763 48.9291C42.6502 48.9291 42.4294 48.9291 42.2033 48.9291C43.6468 48.044 44.8725 46.8452 45.7895 45.4218L46.2154 45.4165Z" fill="#414042"/>
<path d="M40.284 50.3962C38.7634 51.0795 37.1779 51.608 35.5514 51.9737L35.4147 52.0053H35.3779H35.3411C35.2961 51.9923 35.2505 51.9817 35.2044 51.9737C33.5776 51.6092 31.992 51.0807 30.4718 50.3962H31.4131C32.6498 50.8865 33.9226 51.2803 35.2202 51.5741V50.4435H35.5672V51.5741C36.8632 51.2811 38.1344 50.8873 39.369 50.3962H40.284Z" fill="#414042"/>
<path d="M35.1939 49.0658V50.4698H35.5409V49.0658H35.1939ZM27.8584 48.9449C28.674 49.5078 29.5401 49.9936 30.4456 50.3962H31.3868C30.3893 50.0024 29.4315 49.5147 28.5262 48.9396C28.3054 48.9659 28.0845 48.9554 27.8584 48.9449ZM23.8463 44.0546C24.0293 44.532 24.2528 44.9929 24.5141 45.4323H24.9453C24.6647 44.9944 24.4253 44.5314 24.2302 44.0493C24.104 44.0651 23.9725 44.0651 23.8463 44.0546V44.0546ZM35.1939 49.0658V50.4698H35.5409V49.0658H35.1939ZM35.1939 44.3333V45.7373H35.5409V44.3648L35.1939 44.3333ZM35.5409 51.9474L35.4042 51.9789H35.3674" fill="#414042"/>
<path d="M35.5409 45.7478V49.0658H35.1939V47.9563H27.1433C27.58 48.3249 28.0421 48.6623 28.5262 48.9659C28.3054 48.9659 28.0845 48.9659 27.8584 48.9659C27.4002 48.6456 26.9645 48.2942 26.5543 47.9142C25.7529 47.1946 25.065 46.3579 24.5141 45.4323H24.9453C25.4387 46.2317 26.0423 46.9574 26.7384 47.5882H35.1939V45.7268L35.5409 45.7478Z" fill="#414042"/>
<path d="M45.9051 19.2877V18.583V18.2097C46.0735 18.199 46.2314 18.1245 46.3467 18.0014C46.462 17.8783 46.526 17.7158 46.5256 17.5472V16.3693C46.5272 16.2003 46.4637 16.0371 46.3481 15.9137C46.2326 15.7903 46.0739 15.7162 45.9051 15.7067V12.0837C46.0162 12.0473 46.1129 11.977 46.1818 11.8827C46.2507 11.7883 46.2882 11.6747 46.289 11.5579C46.2897 11.484 46.2758 11.4107 46.2482 11.3422C46.2206 11.2736 46.1797 11.2112 46.1279 11.1585C46.0762 11.1058 46.0145 11.0637 45.9465 11.0348C45.8785 11.0059 45.8055 10.9907 45.7316 10.99C45.6603 10.9889 45.5895 11.0023 45.5235 11.0294C45.4575 11.0565 45.3977 11.0968 45.3478 11.1477C45.3436 11.0387 45.3109 10.9327 45.2527 10.8403C45.1945 10.748 45.1131 10.6727 45.0165 10.6219L44.4328 8.9024L39.0009 5.11637H36.1614C36.3104 4.94887 36.4021 4.73814 36.4229 4.51489C36.4437 4.29164 36.3926 4.06757 36.2771 3.8754C36.1772 3.70286 36.0266 3.56519 35.8459 3.48103C35.7036 3.41815 35.5492 3.38763 35.3937 3.39164L34.8363 2.49245L35.6513 1.96661C35.7995 1.99855 35.9538 1.98621 36.0951 1.93112C36.2363 1.87602 36.3582 1.78059 36.4456 1.65674C36.5331 1.53289 36.5821 1.38607 36.5868 1.23454C36.5914 1.08301 36.5513 0.933452 36.4716 0.804504C36.4226 0.720511 36.3566 0.647667 36.2778 0.590626C36.1991 0.533585 36.1092 0.493631 36.0142 0.473256C35.9148 0.449989 35.8118 0.447305 35.7114 0.465393C35.611 0.483481 35.5154 0.52193 35.4305 0.578398C35.2582 0.69301 35.1374 0.870364 35.0939 1.07269L34.2841 1.59852L33.9055 0.983302C33.9307 0.883166 33.9358 0.779046 33.9206 0.676928C33.9054 0.57481 33.8701 0.476717 33.8168 0.38827C33.7636 0.299823 33.6934 0.222773 33.6102 0.161554C33.5271 0.100335 33.4327 0.0561465 33.3324 0.031539C33.2343 0.0102069 33.133 0.00899565 33.0345 0.0279765C32.936 0.0469574 32.8423 0.0857471 32.7592 0.141976C32.5899 0.251185 32.4695 0.421798 32.4234 0.617938C32.3773 0.814078 32.4091 1.02046 32.5121 1.19365C32.5609 1.28819 32.6309 1.37013 32.7166 1.43308C32.8024 1.49602 32.9016 1.53827 33.0064 1.55648L33.3902 2.17696L32.5857 2.7028C32.4863 2.68104 32.3835 2.6791 32.2834 2.69715C32.1832 2.7152 32.0876 2.75285 32.002 2.80794C31.8346 2.91884 31.7162 3.0898 31.6712 3.28551C31.6261 3.48121 31.658 3.68672 31.7601 3.85961C31.8117 3.94411 31.8797 4.01743 31.9601 4.07523C32.0405 4.13303 32.1316 4.17415 32.2281 4.19616C32.4263 4.23625 32.6322 4.19659 32.8013 4.08575C32.9745 3.97337 33.0971 3.79794 33.1431 3.5967L33.9424 3.07086L34.4997 3.97532C34.4137 4.13886 34.3724 4.32218 34.3797 4.5068C34.3871 4.69142 34.443 4.87084 34.5418 5.02699L34.6259 5.14266H31.6655L26.2388 8.92869L25.6552 10.6482C25.5579 10.6987 25.4757 10.7739 25.4166 10.8661C25.3576 10.9584 25.3238 11.0646 25.3186 11.174C25.2687 11.1231 25.2089 11.0828 25.1429 11.0557C25.0769 11.0285 25.0061 11.0152 24.9348 11.0163C24.8611 11.017 24.7883 11.0322 24.7206 11.0612C24.6529 11.0902 24.5916 11.1323 24.5403 11.1851C24.4889 11.2379 24.4486 11.3004 24.4215 11.3689C24.3945 11.4374 24.3813 11.5105 24.3826 11.5842C24.3827 11.7012 24.4198 11.8152 24.4888 11.9097C24.5578 12.0042 24.6551 12.0743 24.7665 12.11V15.733C24.5973 15.7412 24.4379 15.8149 24.322 15.9386C24.2062 16.0623 24.1431 16.2262 24.146 16.3956V17.5472C24.1444 17.7162 24.208 17.8794 24.3235 18.0027C24.4391 18.1261 24.5977 18.2003 24.7665 18.2097V19.2614H23.1364V40.0319C23.1267 41.3067 23.3384 42.5736 23.7622 43.7759C23.7937 43.86 23.8253 43.9494 23.8621 44.0336C23.9883 44.0336 24.1197 44.0336 24.2459 44.0336C24.2217 43.9823 24.2007 43.9296 24.1828 43.8758H35.2254V44.3648H35.5725V42.2037C35.6836 42.0308 35.8292 41.8827 36.0002 41.7687C36.1712 41.6547 36.364 41.5772 36.5663 41.5411C36.846 41.5365 37.1238 41.5891 37.3824 41.6958C37.641 41.8025 37.8751 41.961 38.0702 42.1616L38.3278 42.3772L38.3541 42.0354C38.3621 41.5737 38.4548 41.1174 38.6276 40.6892H44.1699C44.3427 41.1174 44.4354 41.5737 44.4433 42.0354L44.4696 42.3772L44.7273 42.1616C45.1178 41.7659 45.649 41.541 46.2049 41.5358C46.5682 41.5852 46.8981 41.7738 47.1251 42.0617C47.0025 42.7524 46.805 43.4277 46.5361 44.0756H46.9253C47.4192 42.8018 47.6655 41.4454 47.6509 40.0793V19.2824L45.9051 19.2877ZM46.1681 16.3693V17.5472C46.1686 17.6234 46.141 17.6973 46.0906 17.7545C46.0401 17.8117 45.9704 17.8484 45.8946 17.8574V16.0538C45.9694 16.0662 46.0374 16.1047 46.0864 16.1625C46.1355 16.2202 46.1626 16.2935 46.1628 16.3693H46.1681ZM45.7211 11.3318C45.7654 11.3297 45.8093 11.341 45.8471 11.3642C45.8849 11.3873 45.9148 11.4214 45.933 11.4618C45.9512 11.5023 45.9568 11.5472 45.949 11.5909C45.9413 11.6345 45.9206 11.6749 45.8896 11.7066C45.8587 11.7383 45.8189 11.76 45.7754 11.7688C45.732 11.7776 45.6869 11.7731 45.646 11.756C45.6051 11.7388 45.5704 11.7097 45.5462 11.6725C45.5221 11.6353 45.5098 11.5917 45.5108 11.5474C45.5107 11.492 45.532 11.4387 45.5701 11.3985C45.6083 11.3584 45.6605 11.3345 45.7158 11.3318H45.7211ZM45.1953 11.621C45.2039 11.7274 45.2448 11.8287 45.3124 11.9114C45.38 11.9941 45.4712 12.0542 45.5739 12.0837V13.4194L44.9166 11.7945C45.0132 11.7603 45.0987 11.7003 45.1637 11.621H45.1953ZM25.1293 14.9548V14.4921H45.5739V14.9548H25.1293ZM45.5739 15.3071V18.5988H38.107V15.3334L45.5739 15.3071ZM32.5962 15.3071V18.5988H25.1293V15.3334L32.5962 15.3071ZM26.4492 10.7849C27.6691 8.68156 29.8461 7.10403 32.5909 6.26269V13.4929L31.3184 10.7113C31.4695 10.6755 31.6038 10.5893 31.6994 10.467C31.795 10.3447 31.8461 10.1934 31.8443 10.0382C31.8526 9.94374 31.8411 9.84861 31.8107 9.75881C31.7802 9.66902 31.7314 9.58652 31.6674 9.5166C31.6034 9.44667 31.5255 9.39086 31.4387 9.35266C31.3519 9.31446 31.2581 9.29473 31.1633 9.29473C31.0685 9.29473 30.9747 9.31446 30.8879 9.35266C30.8011 9.39086 30.7232 9.44667 30.6592 9.5166C30.5952 9.58652 30.5464 9.66902 30.5159 9.75881C30.4855 9.84861 30.474 9.94374 30.4823 10.0382C30.4812 10.1789 30.5236 10.3165 30.6035 10.4323C30.6835 10.548 30.7973 10.6363 30.9293 10.685L29.62 13.5245V11.763C29.6174 11.7293 29.6066 11.6968 29.5884 11.6683C29.4908 11.482 29.356 11.3177 29.1923 11.1856C29.0285 11.0535 28.8394 10.9565 28.6367 10.9006C28.7329 10.8052 28.7986 10.6835 28.8255 10.5507C28.8524 10.4179 28.8392 10.2801 28.7877 10.1549C28.7361 10.0296 28.6485 9.92243 28.536 9.84704C28.4234 9.77165 28.291 9.73141 28.1555 9.73141C28.02 9.73141 27.8876 9.77165 27.7751 9.84704C27.6625 9.92243 27.5749 10.0296 27.5234 10.1549C27.4718 10.2801 27.4586 10.4179 27.4855 10.5507C27.5124 10.6835 27.5781 10.8052 27.6744 10.9006C27.2865 11.0292 26.9615 11.2997 26.7647 11.6578C26.7457 11.6878 26.7348 11.7222 26.7331 11.7577V13.3405L26.1442 11.763C26.2641 11.7154 26.367 11.6327 26.4392 11.5257C26.5114 11.4188 26.5497 11.2925 26.5491 11.1635C26.5568 11.0299 26.5218 10.8973 26.4492 10.7849V10.7849ZM31.1396 11.0951L32.491 14.1398H29.7409L31.1396 11.0951ZM30.8557 10.0435C30.8497 9.99609 30.8539 9.94803 30.868 9.90241C30.882 9.85678 30.9056 9.81467 30.9372 9.77887C30.9688 9.74307 31.0076 9.71439 31.0512 9.69475C31.0947 9.67511 31.1419 9.66494 31.1896 9.66494C31.2373 9.66494 31.2845 9.67511 31.328 9.69475C31.3716 9.71439 31.4104 9.74307 31.442 9.77887C31.4736 9.81467 31.4972 9.85678 31.5112 9.90241C31.5253 9.94803 31.5295 9.99609 31.5235 10.0435C31.5295 10.0908 31.5253 10.1389 31.5112 10.1845C31.4972 10.2302 31.4736 10.2723 31.442 10.3081C31.4104 10.3439 31.3716 10.3726 31.328 10.3922C31.2845 10.4118 31.2373 10.422 31.1896 10.422C31.1419 10.422 31.0947 10.4118 31.0512 10.3922C31.0076 10.3726 30.9688 10.3439 30.9372 10.3081C30.9056 10.2723 30.882 10.2302 30.868 10.1845C30.8539 10.1389 30.8497 10.0908 30.8557 10.0435V10.0435ZM28.1739 11.1845C28.4042 11.1712 28.6335 11.2241 28.8347 11.3368C29.036 11.4495 29.2008 11.6175 29.3097 11.8208V14.1608H27.1328V11.8261C27.2283 11.6358 27.3725 11.4742 27.5508 11.3578C27.729 11.2414 27.935 11.1744 28.1476 11.1635L28.1739 11.1845ZM27.8532 10.4168C27.8563 10.3521 27.8783 10.2896 27.9165 10.2372C27.9547 10.1849 28.0075 10.1449 28.0682 10.1222C28.129 10.0995 28.195 10.0952 28.2582 10.1097C28.3214 10.1242 28.3789 10.1569 28.4237 10.2038C28.4685 10.2507 28.4985 10.3098 28.51 10.3736C28.5216 10.4373 28.5142 10.5031 28.4887 10.5628C28.4632 10.6224 28.4208 10.6732 28.3667 10.7089C28.3127 10.7447 28.2493 10.7638 28.1844 10.7639C28.1359 10.7662 28.0875 10.7583 28.0423 10.7405C27.9972 10.7227 27.9563 10.6955 27.9225 10.6606C27.8886 10.6258 27.8626 10.5842 27.8461 10.5385C27.8296 10.4928 27.8231 10.4442 27.8269 10.3958L27.8532 10.4168ZM26.6963 14.1608H25.2082L25.9759 12.252L26.6963 14.1608ZM39.5478 11.1162L40.9465 14.1608H38.1964L39.5478 11.1162ZM39.5005 10.3853C39.4164 10.3749 39.3391 10.3341 39.283 10.2707C39.227 10.2073 39.196 10.1255 39.196 10.0408C39.196 9.95617 39.227 9.87443 39.283 9.811C39.3391 9.74757 39.4164 9.70682 39.5005 9.69642C39.5845 9.70682 39.6618 9.74757 39.7179 9.811C39.7739 9.87443 39.8049 9.95617 39.8049 10.0408C39.8049 10.1255 39.7739 10.2073 39.7179 10.2707C39.6618 10.3341 39.5845 10.3749 39.5005 10.3853V10.3853ZM42.4925 11.1845C42.7092 11.1874 42.9211 11.2485 43.1061 11.3614C43.2911 11.4742 43.4424 11.6347 43.5441 11.8261V14.1608H41.3672V11.8208C41.4685 11.6177 41.6258 11.448 41.8206 11.3315C42.0153 11.215 42.2393 11.1567 42.4662 11.1635L42.4925 11.1845ZM42.177 10.4168C42.1801 10.3518 42.2022 10.2892 42.2407 10.2367C42.2792 10.1843 42.3322 10.1443 42.3933 10.1218C42.4543 10.0993 42.5206 10.0953 42.5839 10.1102C42.6473 10.1252 42.7048 10.1584 42.7493 10.2058C42.7939 10.2532 42.8234 10.3127 42.8344 10.3768C42.8454 10.441 42.8372 10.5069 42.8109 10.5664C42.7847 10.6259 42.7414 10.6764 42.6867 10.7115C42.6319 10.7466 42.568 10.7648 42.503 10.7639C42.4549 10.7655 42.4071 10.757 42.3625 10.7388C42.318 10.7207 42.2778 10.6934 42.2445 10.6586C42.2113 10.6239 42.1857 10.5825 42.1695 10.5372C42.1534 10.4919 42.1469 10.4437 42.1507 10.3958L42.177 10.4168ZM43.9964 14.1608L44.7115 12.252L45.4792 14.1608H43.9964ZM45.0165 11.2003C45.0165 11.2742 44.9871 11.3451 44.9349 11.3974C44.8826 11.4496 44.8117 11.479 44.7378 11.479C44.6639 11.479 44.593 11.4496 44.5407 11.3974C44.4885 11.3451 44.4591 11.2742 44.4591 11.2003C44.4591 11.1264 44.4885 11.0555 44.5407 11.0032C44.593 10.951 44.6639 10.9216 44.7378 10.9216C44.8117 10.9216 44.8826 10.951 44.9349 11.0032C44.9871 11.0555 45.0165 11.1264 45.0165 11.2003ZM38.0754 5.45292H38.88L44.1383 9.13377L44.6221 10.5693C44.5847 10.5692 44.5481 10.5802 44.5169 10.6008C43.2286 8.40811 40.957 6.75173 38.0912 5.91565L38.0754 5.45292ZM38.0754 6.26269C40.8203 7.083 42.992 8.67104 44.2172 10.7796C44.1282 10.8918 44.08 11.0309 44.0805 11.174C44.0799 11.3031 44.1182 11.4293 44.1904 11.5363C44.2626 11.6432 44.3654 11.7259 44.4854 11.7735L43.8912 13.351V11.763C43.892 11.7271 43.8809 11.692 43.8596 11.663C43.6629 11.3069 43.3404 11.0369 42.9552 10.9058C43.0496 10.8108 43.1138 10.6899 43.1397 10.5585C43.1655 10.427 43.1518 10.2908 43.1003 10.1671C43.0489 10.0434 42.9619 9.93773 42.8505 9.86338C42.739 9.78903 42.608 9.74935 42.4741 9.74935C42.3401 9.74935 42.2091 9.78903 42.0976 9.86338C41.9862 9.93773 41.8992 10.0434 41.8478 10.1671C41.7963 10.2908 41.7826 10.427 41.8085 10.5585C41.8343 10.6899 41.8985 10.8108 41.9929 10.9058C41.7892 10.9611 41.5991 11.0579 41.4344 11.19C41.2697 11.3221 41.1341 11.4867 41.0359 11.6736C41.0192 11.7024 41.0101 11.7349 41.0096 11.7682V13.5298L39.7055 10.6903C39.8366 10.6407 39.9492 10.5521 40.0282 10.4364C40.1072 10.3207 40.1487 10.1835 40.1472 10.0435C40.146 9.9151 40.1086 9.78967 40.0394 9.68156C39.9701 9.57345 39.8719 9.48705 39.7558 9.43219C39.6398 9.37733 39.5106 9.35624 39.3831 9.37137C39.2556 9.3865 39.135 9.43722 39.035 9.51772C38.935 9.59822 38.8597 9.70523 38.8177 9.82653C38.7757 9.94784 38.7687 10.0785 38.7975 10.2036C38.8263 10.3287 38.8898 10.4432 38.9806 10.5339C39.0715 10.6246 39.186 10.6879 39.3112 10.7165L38.0702 13.514L38.0754 6.26269ZM36.9659 5.45292H37.7547V10.3327C37.5305 10.0443 37.2647 9.79085 36.9659 9.58072V5.45292ZM34.1579 2.71856C34.1469 2.69778 34.1311 2.67986 34.112 2.66618C34.0928 2.6525 34.0708 2.64343 34.0475 2.6397H34.0107C33.9758 2.64024 33.9415 2.64926 33.9108 2.66599L32.8697 3.34957C32.848 3.36344 32.8296 3.38195 32.816 3.40378C32.8024 3.4256 32.7937 3.4502 32.7908 3.47576C32.7854 3.54064 32.765 3.60336 32.7312 3.65902C32.6975 3.71468 32.6513 3.76175 32.5962 3.79652C32.5534 3.82749 32.5046 3.84927 32.4529 3.86051C32.4013 3.87175 32.3479 3.87223 32.296 3.86186C32.2442 3.85149 32.1951 3.83051 32.1517 3.80027C32.1084 3.77003 32.0717 3.73118 32.0441 3.68611C31.987 3.5909 31.9693 3.47715 31.9949 3.36911C32.0204 3.26107 32.0871 3.16725 32.1808 3.10767C32.2333 3.07186 32.2935 3.04891 32.3566 3.04069C32.4196 3.03247 32.4837 3.03922 32.5436 3.06036C32.567 3.07325 32.5932 3.08001 32.6199 3.08001C32.6465 3.08001 32.6728 3.07325 32.6961 3.06036L33.711 2.3978C33.7301 2.3851 33.7464 2.36873 33.7591 2.34966C33.7718 2.3306 33.7807 2.30921 33.7851 2.28673C33.7895 2.26424 33.7894 2.2411 33.7848 2.21865C33.7802 2.1962 33.7712 2.17487 33.7583 2.15591L33.2325 1.31985C33.217 1.2969 33.1968 1.27752 33.1732 1.26301C33.1496 1.2485 33.1232 1.23918 33.0958 1.23569C32.938 1.23569 32.8749 1.18313 32.775 1.02538C32.72 0.930012 32.7041 0.817034 32.7305 0.710178C32.757 0.603322 32.8238 0.510873 32.917 0.452202C32.9616 0.421124 33.0124 0.399911 33.0659 0.389939C33.1194 0.379967 33.1744 0.381471 33.2272 0.394368C33.2773 0.405155 33.3246 0.426137 33.3662 0.455989C33.4078 0.485842 33.4428 0.523935 33.4691 0.567903C33.513 0.628834 33.5404 0.700044 33.5486 0.774656C33.5569 0.849268 33.5458 0.924758 33.5164 0.993829C33.5011 1.0345 33.5011 1.07936 33.5164 1.12003L34.0423 1.95086C34.0531 1.97079 34.0681 1.98815 34.0862 2.00176C34.1044 2.01537 34.1253 2.0249 34.1474 2.02971C34.1688 2.03997 34.1921 2.04531 34.2158 2.04531C34.2395 2.04531 34.2628 2.03997 34.2841 2.02971L35.3043 1.36189C35.3268 1.34897 35.3458 1.33069 35.3595 1.30868C35.3733 1.28666 35.3814 1.2616 35.3831 1.23569C35.3893 1.17031 35.41 1.10713 35.4436 1.05073C35.4773 0.994335 35.5231 0.946137 35.5777 0.909678C35.6711 0.849485 35.7845 0.828699 35.8932 0.851843C35.9433 0.86263 35.9906 0.883612 36.0322 0.913465C36.0738 0.943317 36.1088 0.981411 36.1351 1.02538C36.1919 1.11979 36.2094 1.23269 36.1839 1.33987C36.1583 1.44705 36.0917 1.53993 35.9984 1.59852C35.9459 1.63434 35.8856 1.65728 35.8226 1.6655C35.7596 1.67373 35.6955 1.66701 35.6355 1.64586C35.6127 1.63431 35.5875 1.62827 35.5619 1.62827C35.5364 1.62827 35.5111 1.63431 35.4883 1.64586L34.4366 2.31369C34.4176 2.32639 34.4012 2.34273 34.3885 2.36179C34.3758 2.38086 34.367 2.40228 34.3626 2.42476C34.3582 2.44725 34.3583 2.47039 34.3629 2.49284C34.3674 2.51529 34.3764 2.53659 34.3893 2.55555L35.0939 3.70187C35.1118 3.73199 35.1387 3.7558 35.1707 3.76994C35.2028 3.78408 35.2384 3.78786 35.2727 3.78076C35.3957 3.7597 35.5221 3.77618 35.6355 3.82807C35.7534 3.88435 35.8521 3.97396 35.9195 4.08575C36.0121 4.242 36.0403 4.42811 35.9981 4.60475C35.9559 4.7814 35.8466 4.93473 35.6934 5.03225C35.5825 5.10504 35.4527 5.14343 35.32 5.14266C35.214 5.13926 35.1105 5.10964 35.0187 5.05642C34.9269 5.00319 34.8498 4.92805 34.7942 4.8377C34.721 4.72794 34.6819 4.59893 34.6819 4.46697C34.6819 4.33501 34.721 4.20601 34.7942 4.09625C34.8132 4.06834 34.8234 4.03536 34.8234 4.0016C34.8234 3.96784 34.8132 3.93487 34.7942 3.90695L34.1579 2.71856ZM34.0738 5.45292H36.6189V9.37041C36.2344 9.17042 35.8147 9.04719 35.3831 9.00758H35.3095C34.878 9.04719 34.4583 9.17042 34.0738 9.37041V5.45292ZM32.938 5.45292H33.7268V9.58072C33.4255 9.78779 33.1592 10.0417 32.938 10.3327V5.45292ZM32.938 10.9584C33.1757 10.5174 33.5193 10.1424 33.9378 9.86701C34.3563 9.59165 34.8367 9.42461 35.3358 9.3809C35.8365 9.42385 36.3187 9.59047 36.739 9.86582C37.1594 10.1412 37.5048 10.5166 37.7442 10.9584V14.1134H32.9275L32.938 10.9584ZM26.5175 9.13377L31.7759 5.45292H32.5804V5.88937C29.7146 6.72545 27.4378 8.38182 26.1547 10.5746C26.1235 10.5539 26.0869 10.5429 26.0495 10.543L26.5175 9.13377ZM25.9233 10.8901C25.9606 10.8908 25.9974 10.8988 26.0316 10.9137C26.0658 10.9286 26.0967 10.9501 26.1226 10.9769C26.1485 11.0038 26.1688 11.0355 26.1824 11.0702C26.1961 11.1049 26.2027 11.142 26.202 11.1793C26.2075 11.2195 26.2044 11.2603 26.1928 11.2992C26.1811 11.338 26.1613 11.3739 26.1347 11.4045C26.108 11.435 26.0752 11.4595 26.0382 11.4763C26.0013 11.4931 25.9613 11.5018 25.9207 11.5018C25.8802 11.5018 25.8401 11.4931 25.8032 11.4763C25.7663 11.4595 25.7334 11.435 25.7067 11.4045C25.6801 11.3739 25.6603 11.338 25.6487 11.2992C25.637 11.2603 25.6339 11.2195 25.6394 11.1793C25.6387 11.1416 25.6455 11.1041 25.6595 11.069C25.6734 11.0339 25.6942 11.002 25.7207 10.9751C25.7471 10.9482 25.7787 10.9268 25.8135 10.9122C25.8482 10.8976 25.8856 10.8901 25.9233 10.8901V10.8901ZM25.4659 11.6157C25.5392 11.7028 25.6389 11.7637 25.7498 11.7892V11.7892L25.0925 13.4141V12.0784C25.1934 12.0458 25.2827 11.9848 25.3499 11.9028C25.417 11.8207 25.4591 11.721 25.4711 11.6157H25.4659ZM24.7087 11.5474C24.7107 11.5061 24.725 11.4663 24.7495 11.433C24.7741 11.3997 24.8079 11.3744 24.8468 11.3603C24.8857 11.3462 24.9278 11.3438 24.968 11.3535C25.0083 11.3632 25.0447 11.3845 25.0729 11.4148C25.101 11.4451 25.1196 11.4831 25.1263 11.5239C25.133 11.5647 25.1275 11.6066 25.1105 11.6443C25.0935 11.682 25.0658 11.7139 25.0308 11.7359C24.9958 11.758 24.9551 11.7692 24.9137 11.7682C24.8584 11.7642 24.8068 11.739 24.7696 11.6978C24.7323 11.6567 24.7124 11.6028 24.7139 11.5474H24.7087ZM24.4773 17.5472V16.3693C24.4754 16.2921 24.5024 16.217 24.553 16.1587C24.6036 16.1003 24.6741 16.0629 24.7507 16.0538V17.8574C24.674 17.8507 24.6028 17.8148 24.5519 17.757C24.501 17.6992 24.4743 17.6241 24.4773 17.5472ZM35.1938 43.5603H24.0356C23.6519 42.4311 23.4599 41.2456 23.4677 40.053V39.8637H35.1938V43.5603ZM35.1938 39.5114H23.4677V35.8305H35.1938V39.5114ZM35.1938 35.4624H23.4677V31.7816H35.1938V35.4624ZM35.1938 31.4135H23.4677V27.7326H35.1938V31.4135ZM35.1938 27.3698H23.4677V23.6889H35.1938V27.3698ZM35.1938 23.3156H23.4677V19.6347H35.1938V23.3156ZM32.9117 18.583V15.3176H37.7284V18.5988L32.9117 18.583ZM38.0807 37.245C38.2121 37.245 38.2647 37.245 38.2858 37.245C38.2977 37.2596 38.3067 37.2764 38.3121 37.2944C38.3175 37.3125 38.3193 37.3314 38.3173 37.3502V37.5658L38.5277 37.5184C38.6961 37.4495 38.885 37.4495 39.0535 37.5184C39.1064 37.5647 39.1494 37.6212 39.1802 37.6844C39.2109 37.7476 39.2286 37.8163 39.2323 37.8865C39.2323 38.2599 39.1429 38.3282 39.1271 38.3387C39.1113 38.3493 39.0114 38.3388 38.8747 38.2651L38.5592 38.0916L38.6118 38.4439C38.6212 38.5948 38.6643 38.7416 38.738 38.8736C38.8118 39.0056 38.9142 39.1193 39.0377 39.2064H38.6118C38.6016 38.5151 38.419 37.8374 38.0807 37.2345V37.245ZM40.184 27.475C39.4258 27.4392 38.6661 27.4992 37.9229 27.6537V25.2927C38.6608 25.4358 39.4116 25.501 40.163 25.4873H40.3418V24.8563C40.3807 23.8039 40.2746 22.7511 40.0263 21.7276H42.7028C42.4572 22.7515 42.3511 23.8039 42.3873 24.8563V25.4873H42.5766C43.3263 25.5006 44.0753 25.4354 44.8114 25.2927V27.6537C44.0664 27.4993 43.305 27.4392 42.545 27.475H42.3715V31.0822H42.5398C43.5854 31.1258 44.6322 31.0303 45.6527 30.7983V33.154C44.9534 32.8806 43.9227 32.8806 42.5345 32.97H42.3715V36.8822H42.2243C42.2454 36.6382 42.1762 36.3949 42.0297 36.1986C41.9503 36.1018 41.8498 36.0244 41.7358 35.9725C41.6219 35.9205 41.4976 35.8954 41.3724 35.8989H41.3304C41.2052 35.8954 41.0809 35.9205 40.9669 35.9725C40.853 36.0244 40.7525 36.1018 40.6731 36.1986C40.5243 36.3937 40.4548 36.6379 40.4785 36.8822H40.3681V32.97H40.2051C38.8116 32.8806 37.7862 32.8806 37.0816 33.154V30.7983C38.1022 31.0299 39.1489 31.1253 40.1946 31.0822H40.3681V27.475H40.184ZM40.184 37.3029C40.2518 37.2724 40.3253 37.2566 40.3996 37.2566C40.474 37.2566 40.5474 37.2724 40.6152 37.3029L40.8939 37.387L40.8361 37.103C40.8048 36.9941 40.7966 36.8799 40.812 36.7676C40.8274 36.6553 40.8661 36.5475 40.9255 36.451C40.9751 36.3975 41.0353 36.3549 41.1023 36.3259C41.1693 36.2969 41.2416 36.2822 41.3146 36.2827H41.3567C41.4288 36.283 41.5 36.298 41.5661 36.327C41.6321 36.3559 41.6915 36.3981 41.7405 36.451C41.8008 36.5471 41.8404 36.6548 41.8567 36.767C41.873 36.8793 41.8656 36.9937 41.8352 37.103L41.7721 37.387L42.056 37.3029C42.1238 37.2724 42.1973 37.2566 42.2716 37.2566C42.3459 37.2566 42.4194 37.2724 42.4872 37.3029C42.6513 37.4541 42.7495 37.6637 42.7606 37.8865C42.6765 38.1757 42.5608 38.3493 42.4241 38.4124C42.3363 38.4276 42.2463 38.4228 42.1606 38.3982C42.075 38.3736 41.9961 38.3299 41.9298 38.2704L41.6984 38.0548V38.3651C41.6978 38.5377 41.7415 38.7077 41.8252 38.8586C41.909 39.0096 42.0301 39.1366 42.177 39.2274H40.5626C40.7105 39.1372 40.8326 39.0105 40.9173 38.8595C41.002 38.7085 41.0465 38.5382 41.0464 38.3651V38.0548L40.794 38.2283C40.7238 38.2918 40.6395 38.3378 40.5481 38.3625C40.4567 38.3872 40.3608 38.3898 40.2682 38.3703C40.1367 38.323 40.021 38.1494 39.9369 37.8444C39.9553 37.6314 40.0551 37.4336 40.2156 37.2923L40.184 37.3029ZM42.9236 38.7016H42.8816C42.8102 38.718 42.7399 38.7391 42.6712 38.7647C42.5825 38.7902 42.4963 38.8236 42.4136 38.8646L42.3189 38.9119C42.2462 38.8531 42.1824 38.784 42.1296 38.7068C42.1978 38.7284 42.2685 38.7408 42.34 38.7436C42.4168 38.743 42.493 38.7306 42.5661 38.7068C42.6122 38.6925 42.6551 38.6693 42.6923 38.6385C42.9178 38.4624 43.0712 38.2099 43.1235 37.9286C43.1235 38.323 43.2181 38.5649 43.3969 38.6753C43.477 38.7196 43.5688 38.738 43.6598 38.7279C43.6352 38.7875 43.5987 38.8416 43.5526 38.8868C43.5065 38.9319 43.4518 38.9673 43.3916 38.9908C43.3519 38.9067 43.2906 38.8346 43.2139 38.782C43.1372 38.7293 43.048 38.698 42.9552 38.6911L42.9236 38.7016ZM43.1077 39.2274H42.4399L42.5661 39.159C42.6809 39.0987 42.8028 39.0528 42.9289 39.0224C43.0341 39.0329 43.1024 39.1538 43.1392 39.2432L43.1077 39.2274ZM40 38.6385C40.0374 38.6647 40.0781 38.6859 40.1209 38.7016C40.1959 38.7248 40.2738 38.7372 40.3523 38.7384C40.4237 38.7355 40.4945 38.7231 40.5626 38.7016C40.5083 38.7775 40.4447 38.8465 40.3733 38.9066V38.9066L40.2787 38.8593C40.1964 38.8175 40.11 38.784 40.021 38.7594C39.9438 38.7314 39.8647 38.7086 39.7844 38.6911C39.6841 38.6857 39.5847 38.7123 39.5006 38.7671C39.4165 38.822 39.352 38.9021 39.3164 38.996C39.2563 38.9726 39.2015 38.9372 39.1554 38.892C39.1094 38.8468 39.0729 38.7928 39.0482 38.7331C39.1375 38.7432 39.2277 38.7248 39.3059 38.6805C39.4899 38.5701 39.5793 38.3335 39.5846 37.9233C39.6355 38.2148 39.7953 38.4761 40.0315 38.6543L40 38.6385ZM40.2314 39.2274H39.5951C39.6372 39.1328 39.7003 39.0224 39.7476 39.0224C39.8847 39.0496 40.0174 39.0955 40.142 39.159L40.2314 39.2274ZM44.0332 40.2791H38.6644C38.6644 40.0267 38.6644 39.7848 38.6644 39.5587H44.091C44.07 39.8269 44.0647 40.0635 44.0647 40.3159L44.0332 40.2791ZM44.07 39.2274H43.6493C43.7722 39.14 43.8738 39.0261 43.9466 38.8941C44.0194 38.7621 44.0616 38.6155 44.07 38.465L44.1226 38.1126L43.8123 38.2862C43.6756 38.3703 43.5915 38.3756 43.5599 38.3598C43.5284 38.344 43.4547 38.2809 43.4495 37.9339C43.4515 37.8595 43.4683 37.7863 43.499 37.7186C43.5297 37.6509 43.5737 37.59 43.6283 37.5395C43.7971 37.4722 43.9853 37.4722 44.1541 37.5395L44.3644 37.5868V37.3712C44.3625 37.3525 44.3642 37.3335 44.3696 37.3155C44.3751 37.2974 44.384 37.2806 44.396 37.266C44.396 37.266 44.4696 37.2345 44.5958 37.266C44.2715 37.8746 44.1017 38.5536 44.1015 39.2432L44.07 39.2274ZM47.225 40.0372C47.2249 40.5648 47.1898 41.0918 47.1198 41.6147C46.8608 41.3579 46.5245 41.1935 46.1628 41.1467C45.6226 41.1358 45.0971 41.3228 44.6852 41.6726C44.6616 41.2514 44.5562 40.8388 44.375 40.4579C44.375 40.0688 44.375 39.7112 44.4012 39.4062C44.4906 38.0443 44.7956 37.5447 45.048 37.2555L45.2426 37.0399L44.9639 36.9663C44.8405 36.9184 44.7084 36.8969 44.5761 36.9033C44.4439 36.9096 44.3144 36.9436 44.1962 37.0031C44.1355 37.0482 44.0897 37.1105 44.0647 37.1819C43.9556 37.1557 43.8422 37.1524 43.7318 37.1724C43.6214 37.1923 43.5163 37.2349 43.4232 37.2976C43.3283 37.3707 43.2504 37.4636 43.195 37.5699C43.1396 37.6761 43.1081 37.7931 43.1024 37.9128V37.9128C43.0973 37.7449 43.0561 37.5801 42.9817 37.4295C42.9073 37.2789 42.8014 37.1461 42.6712 37.0399V37.0399V33.3591C44.0542 33.2697 45.0954 33.2907 45.6895 33.6325L45.9472 33.785V30.3303L45.7053 30.4354C44.7214 30.7243 43.695 30.8417 42.6712 30.7825V27.8693C43.4068 27.8239 44.1447 27.9039 44.8535 28.106L45.1059 28.2374V24.8353L44.8692 24.9352C44.16 25.1156 43.4291 25.197 42.6975 25.1771V24.9141C42.7343 23.5733 42.7659 22.1851 43.0919 21.696L43.276 21.4226H39.3848L39.5688 21.696C39.8896 22.1851 39.9264 23.5733 39.9632 24.9141V25.1771C39.2316 25.197 38.5008 25.1156 37.7915 24.9352L37.5549 24.8353V28.2374L37.8073 28.106C38.5159 27.9036 39.2539 27.8236 39.9895 27.8693V30.7825C38.9655 30.848 37.9381 30.7305 36.9554 30.4354L36.7083 30.3303V33.785L36.9659 33.6325C37.5654 33.2907 38.6065 33.2697 39.9895 33.3591V37.0399C39.86 37.1463 39.7549 37.2794 39.6814 37.43C39.6079 37.5806 39.5677 37.7453 39.5636 37.9128V37.9128C39.5565 37.7942 39.5243 37.6784 39.4689 37.5733C39.4136 37.4681 39.3365 37.3759 39.2428 37.3029C39.0523 37.1818 38.822 37.1403 38.6013 37.1872C38.5763 37.1158 38.5305 37.0535 38.4698 37.0084C38.3515 36.9489 38.2221 36.9149 38.0899 36.9085C37.9576 36.9022 37.8255 36.9237 37.7021 36.9716L37.4234 37.0452L37.6127 37.2608C37.8651 37.5447 38.1753 38.0495 38.2647 39.4115C38.2647 39.7322 38.2963 40.0898 38.2647 40.4631C38.0803 40.8488 37.9731 41.2668 37.9492 41.6936C37.5308 41.3338 36.9915 41.1459 36.4401 41.1677C36.0773 41.2206 35.7425 41.3926 35.4883 41.6568V19.6505H47.2145L47.225 40.0372Z" fill="#414042"/>
<path d="M70.5091 44.3228C70.3958 44.5471 70.2466 44.7514 70.0674 44.9275C69.3984 45.5171 68.629 45.982 67.7958 46.2999C67.4014 46.4682 66.9965 46.5996 66.5916 46.7521C66.1867 46.9046 65.7818 47.0098 65.3769 47.136C62.1187 48.0092 58.8004 48.6401 55.4491 49.0237C50.3876 49.6424 45.298 50.004 40.1999 50.107L39.2691 50.1333C38.0124 50.1333 36.7609 50.1701 35.5041 50.1753H35.1571C33.9003 50.1753 32.6488 50.1753 31.3921 50.1333L30.4561 50.107C25.3581 50.0019 20.2685 49.6403 15.2068 49.0237C11.8559 48.6376 8.5378 48.0067 5.27903 47.136C4.87414 47.0045 4.46398 46.8888 4.06434 46.7521C3.66471 46.6154 3.25982 46.4682 2.86018 46.2946C2.02664 45.9807 1.25829 45.5154 0.593825 44.9222C0.412112 44.7503 0.262536 44.5473 0.152124 44.3228C0.0261377 44.0708 -0.0232252 43.7874 0.010146 43.5077C0.110816 43.0041 0.400597 42.5581 0.819931 42.2615C1.28244 41.9139 1.78792 41.6276 2.32382 41.4096C2.59726 41.294 2.84966 41.1888 3.14413 41.0889H3.1862L3.47015 40.9942C4.97155 40.5178 6.50349 40.1436 8.05545 39.8742C9.7171 39.5692 11.3998 39.3483 13.0772 39.1906C11.4155 39.4745 9.75916 39.8006 8.1238 40.1739C6.82378 40.467 5.54061 40.8303 4.27994 41.2624C3.95392 41.3781 3.63842 41.4938 3.31766 41.6252L3.06 41.7357C2.41442 41.994 1.81165 42.3486 1.27215 42.7873C1.00493 42.985 0.818169 43.2726 0.746314 43.5971C0.747935 43.7504 0.784827 43.9013 0.854128 44.0381C0.923429 44.1749 1.02328 44.2939 1.14596 44.3859C1.75708 44.8801 2.45157 45.2612 3.19672 45.5112C3.57532 45.6584 3.97495 45.7741 4.35356 45.9003C4.73216 46.0265 5.15283 46.1211 5.54721 46.2316C8.79199 46.998 12.0866 47.5356 15.4066 47.8406C18.7194 48.2087 22.0427 48.4296 25.3713 48.5768C26.2284 48.6189 27.0802 48.6504 27.9373 48.682H28.5946C30.7926 48.7556 32.9924 48.7906 35.1939 48.7871H35.5409C37.7442 48.7871 39.9369 48.7556 42.1402 48.682H42.8027C43.6599 48.6504 44.5117 48.6189 45.3688 48.5768C48.6974 48.4243 52.0259 48.2087 55.3282 47.8406C58.6341 47.5278 61.9144 46.9867 65.1456 46.2211C65.5399 46.1054 65.9448 46.0107 66.3339 45.8898C66.7231 45.7688 67.1174 45.6426 67.496 45.5006C68.2396 45.2506 68.9323 44.8695 69.5416 44.3754C69.6661 44.2851 69.7672 44.1665 69.8367 44.0293C69.9062 43.8921 69.942 43.7404 69.9412 43.5866C69.8702 43.2617 69.6833 42.9738 69.4153 42.7768C68.8704 42.3432 68.2667 41.9891 67.6222 41.7251L67.3699 41.6147H67.3278C67.007 41.4833 66.681 41.3623 66.355 41.2466C65.0998 40.8156 63.8218 40.454 62.5269 40.1634C60.8863 39.7883 59.2351 39.4605 57.5735 39.1801C59.2457 39.3536 60.9231 39.5587 62.59 39.8637C64.1434 40.1319 65.6771 40.5043 67.1805 40.9784C67.2752 41.0047 67.3804 41.0415 67.475 41.0784C67.4942 41.076 67.5137 41.076 67.5329 41.0784V41.0784C67.8116 41.1783 68.0902 41.2834 68.3584 41.4044C68.8935 41.6185 69.3975 41.9032 69.857 42.251C70.2755 42.5507 70.5649 42.9979 70.6668 43.5025C70.6964 43.7855 70.6415 44.0709 70.5091 44.3228V44.3228Z" fill="#00A651"/>
<path d="M70.651 39.6691C70.5973 40.0006 70.4515 40.3103 70.2304 40.563C70.0308 40.7836 69.8087 40.9828 69.5678 41.1572C69.1734 41.4305 68.7565 41.6698 68.3216 41.8724C68.0849 41.9881 67.8378 42.0932 67.5906 42.1931C67.3435 42.293 66.9491 42.4403 66.6284 42.556C64.6125 43.2085 62.5531 43.7181 60.4656 44.0809C55.7044 44.9024 50.8985 45.4397 46.0734 45.69C45.9314 45.69 45.7947 45.69 45.6527 45.69C42.2663 45.8793 38.8852 45.9529 35.5041 45.9792H35.157C31.7759 45.9529 28.3895 45.8793 25.0136 45.69H24.5877C19.7659 45.4426 14.9633 44.9053 10.2061 44.0809C8.11651 43.7218 6.05525 43.2139 4.03801 42.5612L3.07047 42.1984C2.82858 42.0985 2.5867 41.9933 2.35007 41.8776C1.91348 41.6782 1.4963 41.4388 1.10384 41.1625C0.866707 40.9873 0.648209 40.7882 0.451802 40.5683C0.230805 40.3175 0.0850011 40.0095 0.0311312 39.6796C0.00188491 39.3319 0.0888033 38.9842 0.278275 38.6911C0.449069 38.4436 0.658581 38.2252 0.898767 38.0443C1.79877 37.4361 2.79147 36.9779 3.83819 36.6876C4.8478 36.3721 5.87318 36.1302 6.90382 35.9146C8.95984 35.4887 11.0422 35.21 13.1297 34.9892C12.0781 35.1732 11.0632 35.3625 10.0431 35.5781C9.02295 35.7937 7.99231 36.0093 6.98796 36.2722C5.98361 36.5351 4.974 36.7981 4.0012 37.1767C3.03917 37.4925 2.13513 37.9631 1.32469 38.5701C1.15417 38.6769 1.01326 38.8248 0.914934 39.0003C0.816609 39.1758 0.76403 39.3733 0.762044 39.5745C0.900105 39.9762 1.1833 40.3119 1.55606 40.5157C2.17182 40.9025 2.83217 41.2133 3.52269 41.4412C3.78561 41.5358 4.04853 41.62 4.32196 41.7041C6.30818 42.2755 8.33007 42.7146 10.3743 43.0187C14.4864 43.6497 18.6458 44.0336 22.8104 44.2702L23.9146 44.3333C24.0408 44.3333 24.167 44.3333 24.2985 44.3333C27.9128 44.5191 31.5288 44.6085 35.1465 44.6015H35.4936C39.1148 44.6015 42.7343 44.5121 46.3521 44.3333H46.7307L47.835 44.2755C52.0048 44.0388 56.1642 43.6497 60.271 43.0187C62.311 42.7197 64.328 42.2805 66.3076 41.7041H66.3391C66.6021 41.62 66.865 41.5358 67.1332 41.4412C67.8237 41.2133 68.484 40.9025 69.0998 40.5157C69.4722 40.314 69.7555 39.9801 69.8938 39.5797C69.8924 39.3821 69.8428 39.1878 69.7494 39.0137C69.6559 38.8396 69.5214 38.691 69.3575 38.5806C68.543 37.9753 67.6354 37.5064 66.6704 37.1924C65.6948 36.8378 64.7014 36.5342 63.6942 36.2827C62.6793 36.0198 61.6645 35.7937 60.6338 35.5886C59.6032 35.3835 58.5831 35.1837 57.5524 34.9997C59.6558 35.2205 61.7118 35.494 63.7783 35.9199C64.8037 36.1355 65.8291 36.3826 66.844 36.6981C67.8896 36.987 68.8808 37.4453 69.7781 38.0548C70.0183 38.2357 70.2278 38.4541 70.3986 38.7016C70.5899 38.9862 70.6789 39.3273 70.651 39.6691V39.6691Z" fill="#ED1C24"/>
</g>
<defs>
<clipPath id="clip0">
<rect width="150" height="52" fill="white"/>
</clipPath>
</defs>
</svg>
