<svg width="108" height="33" fill="currentColor" xmlns="http://www.w3.org/2000/svg" svg-inline="" role="presentation" focusable="false" tabindex="-1" class="brand-logo"><path d="M17.874 32.198H.873A.867.867 0 010 31.343c0-.47.393-.855.873-.855h17.001c1.462 0 2.64-1.176 2.64-2.608 0-1.432-1.178-2.586-2.64-2.586H4.801c-2.4 0-4.365-1.924-4.365-4.276 0-2.35 1.965-4.253 4.365-4.253H19.14c.48 0 .873.384.873.855 0 .47-.393.855-.873.855H4.8c-1.44 0-2.619 1.154-2.619 2.565 0 1.41 1.179 2.565 2.62 2.565h13.072c2.423 0 4.387 1.924 4.387 4.296 0 2.352-1.964 4.297-4.387 4.297zM42.624 32.155h-14.36c-2.401 0-4.366-1.924-4.366-4.275 0-2.352 1.965-4.275 4.365-4.275h13.051c1.44 0 2.619 1.154 2.619 2.565 0 1.41-1.178 2.565-2.619 2.565H28.57a.867.867 0 01-.873-.855c0-.47.393-.855.873-.855h12.745c.48 0 .873-.385.873-.855a.867.867 0 00-.873-.856h-13.05c-1.441 0-2.62 1.155-2.62 2.566 0 1.41 1.179 2.565 2.62 2.565h14.36c.48 0 .872.384.872.855 0 .47-.392.855-.872.855zM46.572 32.411a.867.867 0 01-.873-.855V27.88c0-2.352 1.964-4.275 4.365-4.275h11.654c.48 0 .873.384.873.854s-.393.855-.873.855H50.064c-1.44 0-2.619 1.155-2.619 2.566v3.655a.871.871 0 01-.873.876zM98.012 31.663h-10.06c-2.402 0-4.366-1.923-4.366-4.275 0-2.351 1.964-4.275 4.365-4.275h18.485c.48 0 .873.385.873.855s-.393.855-.873.855H87.951c-1.44 0-2.619 1.154-2.619 2.565s1.179 2.565 2.62 2.565h10.06c1.44 0 2.619-1.154 2.619-2.565v-.491c0-.47.393-.855.873-.855s.873.384.873.855v.491c0 2.352-1.964 4.275-4.365 4.275zM73.22 32.154a4.645 4.645 0 01-3.251-1.325l-6.023-5.9a.84.84 0 010-1.218.882.882 0 011.243 0l6.024 5.9c1.113 1.09 2.946 1.09 4.06 0l6.35-6.242a.882.882 0 011.244 0 .84.84 0 010 1.218l-6.373 6.242a4.735 4.735 0 01-3.273 1.325zM5.381 1.554c1.174 0 2.076.272 2.705.816.63.534.945 1.307.945 2.318 0 .964-.315 1.713-.945 2.247-.63.525-1.53.787-2.705.787H3.507V11H1.045V1.554H5.38zm-.386 4.365c.534 0 .926-.1 1.174-.3.257-.21.386-.53.386-.96 0-.42-.129-.73-.386-.93-.248-.21-.64-.315-1.174-.315H3.507V5.92h1.488zM13.645 3.7c1.192 0 2.118.33 2.776.988.668.649 1.002 1.56 1.002 2.734 0 1.173-.334 2.09-1.002 2.748-.658.649-1.584.973-2.776.973-1.193 0-2.123-.324-2.791-.973-.659-.659-.988-1.575-.988-2.748 0-1.174.33-2.085.988-2.734.668-.658 1.598-.987 2.79-.987zm0 1.732c-.458 0-.797.158-1.017.473-.219.315-.329.82-.329 1.517 0 .696.11 1.202.33 1.517.219.315.558.472 1.016.472.458 0 .796-.157 1.016-.472.22-.315.329-.82.329-1.517s-.11-1.202-.33-1.517c-.219-.315-.557-.473-1.015-.473zM30.645 3.844L28.484 11h-2.92l-1.288-4.594L23.002 11h-2.905L17.92 3.844h2.562l1.203 5.396 1.402-5.396h2.405L26.88 9.24l1.216-5.396h2.548zM38.48 7.322c0 .324-.023.591-.071.801h-4.88c.076.449.238.778.486.988.258.21.596.315 1.016.315.353 0 .64-.067.86-.2a.976.976 0 00.457-.588l1.975.63c-.2.61-.591 1.078-1.173 1.403-.573.315-1.279.472-2.119.472-1.25 0-2.209-.324-2.877-.973-.658-.649-.987-1.565-.987-2.748 0-1.183.324-2.1.973-2.748.649-.649 1.57-.973 2.763-.973 1.154 0 2.037.32 2.647.959.62.63.93 1.517.93 2.662zm-3.592-1.918c-.773 0-1.23.467-1.374 1.402h2.69c-.114-.935-.553-1.402-1.316-1.402zM44.263 3.7c.325 0 .582.053.773.158l-.258 2.061a1.37 1.37 0 00-.386-.143 1.817 1.817 0 00-.515-.072c-.458 0-.84.148-1.145.444-.306.286-.458.701-.458 1.245V11H39.84V3.844h2.147l.1 1.546c.172-.544.439-.96.801-1.246.372-.295.83-.443 1.374-.443zM49.855 1.41c.897 0 1.66.134 2.29.401.64.268 1.23.702 1.775 1.303L52.53 4.717c-.314-.477-.687-.826-1.116-1.045-.42-.229-.926-.343-1.517-.343-.496 0-.878.085-1.145.257s-.4.4-.4.687c0 .239.137.434.414.587.286.143.768.277 1.446.4 1.307.24 2.237.588 2.79 1.046.564.458.845 1.102.845 1.932 0 .6-.172 1.12-.515 1.56-.344.439-.82.773-1.431 1.002-.602.229-1.284.343-2.047.343-1.069 0-1.937-.129-2.605-.386a4.578 4.578 0 01-1.732-1.217l1.26-1.717c.372.515.792.877 1.26 1.087.467.21 1.03.315 1.688.315.525 0 .916-.071 1.174-.214.267-.153.4-.368.4-.644 0-.22-.143-.396-.429-.53-.277-.143-.744-.277-1.403-.4-.81-.163-1.483-.354-2.018-.573-.524-.23-.935-.535-1.23-.916-.287-.382-.43-.869-.43-1.46 0-.592.158-1.121.473-1.589.324-.467.791-.83 1.402-1.088.62-.267 1.35-.4 2.19-.4zM59.896 3.7c.754 0 1.355.22 1.803.659.449.439.673 1.064.673 1.875V11h-2.433V6.907c0-.907-.339-1.36-1.016-1.36a1.17 1.17 0 00-.93.415c-.24.277-.358.701-.358 1.274V11H55.2V.81h2.434v4.336c.21-.477.505-.835.887-1.073.391-.248.849-.372 1.374-.372zM70.99 9.612c.18 0 .329-.02.443-.058l-.186 1.36a1.983 1.983 0 01-.973.23c-1.03 0-1.646-.368-1.846-1.103-.43.735-1.279 1.102-2.548 1.102-.715 0-1.264-.153-1.646-.458-.381-.305-.572-.749-.572-1.33 0-.612.214-1.103.644-1.475.439-.382 1.154-.673 2.147-.873l1.617-.315v-.258c0-.324-.09-.582-.272-.773-.181-.19-.43-.286-.744-.286-.363 0-.659.086-.888.258-.229.172-.377.453-.443.844l-1.975-.572c.124-.697.467-1.236 1.03-1.618.563-.39 1.322-.586 2.276-.586 1.116 0 1.965.229 2.547.687.582.458.873 1.145.873 2.06v2.605c0 .373.172.559.516.559zm-4.223-.043c.334 0 .635-.09.902-.272.267-.191.4-.44.4-.744v-.616l-1.158.272c-.306.076-.525.172-.659.286-.124.105-.186.258-.186.458s.062.353.186.458c.124.105.296.158.515.158zM76.816 3.7c.324 0 .581.053.772.158l-.257 2.061a1.372 1.372 0 00-.387-.143 1.817 1.817 0 00-.515-.072c-.458 0-.84.148-1.145.444-.305.286-.458.701-.458 1.245V11h-2.433V3.844h2.147l.1 1.546c.172-.544.439-.96.802-1.246.372-.295.83-.443 1.374-.443zM85.43 7.322c0 .324-.025.591-.073.801h-4.88c.076.449.239.778.487.988.257.21.596.315 1.016.315.353 0 .64-.067.859-.2a.976.976 0 00.458-.588l1.975.63c-.2.61-.592 1.078-1.174 1.403-.572.315-1.278.472-2.118.472-1.25 0-2.21-.324-2.877-.973-.658-.649-.987-1.565-.987-2.748 0-1.183.324-2.1.973-2.748.648-.649 1.57-.973 2.762-.973 1.154 0 2.037.32 2.648.959.62.63.93 1.517.93 2.662zm-3.593-1.918c-.773 0-1.231.467-1.374 1.402h2.69c-.114-.935-.553-1.402-1.316-1.402zM94.634 3.7c1.012 0 1.808.33 2.39.988.592.659.888 1.57.888 2.734s-.296 2.075-.888 2.734c-.582.658-1.378.987-2.39.987-.639 0-1.192-.153-1.66-.458a2.591 2.591 0 01-1.002-1.288L91.93 11h-.644V.552h.716V5.36c.22-.515.558-.92 1.016-1.217.468-.295 1.007-.443 1.617-.443zm-.086 6.813c.83 0 1.48-.272 1.947-.815.468-.554.701-1.312.701-2.276 0-.964-.233-1.718-.701-2.261-.468-.554-1.117-.83-1.947-.83-.744 0-1.345.252-1.803.758-.458.506-.706 1.197-.744 2.075v.516c.038.877.286 1.57.744 2.075.458.505 1.06.758 1.803.758zM102.087 12.317c-.267.649-.563 1.102-.887 1.36-.325.267-.735.4-1.231.4-.592 0-1.045-.176-1.36-.53l.272-.615c.23.344.592.515 1.088.515.334 0 .615-.095.844-.286.239-.181.458-.52.659-1.016L101.93 11l-.745-1.775-2.275-5.381h.816l2.189 5.424.358.96.387-1.031 2.104-5.353h.772l-3.449 8.473z"></path></svg>
