<?xml version="1.0" standalone="no"?>
<!DOCTYPE svg PUBLIC "-//W3C//DTD SVG 20010904//EN"
 "http://www.w3.org/TR/2001/REC-SVG-20010904/DTD/svg10.dtd">
<svg version="1.0" xmlns="http://www.w3.org/2000/svg"
 width="700.000000pt" height="700.000000pt" viewBox="0 0 700.000000 700.000000"
 preserveAspectRatio="xMidYMid meet">
<metadata>
Created by potrace 1.11, written by Peter Selinger 2001-2013
</metadata>
<g transform="translate(0.000000,700.000000) scale(0.100000,-0.100000)"
fill="#000000" stroke="none">
<path d="M2825 6555 c-7 -5 -24 -41 -38 -80 -15 -38 -32 -83 -38 -100 -7 -16
-13 -32 -14 -35 -1 -3 -5 -14 -9 -25 -5 -11 -21 -56 -38 -100 -16 -44 -34 -91
-40 -105 -6 -14 -32 -83 -59 -155 -27 -71 -53 -139 -58 -150 -4 -11 -18 -45
-29 -75 -12 -30 -60 -156 -108 -280 -48 -124 -93 -243 -101 -265 -13 -35 -43
-116 -68 -180 -5 -11 -9 -22 -10 -25 -1 -3 -7 -18 -13 -33 -7 -16 -12 -31 -12
-34 0 -3 -6 -19 -14 -36 -29 -65 -236 -612 -236 -624 0 -7 -4 -13 -8 -13 -5 0
-9 -6 -9 -12 -1 -12 -31 -93 -64 -173 -6 -16 -13 -37 -15 -45 -2 -8 -8 -23
-13 -35 -11 -20 -120 -302 -125 -320 -1 -5 -17 -48 -35 -95 -18 -47 -43 -112
-56 -145 -13 -33 -64 -168 -114 -300 -51 -132 -96 -249 -101 -260 -5 -11 -56
-146 -115 -300 -58 -154 -113 -296 -121 -315 -9 -19 -18 -42 -19 -50 -4 -16
-120 -321 -136 -355 -13 -30 -178 -463 -196 -515 -8 -25 -20 -54 -26 -65 -6
-11 -12 -22 -12 -25 -8 -33 -19 -67 -25 -75 -3 -5 -14 -30 -23 -55 -9 -25 -22
-58 -28 -75 -7 -16 -20 -50 -29 -75 -46 -123 -132 -347 -140 -365 -5 -11 -16
-37 -24 -57 l-15 -38 1040 -2 c704 -2 1043 0 1049 7 5 6 38 85 74 175 36 91
70 173 76 182 5 10 10 22 10 28 0 6 9 29 19 53 11 23 31 74 46 112 15 39 29
73 31 76 2 3 -300 6 -671 6 -371 0 -675 3 -675 6 1 24 14 67 20 67 3 0 7 6 7
14 0 13 45 132 64 168 5 10 9 23 9 29 0 6 7 25 15 42 8 18 38 93 66 167 28 74
69 180 91 235 21 55 40 105 42 110 2 6 7 19 11 30 5 11 39 101 77 200 38 99
72 189 77 200 10 22 24 57 25 65 3 10 59 156 72 185 7 17 56 145 110 285 53
140 102 269 109 285 13 30 114 289 145 375 9 25 21 54 25 65 5 11 17 43 27 70
10 28 22 59 27 70 5 11 23 58 41 105 49 129 285 742 295 765 4 11 9 25 11 30
1 6 10 28 20 50 10 22 19 46 20 53 7 37 14 25 74 -133 23 -60 48 -124 56 -141
7 -16 38 -95 69 -175 30 -79 60 -155 67 -169 37 -84 148 -374 148 -387 0 -7 5
-13 10 -13 6 0 9 -3 8 -7 0 -5 2 -17 7 -28 37 -92 88 -222 110 -280 14 -38 35
-89 46 -112 10 -24 19 -47 19 -52 0 -4 9 -30 21 -57 11 -27 24 -58 28 -69 5
-11 19 -44 32 -74 21 -47 24 -50 30 -30 3 13 15 44 26 69 11 25 28 68 38 95
10 28 21 55 25 60 4 6 15 33 25 60 9 28 23 64 31 80 7 17 31 77 54 135 23 58
48 121 56 140 9 19 19 44 24 55 5 11 29 73 55 137 l45 117 -36 88 c-19 48 -37
93 -38 98 -2 6 -9 24 -15 40 -7 17 -26 64 -41 105 -35 95 -174 449 -202 515
-11 27 -21 54 -23 60 -1 5 -7 21 -13 35 -6 14 -32 79 -58 145 -25 66 -51 131
-57 145 -5 14 -11 30 -12 36 -2 6 -10 27 -18 45 -8 19 -43 106 -77 194 -54
139 -119 305 -145 370 -5 11 -9 23 -10 28 -2 4 -4 9 -5 12 -1 3 -3 8 -4 13 -1
4 -8 18 -16 32 -7 14 -13 27 -13 30 1 5 1 5 -50 135 -76 198 -160 410 -163
414 -7 8 -168 5 -179 -4z"/>
<path d="M3426 6545 c3 -11 12 -35 21 -54 8 -18 16 -39 18 -45 1 -6 7 -22 12
-36 10 -23 133 -335 313 -795 43 -110 113 -288 155 -395 146 -371 163 -416
225 -575 34 -88 71 -179 81 -202 10 -24 19 -47 19 -53 0 -6 4 -18 10 -28 20
-36 130 -326 130 -342 0 -10 -8 -37 -19 -61 -18 -42 -32 -79 -36 -89 -1 -3 -7
-18 -13 -33 -20 -47 -87 -214 -157 -392 -38 -93 -76 -189 -86 -212 -11 -23
-19 -46 -19 -51 0 -5 -6 -22 -14 -38 -8 -16 -51 -121 -95 -234 -45 -113 -88
-218 -95 -235 -8 -16 -20 -46 -27 -65 -6 -19 -20 -53 -29 -75 -23 -55 -33 -78
-36 -90 -1 -5 -27 -69 -57 -142 -30 -72 -52 -134 -49 -137 3 -3 0 -6 -6 -6 -7
0 -12 -5 -12 -12 0 -10 -160 -418 -205 -523 -7 -16 -38 -95 -70 -175 -31 -80
-63 -159 -71 -177 -8 -17 -14 -34 -14 -37 0 -3 -9 -25 -19 -49 -17 -39 -32
-75 -36 -87 -1 -3 -8 -21 -16 -40 -8 -19 -60 -147 -115 -285 -54 -137 -101
-252 -104 -255 -14 -14 -7 -30 13 -31 96 -2 739 0 741 3 2 1 18 41 36 88 18
47 39 99 46 115 7 17 54 134 104 260 51 127 98 244 105 260 7 17 23 55 34 85
12 30 26 64 31 75 5 11 28 67 51 125 22 58 46 116 52 130 5 14 11 30 13 35 6
22 205 511 214 527 5 10 10 22 10 27 0 5 8 26 17 47 9 22 18 44 19 50 1 6 10
29 20 50 11 22 19 41 20 44 0 3 6 19 13 35 6 17 22 55 33 85 12 30 26 59 30
65 4 5 8 15 8 22 0 7 9 32 19 56 11 23 46 109 79 190 l59 148 43 -113 c23 -62
48 -126 55 -143 16 -39 53 -132 110 -280 25 -66 51 -131 57 -145 6 -14 14 -34
18 -45 96 -246 135 -346 146 -372 8 -17 14 -34 14 -38 0 -4 6 -21 14 -38 12
-28 25 -61 31 -77 1 -3 5 -14 10 -25 11 -29 149 -380 197 -505 22 -58 49 -124
59 -147 11 -24 19 -47 19 -53 0 -6 4 -18 10 -28 5 -9 34 -80 63 -157 30 -77
74 -188 97 -247 l42 -107 345 -3 c190 -2 349 0 354 3 5 3 -16 70 -46 150 -31
79 -58 151 -60 161 -2 9 -11 30 -19 47 -9 17 -16 32 -16 33 2 4 -33 100 -65
183 -5 11 -9 22 -10 25 -1 3 -5 13 -8 23 -15 37 -20 52 -23 62 -1 6 -17 46
-34 90 -18 44 -37 96 -43 115 -6 19 -14 37 -17 40 -3 3 -6 10 -7 16 -2 10
-122 332 -140 374 -3 8 -7 20 -9 25 -3 14 -133 356 -143 380 -5 11 -33 83 -61
160 -28 77 -55 149 -60 160 -12 29 -77 201 -160 425 -40 107 -81 214 -91 237
-11 24 -19 45 -19 48 0 5 -131 354 -208 555 -20 52 -37 97 -38 100 0 3 -6 19
-13 35 -6 17 -28 73 -47 125 -20 52 -40 104 -44 115 -5 11 -25 65 -46 120 -35
96 -77 208 -94 250 -4 11 -13 36 -20 55 -7 19 -16 44 -21 55 -4 11 -22 58 -39
105 -17 47 -35 94 -40 105 -5 11 -18 47 -30 80 -11 33 -25 69 -30 80 -5 11
-62 160 -126 330 -140 375 -163 434 -175 460 -6 12 -11 27 -13 35 -2 8 -8 29
-15 45 -7 17 -18 46 -25 65 -55 152 -221 587 -227 594 -4 5 -175 9 -383 10
-371 1 -376 1 -370 -19z"/>
<path d="M4702 1812 c-34 -86 -62 -162 -62 -168 0 -5 -6 -16 -12 -23 -7 -6
-13 -15 -13 -19 0 -7 -21 -62 -36 -97 -8 -19 -38 -92 -281 -700 -55 -137 -106
-263 -114 -279 -8 -16 -14 -31 -14 -33 0 -1 266 -3 590 -3 325 0 590 2 590 4
0 2 -13 35 -29 75 -17 39 -27 71 -24 71 3 0 1 6 -4 12 -6 7 -31 69 -58 138
-26 69 -53 139 -60 155 -7 17 -25 62 -40 100 -14 39 -31 81 -37 95 -13 31 -6
12 -124 315 -53 138 -102 264 -109 280 -7 17 -29 73 -50 125 -20 52 -40 98
-43 102 -4 4 -35 -63 -70 -150z"/>
</g>
</svg>
